<?xml version="1.0" encoding="utf-8" standalone="no"?>
<!DOCTYPE svg PUBLIC "-//W3C//DTD SVG 1.1//EN"
  "http://www.w3.org/Graphics/SVG/1.1/DTD/svg11.dtd">
<svg xmlns:xlink="http://www.w3.org/1999/xlink" width="712.8pt" height="424.8pt" viewBox="0 0 712.8 424.8" xmlns="http://www.w3.org/2000/svg" version="1.1">
 <metadata>
  <rdf:RDF xmlns:dc="http://purl.org/dc/elements/1.1/" xmlns:cc="http://creativecommons.org/ns#" xmlns:rdf="http://www.w3.org/1999/02/22-rdf-syntax-ns#">
   <cc:Work>
    <dc:type rdf:resource="http://purl.org/dc/dcmitype/StillImage"/>
    <dc:date>2025-01-15T16:26:21.623580</dc:date>
    <dc:format>image/svg+xml</dc:format>
    <dc:creator>
     <cc:Agent>
      <dc:title>Matplotlib v3.10.0, https://matplotlib.org/</dc:title>
     </cc:Agent>
    </dc:creator>
   </cc:Work>
  </rdf:RDF>
 </metadata>
 <defs>
  <style type="text/css">*{stroke-linejoin: round; stroke-linecap: butt}</style>
 </defs>
 <g id="figure_1">
  <g id="patch_1">
   <path d="M 0 424.8 
L 712.8 424.8 
L 712.8 0 
L 0 0 
z
" style="fill: #1c1c1c"/>
  </g>
  <g id="axes_1">
   <g id="patch_2">
    <path d="M 31.911414 401.744323 
L 705.6 401.744323 
L 705.6 29.804405 
L 31.911414 29.804405 
z
" style="fill: #1c1c1c"/>
   </g>
   <g id="matplotlib.axis_1">
    <g id="xtick_1">
     <g id="line2d_1">
      <path d="M 62.533623 401.744323 
L 62.533623 29.804405 
" clip-path="url(#pbb2f70c16e)" style="fill: none; stroke: #404040; stroke-opacity: 0.3; stroke-width: 0.75; stroke-linecap: square"/>
     </g>
     <g id="line2d_2">
      <defs>
       <path id="m3b6a87b805" d="M 0 0 
L 0 3.5 
" style="stroke: #ffffff; stroke-width: 0.8"/>
      </defs>
      <g>
       <use xlink:href="#m3b6a87b805" x="62.533623" y="401.744323" style="fill: #ffffff; stroke: #ffffff; stroke-width: 0.8"/>
      </g>
     </g>
     <g id="text_1">
      <!-- $\mathdefault{0}$ -->
      <g style="fill: #ffffff" transform="translate(60.042955 415.662822) scale(0.1 -0.1)">
       <defs>
        <path id="CMR17-30" d="M 2688 2025 
C 2688 2416 2682 3080 2413 3591 
C 2176 4039 1798 4198 1466 4198 
C 1158 4198 768 4058 525 3597 
C 269 3118 243 2524 243 2025 
C 243 1661 250 1106 448 619 
C 723 -39 1216 -128 1466 -128 
C 1760 -128 2208 -7 2470 600 
C 2662 1042 2688 1559 2688 2025 
z
M 1466 -26 
C 1056 -26 813 325 723 812 
C 653 1188 653 1738 653 2096 
C 653 2588 653 2997 736 3387 
C 858 3929 1216 4096 1466 4096 
C 1728 4096 2067 3923 2189 3400 
C 2272 3036 2278 2607 2278 2096 
C 2278 1680 2278 1169 2202 792 
C 2067 95 1690 -26 1466 -26 
z
" transform="scale(0.015625)"/>
       </defs>
       <use xlink:href="#CMR17-30" transform="scale(0.996264)"/>
      </g>
     </g>
    </g>
    <g id="xtick_2">
     <g id="line2d_3">
      <path d="M 166.337719 401.744323 
L 166.337719 29.804405 
" clip-path="url(#pbb2f70c16e)" style="fill: none; stroke: #404040; stroke-opacity: 0.3; stroke-width: 0.75; stroke-linecap: square"/>
     </g>
     <g id="line2d_4">
      <g>
       <use xlink:href="#m3b6a87b805" x="166.337719" y="401.744323" style="fill: #ffffff; stroke: #ffffff; stroke-width: 0.8"/>
      </g>
     </g>
     <g id="text_2">
      <!-- $\mathdefault{10}$ -->
      <g style="fill: #ffffff" transform="translate(161.356384 415.662822) scale(0.1 -0.1)">
       <defs>
        <path id="CMR17-31" d="M 1702 4058 
C 1702 4192 1696 4192 1606 4192 
C 1357 3916 979 3827 621 3827 
C 602 3827 570 3827 563 3808 
C 557 3795 557 3782 557 3648 
C 755 3648 1088 3686 1344 3839 
L 1344 461 
C 1344 236 1331 160 781 160 
L 589 160 
L 589 0 
C 896 0 1216 0 1523 0 
C 1830 0 2150 0 2458 0 
L 2458 160 
L 2266 160 
C 1715 160 1702 230 1702 458 
L 1702 4058 
z
" transform="scale(0.015625)"/>
       </defs>
       <use xlink:href="#CMR17-31" transform="scale(0.996264)"/>
       <use xlink:href="#CMR17-30" transform="translate(45.690477 0) scale(0.996264)"/>
      </g>
     </g>
    </g>
    <g id="xtick_3">
     <g id="line2d_5">
      <path d="M 270.141816 401.744323 
L 270.141816 29.804405 
" clip-path="url(#pbb2f70c16e)" style="fill: none; stroke: #404040; stroke-opacity: 0.3; stroke-width: 0.75; stroke-linecap: square"/>
     </g>
     <g id="line2d_6">
      <g>
       <use xlink:href="#m3b6a87b805" x="270.141816" y="401.744323" style="fill: #ffffff; stroke: #ffffff; stroke-width: 0.8"/>
      </g>
     </g>
     <g id="text_3">
      <!-- $\mathdefault{20}$ -->
      <g style="fill: #ffffff" transform="translate(265.16048 415.662822) scale(0.1 -0.1)">
       <defs>
        <path id="CMR17-32" d="M 2669 989 
L 2554 989 
C 2490 536 2438 459 2413 420 
C 2381 369 1920 369 1830 369 
L 602 369 
C 832 619 1280 1072 1824 1597 
C 2214 1967 2669 2402 2669 3035 
C 2669 3790 2067 4224 1395 4224 
C 691 4224 262 3604 262 3030 
C 262 2780 448 2748 525 2748 
C 589 2748 781 2787 781 3010 
C 781 3207 614 3264 525 3264 
C 486 3264 448 3258 422 3245 
C 544 3790 915 4058 1306 4058 
C 1862 4058 2227 3617 2227 3035 
C 2227 2479 1901 2000 1536 1584 
L 262 146 
L 262 0 
L 2515 0 
L 2669 989 
z
" transform="scale(0.015625)"/>
       </defs>
       <use xlink:href="#CMR17-32" transform="scale(0.996264)"/>
       <use xlink:href="#CMR17-30" transform="translate(45.690477 0) scale(0.996264)"/>
      </g>
     </g>
    </g>
    <g id="xtick_4">
     <g id="line2d_7">
      <path d="M 373.945912 401.744323 
L 373.945912 29.804405 
" clip-path="url(#pbb2f70c16e)" style="fill: none; stroke: #404040; stroke-opacity: 0.3; stroke-width: 0.75; stroke-linecap: square"/>
     </g>
     <g id="line2d_8">
      <g>
       <use xlink:href="#m3b6a87b805" x="373.945912" y="401.744323" style="fill: #ffffff; stroke: #ffffff; stroke-width: 0.8"/>
      </g>
     </g>
     <g id="text_4">
      <!-- $\mathdefault{30}$ -->
      <g style="fill: #ffffff" transform="translate(368.964577 415.662822) scale(0.1 -0.1)">
       <defs>
        <path id="CMR17-33" d="M 1414 2157 
C 1984 2157 2234 1662 2234 1090 
C 2234 320 1824 25 1453 25 
C 1114 25 563 194 390 693 
C 422 680 454 680 486 680 
C 640 680 755 782 755 948 
C 755 1133 614 1216 486 1216 
C 378 1216 211 1165 211 926 
C 211 335 787 -128 1466 -128 
C 2176 -128 2720 430 2720 1085 
C 2720 1707 2208 2157 1600 2227 
C 2086 2328 2554 2756 2554 3329 
C 2554 3820 2048 4179 1472 4179 
C 890 4179 378 3829 378 3329 
C 378 3110 544 3072 627 3072 
C 762 3072 877 3155 877 3321 
C 877 3486 762 3569 627 3569 
C 602 3569 570 3569 544 3557 
C 730 3959 1235 4032 1459 4032 
C 1683 4032 2106 3925 2106 3320 
C 2106 3143 2080 2828 1862 2550 
C 1670 2304 1453 2304 1242 2284 
C 1210 2284 1062 2269 1037 2269 
C 992 2263 966 2257 966 2208 
C 966 2163 973 2157 1101 2157 
L 1414 2157 
z
" transform="scale(0.015625)"/>
       </defs>
       <use xlink:href="#CMR17-33" transform="scale(0.996264)"/>
       <use xlink:href="#CMR17-30" transform="translate(45.690477 0) scale(0.996264)"/>
      </g>
     </g>
    </g>
    <g id="xtick_5">
     <g id="line2d_9">
      <path d="M 477.750008 401.744323 
L 477.750008 29.804405 
" clip-path="url(#pbb2f70c16e)" style="fill: none; stroke: #404040; stroke-opacity: 0.3; stroke-width: 0.75; stroke-linecap: square"/>
     </g>
     <g id="line2d_10">
      <g>
       <use xlink:href="#m3b6a87b805" x="477.750008" y="401.744323" style="fill: #ffffff; stroke: #ffffff; stroke-width: 0.8"/>
      </g>
     </g>
     <g id="text_5">
      <!-- $\mathdefault{40}$ -->
      <g style="fill: #ffffff" transform="translate(472.768673 415.662822) scale(0.1 -0.1)">
       <defs>
        <path id="CMR17-34" d="M 2150 4122 
C 2150 4256 2144 4256 2029 4256 
L 128 1254 
L 128 1088 
L 1779 1088 
L 1779 457 
C 1779 224 1766 160 1318 160 
L 1197 160 
L 1197 0 
C 1402 0 1747 0 1965 0 
C 2182 0 2528 0 2733 0 
L 2733 160 
L 2611 160 
C 2163 160 2150 224 2150 457 
L 2150 1088 
L 2803 1088 
L 2803 1254 
L 2150 1254 
L 2150 4122 
z
M 1798 3703 
L 1798 1254 
L 256 1254 
L 1798 3703 
z
" transform="scale(0.015625)"/>
       </defs>
       <use xlink:href="#CMR17-34" transform="scale(0.996264)"/>
       <use xlink:href="#CMR17-30" transform="translate(45.690477 0) scale(0.996264)"/>
      </g>
     </g>
    </g>
    <g id="xtick_6">
     <g id="line2d_11">
      <path d="M 581.554105 401.744323 
L 581.554105 29.804405 
" clip-path="url(#pbb2f70c16e)" style="fill: none; stroke: #404040; stroke-opacity: 0.3; stroke-width: 0.75; stroke-linecap: square"/>
     </g>
     <g id="line2d_12">
      <g>
       <use xlink:href="#m3b6a87b805" x="581.554105" y="401.744323" style="fill: #ffffff; stroke: #ffffff; stroke-width: 0.8"/>
      </g>
     </g>
     <g id="text_6">
      <!-- $\mathdefault{50}$ -->
      <g style="fill: #ffffff" transform="translate(576.57277 415.662822) scale(0.1 -0.1)">
       <defs>
        <path id="CMR17-35" d="M 730 3692 
C 794 3666 1056 3584 1325 3584 
C 1920 3584 2246 3911 2432 4100 
C 2432 4157 2432 4192 2394 4192 
C 2387 4192 2374 4192 2323 4163 
C 2099 4058 1837 3973 1517 3973 
C 1325 3973 1037 3999 723 4139 
C 653 4171 640 4171 634 4171 
C 602 4171 595 4164 595 4037 
L 595 2203 
C 595 2089 595 2057 659 2057 
C 691 2057 704 2070 736 2114 
C 941 2401 1222 2522 1542 2522 
C 1766 2522 2246 2382 2246 1289 
C 2246 1085 2246 715 2054 421 
C 1894 159 1645 25 1370 25 
C 947 25 518 320 403 814 
C 429 807 480 795 506 795 
C 589 795 749 840 749 1038 
C 749 1210 627 1280 506 1280 
C 358 1280 262 1190 262 1011 
C 262 454 704 -128 1382 -128 
C 2042 -128 2669 440 2669 1264 
C 2669 2030 2170 2624 1549 2624 
C 1222 2624 947 2503 730 2274 
L 730 3692 
z
" transform="scale(0.015625)"/>
       </defs>
       <use xlink:href="#CMR17-35" transform="scale(0.996264)"/>
       <use xlink:href="#CMR17-30" transform="translate(45.690477 0) scale(0.996264)"/>
      </g>
     </g>
    </g>
    <g id="xtick_7">
     <g id="line2d_13">
      <path d="M 685.358201 401.744323 
L 685.358201 29.804405 
" clip-path="url(#pbb2f70c16e)" style="fill: none; stroke: #404040; stroke-opacity: 0.3; stroke-width: 0.75; stroke-linecap: square"/>
     </g>
     <g id="line2d_14">
      <g>
       <use xlink:href="#m3b6a87b805" x="685.358201" y="401.744323" style="fill: #ffffff; stroke: #ffffff; stroke-width: 0.8"/>
      </g>
     </g>
     <g id="text_7">
      <!-- $\mathdefault{60}$ -->
      <g style="fill: #ffffff" transform="translate(680.376866 415.662822) scale(0.1 -0.1)">
       <defs>
        <path id="CMR17-36" d="M 678 2176 
C 678 3690 1395 4032 1811 4032 
C 1946 4032 2272 4009 2400 3776 
C 2298 3776 2106 3776 2106 3553 
C 2106 3381 2246 3323 2336 3323 
C 2394 3323 2566 3348 2566 3560 
C 2566 3954 2246 4179 1805 4179 
C 1043 4179 243 3390 243 1984 
C 243 253 966 -128 1478 -128 
C 2099 -128 2688 427 2688 1283 
C 2688 2081 2170 2662 1517 2662 
C 1126 2662 838 2407 678 1960 
L 678 2176 
z
M 1478 25 
C 691 25 691 1200 691 1436 
C 691 1896 909 2560 1504 2560 
C 1613 2560 1926 2560 2138 2120 
C 2253 1870 2253 1609 2253 1289 
C 2253 944 2253 690 2118 434 
C 1978 171 1773 25 1478 25 
z
" transform="scale(0.015625)"/>
       </defs>
       <use xlink:href="#CMR17-36" transform="scale(0.996264)"/>
       <use xlink:href="#CMR17-30" transform="translate(45.690477 0) scale(0.996264)"/>
      </g>
     </g>
    </g>
   </g>
   <g id="matplotlib.axis_2">
    <g id="ytick_1">
     <g id="line2d_15">
      <path d="M 31.911414 378.420306 
L 705.6 378.420306 
" clip-path="url(#pbb2f70c16e)" style="fill: none; stroke: #404040; stroke-opacity: 0.3; stroke-width: 0.75; stroke-linecap: square"/>
     </g>
     <g id="line2d_16">
      <defs>
       <path id="m51fa06794c" d="M 0 0 
L -3.5 0 
" style="stroke: #ffffff; stroke-width: 0.8"/>
      </defs>
      <g>
       <use xlink:href="#m51fa06794c" x="31.911414" y="378.420306" style="fill: #ffffff; stroke: #ffffff; stroke-width: 0.8"/>
      </g>
     </g>
     <g id="text_8">
      <!-- $\mathdefault{−15}$ -->
      <g style="fill: #ffffff" transform="translate(7.2 381.879555) scale(0.1 -0.1)">
       <defs>
        <path id="CMSY10-0" d="M 4218 1472 
C 4326 1472 4442 1472 4442 1600 
C 4442 1728 4326 1728 4218 1728 
L 755 1728 
C 646 1728 531 1728 531 1600 
C 531 1472 646 1472 755 1472 
L 4218 1472 
z
" transform="scale(0.015625)"/>
       </defs>
       <use xlink:href="#CMSY10-0" transform="scale(0.996264)"/>
       <use xlink:href="#CMR17-31" transform="translate(77.487468 0) scale(0.996264)"/>
       <use xlink:href="#CMR17-35" transform="translate(123.177945 0) scale(0.996264)"/>
      </g>
     </g>
    </g>
    <g id="ytick_2">
     <g id="line2d_17">
      <path d="M 31.911414 307.405173 
L 705.6 307.405173 
" clip-path="url(#pbb2f70c16e)" style="fill: none; stroke: #404040; stroke-opacity: 0.3; stroke-width: 0.75; stroke-linecap: square"/>
     </g>
     <g id="line2d_18">
      <g>
       <use xlink:href="#m51fa06794c" x="31.911414" y="307.405173" style="fill: #ffffff; stroke: #ffffff; stroke-width: 0.8"/>
      </g>
     </g>
     <g id="text_9">
      <!-- $\mathdefault{−10}$ -->
      <g style="fill: #ffffff" transform="translate(7.2 310.864422) scale(0.1 -0.1)">
       <use xlink:href="#CMSY10-0" transform="scale(0.996264)"/>
       <use xlink:href="#CMR17-31" transform="translate(77.487468 0) scale(0.996264)"/>
       <use xlink:href="#CMR17-30" transform="translate(123.177945 0) scale(0.996264)"/>
      </g>
     </g>
    </g>
    <g id="ytick_3">
     <g id="line2d_19">
      <path d="M 31.911414 236.390039 
L 705.6 236.390039 
" clip-path="url(#pbb2f70c16e)" style="fill: none; stroke: #404040; stroke-opacity: 0.3; stroke-width: 0.75; stroke-linecap: square"/>
     </g>
     <g id="line2d_20">
      <g>
       <use xlink:href="#m51fa06794c" x="31.911414" y="236.390039" style="fill: #ffffff; stroke: #ffffff; stroke-width: 0.8"/>
      </g>
     </g>
     <g id="text_10">
      <!-- $\mathdefault{−5}$ -->
      <g style="fill: #ffffff" transform="translate(12.181335 239.849289) scale(0.1 -0.1)">
       <use xlink:href="#CMSY10-0" transform="scale(0.996264)"/>
       <use xlink:href="#CMR17-35" transform="translate(77.487468 0) scale(0.996264)"/>
      </g>
     </g>
    </g>
    <g id="ytick_4">
     <g id="line2d_21">
      <path d="M 31.911414 165.374906 
L 705.6 165.374906 
" clip-path="url(#pbb2f70c16e)" style="fill: none; stroke: #404040; stroke-opacity: 0.3; stroke-width: 0.75; stroke-linecap: square"/>
     </g>
     <g id="line2d_22">
      <g>
       <use xlink:href="#m51fa06794c" x="31.911414" y="165.374906" style="fill: #ffffff; stroke: #ffffff; stroke-width: 0.8"/>
      </g>
     </g>
     <g id="text_11">
      <!-- $\mathdefault{0}$ -->
      <g style="fill: #ffffff" transform="translate(19.930079 168.834155) scale(0.1 -0.1)">
       <use xlink:href="#CMR17-30" transform="scale(0.996264)"/>
      </g>
     </g>
    </g>
    <g id="ytick_5">
     <g id="line2d_23">
      <path d="M 31.911414 94.359773 
L 705.6 94.359773 
" clip-path="url(#pbb2f70c16e)" style="fill: none; stroke: #404040; stroke-opacity: 0.3; stroke-width: 0.75; stroke-linecap: square"/>
     </g>
     <g id="line2d_24">
      <g>
       <use xlink:href="#m51fa06794c" x="31.911414" y="94.359773" style="fill: #ffffff; stroke: #ffffff; stroke-width: 0.8"/>
      </g>
     </g>
     <g id="text_12">
      <!-- $\mathdefault{5}$ -->
      <g style="fill: #ffffff" transform="translate(19.930079 97.819022) scale(0.1 -0.1)">
       <use xlink:href="#CMR17-35" transform="scale(0.996264)"/>
      </g>
     </g>
    </g>
   </g>
   <g id="line2d_25">
    <path d="M 62.533623 167.248083 
L 72.914032 169.229548 
L 83.294442 171.245818 
L 93.674852 173.264326 
L 104.055261 175.271529 
L 114.435671 177.262492 
L 124.816081 179.235974 
L 135.19649 181.192146 
L 145.5769 183.131554 
L 155.957309 185.05469 
L 166.337719 186.961838 
L 176.718129 188.853047 
L 187.098538 190.728166 
L 197.478948 192.586901 
L 207.859358 194.428874 
L 218.239767 196.253677 
L 228.620177 198.060929 
L 239.000587 199.850318 
L 249.380996 201.621632 
L 259.761406 203.37479 
L 270.141816 205.109858 
L 280.522225 206.827064 
L 290.902635 208.526799 
L 301.283044 210.209615 
L 311.663454 211.876225 
L 322.043864 213.527486 
L 332.424273 215.164389 
L 342.804683 216.788038 
L 353.185093 218.399636 
L 363.565502 220.000464 
L 373.945912 221.591857 
L 384.326322 223.175184 
L 394.706731 224.75183 
L 405.087141 226.323174 
L 415.467551 227.890572 
L 425.84796 229.455338 
L 436.22837 231.018731 
L 446.608779 232.58194 
L 456.989189 234.146075 
L 467.369599 235.712156 
L 477.750008 237.281107 
L 488.130418 238.853752 
L 498.510828 240.430814 
L 508.891237 242.012909 
L 519.271647 243.600553 
L 529.652057 245.194162 
L 540.032466 246.794056 
L 550.412876 248.400466 
L 560.793285 250.013539 
L 571.173695 251.633346 
L 581.554105 253.259891 
L 591.934514 254.893117 
L 602.314924 256.532916 
L 612.695334 258.179138 
L 623.075743 259.831598 
L 633.456153 261.490088 
L 643.836563 263.154378 
L 654.216972 264.82423 
L 664.597382 266.499402 
L 674.977792 268.179653 
" clip-path="url(#pbb2f70c16e)" style="fill: none; stroke: #b7d4ea; stroke-width: 1.5; stroke-linecap: square"/>
   </g>
   <g id="line2d_26">
    <path d="M 62.533623 169.856811 
L 72.914032 173.820328 
L 83.294442 177.220345 
L 93.674852 180.055245 
L 104.055261 182.343471 
L 114.435671 184.112401 
L 124.816081 185.3931 
L 135.19649 186.217854 
L 145.5769 186.619005 
L 155.957309 186.628395 
L 166.337719 186.277086 
L 176.718129 185.595199 
L 187.098538 184.611805 
L 197.478948 183.354836 
L 207.859358 181.851003 
L 218.239767 180.125717 
L 228.620177 178.203024 
L 239.000587 176.105536 
L 249.380996 173.854382 
L 259.761406 171.469166 
L 270.141816 168.967935 
L 280.522225 166.367171 
L 290.902635 163.681787 
L 301.283044 160.925149 
L 311.663454 158.109099 
L 322.043864 155.244008 
L 332.424273 152.338828 
L 342.804683 149.401163 
L 353.185093 146.43735 
L 363.565502 143.45254 
L 373.945912 140.450802 
L 384.326322 137.435214 
L 394.706731 134.407969 
L 405.087141 131.370476 
L 415.467551 128.323467 
L 425.84796 125.267097 
L 436.22837 122.201041 
L 446.608779 119.12459 
L 456.989189 116.03674 
L 467.369599 112.936274 
L 477.750008 109.821839 
L 488.130418 106.692013 
L 498.510828 103.545364 
L 508.891237 100.380505 
L 519.271647 97.196137 
L 529.652057 93.991085 
L 540.032466 90.764328 
L 550.412876 87.515018 
L 560.793285 84.242495 
L 571.173695 80.946296 
L 581.554105 77.626153 
L 591.934514 74.281998 
L 602.314924 70.913944 
L 612.695334 67.522282 
L 623.075743 64.107465 
L 633.456153 60.670087 
L 643.836563 57.210866 
L 654.216972 53.730624 
L 664.597382 50.230269 
L 674.977792 46.710765 
" clip-path="url(#pbb2f70c16e)" style="fill: none; stroke: #75b4d8; stroke-width: 1.5; stroke-linecap: square"/>
   </g>
   <g id="line2d_27">
    <path d="M 62.533623 172.422249 
L 72.914032 174.390291 
L 83.294442 173.789949 
L 93.674852 171.820171 
L 104.055261 169.062693 
L 114.435671 165.812786 
L 124.816081 162.235763 
L 135.19649 158.440177 
L 145.5769 154.511222 
L 155.957309 150.525227 
L 166.337719 146.555234 
L 176.718129 142.672462 
L 187.098538 138.945951 
L 197.478948 135.441508 
L 207.859358 132.220469 
L 218.239767 129.338526 
L 228.620177 126.844746 
L 239.000587 124.780807 
L 249.380996 123.180485 
L 259.761406 122.069365 
L 270.141816 121.464783 
L 280.522225 121.375954 
L 290.902635 121.804281 
L 301.283044 122.74382 
L 311.663454 124.181857 
L 322.043864 126.09959 
L 332.424273 128.472889 
L 342.804683 131.273096 
L 353.185093 134.467862 
L 363.565502 138.021988 
L 373.945912 141.898248 
L 384.326322 146.058197 
L 394.706731 150.462925 
L 405.087141 155.073766 
L 415.467551 159.852936 
L 425.84796 164.764105 
L 436.22837 169.772892 
L 446.608779 174.84728 
L 456.989189 179.957953 
L 467.369599 185.07855 
L 477.750008 190.185843 
L 488.130418 195.259844 
L 498.510828 200.283838 
L 508.891237 205.244355 
L 519.271647 210.131083 
L 529.652057 214.936734 
L 540.032466 219.656862 
L 550.412876 224.289651 
L 560.793285 228.835668 
L 571.173695 233.297599 
L 581.554105 237.679973 
L 591.934514 241.988876 
L 602.314924 246.231659 
L 612.695334 250.416664 
L 623.075743 254.552941 
L 633.456153 258.649997 
L 643.836563 262.71755 
L 654.216972 266.765308 
L 664.597382 270.802769 
L 674.977792 274.839047 
" clip-path="url(#pbb2f70c16e)" style="fill: none; stroke: #3b8bc2; stroke-width: 1.5; stroke-linecap: square"/>
   </g>
   <g id="line2d_28">
    <path d="M 62.533623 173.336833 
L 72.914032 171.486952 
L 83.294442 165.819313 
L 93.674852 159.252104 
L 104.055261 153.200603 
L 114.435671 148.333529 
L 124.816081 144.938555 
L 135.19649 143.100773 
L 145.5769 142.791616 
L 155.957309 143.914849 
L 166.337719 146.331897 
L 176.718129 149.877116 
L 187.098538 154.36805 
L 197.478948 159.613043 
L 207.859358 165.417317 
L 218.239767 171.58804 
L 228.620177 177.938596 
L 239.000587 184.292182 
L 249.380996 190.484779 
L 259.761406 196.367515 
L 270.141816 201.808466 
L 280.522225 206.693917 
L 290.902635 210.929101 
L 301.283044 214.438482 
L 311.663454 217.1656 
L 322.043864 219.072542 
L 332.424273 220.139077 
L 342.804683 220.361511 
L 353.185093 219.751313 
L 363.565502 218.333562 
L 373.945912 216.145264 
L 384.326322 213.233589 
L 394.706731 209.654058 
L 405.087141 205.468748 
L 415.467551 200.744517 
L 425.84796 195.551312 
L 436.22837 189.960564 
L 446.608779 184.043706 
L 456.989189 177.87083 
L 467.369599 171.509492 
L 477.750008 165.023679 
L 488.130418 158.472943 
L 498.510828 151.911697 
L 508.891237 145.388683 
L 519.271647 138.946597 
L 529.652057 132.621863 
L 540.032466 126.444552 
L 550.412876 120.438433 
L 560.793285 114.621137 
L 571.173695 109.004426 
L 581.554105 103.594549 
L 591.934514 98.392668 
L 602.314924 93.395344 
L 612.695334 88.595066 
L 623.075743 83.980801 
L 633.456153 79.538568 
L 643.836563 75.252004 
L 654.216972 71.102929 
L 664.597382 67.071884 
L 674.977792 63.13865 
" clip-path="url(#pbb2f70c16e)" style="fill: none; stroke: #125da6; stroke-width: 1.5; stroke-linecap: square"/>
   </g>
   <g id="line2d_29">
    <path d="M 62.533623 170.834071 
L 72.914032 164.723393 
L 83.294442 157.087287 
L 93.674852 151.888252 
L 104.055261 150.256756 
L 114.435671 152.049209 
L 124.816081 156.594534 
L 135.19649 163.050998 
L 145.5769 170.57529 
L 155.957309 178.400663 
L 166.337719 185.870628 
L 176.718129 192.450583 
L 187.098538 197.728225 
L 197.478948 201.408097 
L 207.859358 203.30295 
L 218.239767 203.323344 
L 228.620177 201.466303 
L 239.000587 197.803523 
L 249.380996 192.469485 
L 259.761406 185.64974 
L 270.141816 177.569576 
L 280.522225 168.483238 
L 290.902635 158.663844 
L 301.283044 148.394115 
L 311.663454 137.957993 
L 322.043864 127.633221 
L 332.424273 117.684923 
L 342.804683 108.360182 
L 353.185093 99.883641 
L 363.565502 92.454076 
L 373.945912 86.241923 
L 384.326322 81.387697 
L 394.706731 78.001238 
L 405.087141 76.161711 
L 415.467551 75.918294 
L 425.84796 77.291436 
L 436.22837 80.274637 
L 446.608779 84.836629 
L 456.989189 90.923883 
L 467.369599 98.463364 
L 477.750008 107.365436 
L 488.130418 117.526853 
L 498.510828 128.833765 
L 508.891237 141.164664 
L 519.271647 154.393235 
L 529.652057 168.391043 
L 540.032466 183.030026 
L 550.412876 198.184766 
L 560.793285 213.734503 
L 571.173695 229.564877 
L 581.554105 245.569403 
L 591.934514 261.650649 
L 602.314924 277.721146 
L 612.695334 293.704023 
L 623.075743 309.53338 
L 633.456153 325.154422 
L 643.836563 340.523375 
L 654.216972 355.607194 
L 664.597382 370.383098 
L 674.977792 384.837963 
" clip-path="url(#pbb2f70c16e)" style="fill: none; stroke: #08306b; stroke-width: 1.5; stroke-linecap: square"/>
   </g>
   <g id="text_13">
    <!-- B -->
    <g style="fill: #ffffff" transform="translate(360.93306 23.804405) scale(0.24 -0.24)">
     <defs>
      <path id="CMR17-42" d="M 333 4352 
L 333 4186 
C 774 4186 845 4186 845 3900 
L 845 452 
C 845 166 774 166 333 166 
L 333 0 
L 2534 0 
C 3354 0 3885 583 3885 1164 
C 3885 1741 3360 2233 2675 2233 
C 3290 2356 3718 2771 3718 3264 
C 3718 3802 3194 4352 2368 4352 
L 333 4352 
z
M 1248 2304 
L 1248 3937 
C 1248 4155 1261 4186 1517 4186 
L 2336 4186 
C 2970 4186 3251 3674 3251 3277 
C 3251 2791 2861 2304 2170 2304 
L 1248 2304 
z
M 1517 166 
C 1261 166 1248 197 1248 413 
L 1248 2202 
L 2432 2202 
C 3091 2202 3411 1625 3411 1162 
C 3411 699 3046 166 2349 166 
L 1517 166 
z
" transform="scale(0.015625)"/>
     </defs>
     <use xlink:href="#CMR17-42" transform="scale(0.996264)"/>
    </g>
   </g>
   <g id="legend_1">
    <g id="patch_3">
     <path d="M 47.311414 390.744323 
L 141.526466 390.744323 
Q 145.926466 390.744323 145.926466 386.344323 
L 145.926466 235.228384 
Q 145.926466 230.828384 141.526466 230.828384 
L 47.311414 230.828384 
Q 42.911414 230.828384 42.911414 235.228384 
L 42.911414 386.344323 
Q 42.911414 390.744323 47.311414 390.744323 
z
" style="fill: #1c1c1c; opacity: 0.8; stroke: #ffffff; stroke-linejoin: miter"/>
    </g>
    <g id="line2d_30">
     <path d="M 51.711414 247.328384 
L 73.711414 247.328384 
L 95.711414 247.328384 
" style="fill: none; stroke: #b7d4ea; stroke-width: 1.5; stroke-linecap: square"/>
    </g>
    <g id="text_14">
     <!-- $B_{1}$ -->
     <g style="fill: #ffffff" transform="translate(113.311414 255.028384) scale(0.22 -0.22)">
      <defs>
       <path id="CMMI12-42" d="M 2342 3921 
C 2400 4160 2426 4160 2675 4160 
L 3507 4160 
C 4230 4160 4230 3544 4230 3485 
C 4230 2966 3712 2304 2867 2304 
L 1946 2304 
L 2342 3921 
z
M 3424 2275 
C 4122 2402 4755 2886 4755 3473 
C 4755 3970 4314 4352 3590 4352 
L 1536 4352 
C 1414 4352 1357 4352 1357 4226 
C 1357 4160 1414 4160 1510 4160 
C 1901 4160 1901 4112 1901 4044 
C 1901 4032 1901 3993 1875 3897 
L 1011 472 
C 954 249 941 185 493 185 
C 371 185 307 185 307 70 
C 307 0 346 0 474 0 
L 2669 0 
C 3648 0 4403 739 4403 1383 
C 4403 1906 3942 2224 3424 2275 
z
M 2515 185 
L 1651 185 
C 1562 185 1549 185 1510 192 
C 1440 198 1434 211 1434 261 
C 1434 305 1446 343 1459 399 
L 1907 2176 
L 3110 2176 
C 3866 2176 3866 1483 3866 1433 
C 3866 828 3309 185 2515 185 
z
" transform="scale(0.015625)"/>
      </defs>
      <use xlink:href="#CMMI12-42" transform="scale(0.996264)"/>
      <use xlink:href="#CMR17-31" transform="translate(74.10802 -14.943915) scale(0.697382)"/>
     </g>
    </g>
    <g id="line2d_31">
     <path d="M 51.711414 277.991572 
L 73.711414 277.991572 
L 95.711414 277.991572 
" style="fill: none; stroke: #75b4d8; stroke-width: 1.5; stroke-linecap: square"/>
    </g>
    <g id="text_15">
     <!-- $B_{2}$ -->
     <g style="fill: #ffffff" transform="translate(113.311414 285.691572) scale(0.22 -0.22)">
      <use xlink:href="#CMMI12-42" transform="scale(0.996264)"/>
      <use xlink:href="#CMR17-32" transform="translate(74.10802 -14.943915) scale(0.697382)"/>
     </g>
    </g>
    <g id="line2d_32">
     <path d="M 51.711414 308.65476 
L 73.711414 308.65476 
L 95.711414 308.65476 
" style="fill: none; stroke: #3b8bc2; stroke-width: 1.5; stroke-linecap: square"/>
    </g>
    <g id="text_16">
     <!-- $B_{3}$ -->
     <g style="fill: #ffffff" transform="translate(113.311414 316.35476) scale(0.22 -0.22)">
      <use xlink:href="#CMMI12-42" transform="scale(0.996264)"/>
      <use xlink:href="#CMR17-33" transform="translate(74.10802 -14.943915) scale(0.697382)"/>
     </g>
    </g>
    <g id="line2d_33">
     <path d="M 51.711414 339.317948 
L 73.711414 339.317948 
L 95.711414 339.317948 
" style="fill: none; stroke: #125da6; stroke-width: 1.5; stroke-linecap: square"/>
    </g>
    <g id="text_17">
     <!-- $B_{4}$ -->
     <g style="fill: #ffffff" transform="translate(113.311414 347.017948) scale(0.22 -0.22)">
      <use xlink:href="#CMMI12-42" transform="scale(0.996264)"/>
      <use xlink:href="#CMR17-34" transform="translate(74.10802 -14.943915) scale(0.697382)"/>
     </g>
    </g>
    <g id="line2d_34">
     <path d="M 51.711414 369.981135 
L 73.711414 369.981135 
L 95.711414 369.981135 
" style="fill: none; stroke: #08306b; stroke-width: 1.5; stroke-linecap: square"/>
    </g>
    <g id="text_18">
     <!-- $B_{5}$ -->
     <g style="fill: #ffffff" transform="translate(113.311414 377.681135) scale(0.22 -0.22)">
      <use xlink:href="#CMMI12-42" transform="scale(0.996264)"/>
      <use xlink:href="#CMR17-35" transform="translate(74.10802 -14.943915) scale(0.697382)"/>
     </g>
    </g>
   </g>
  </g>
 </g>
 <defs>
  <clipPath id="pbb2f70c16e">
   <rect x="31.911414" y="29.804405" width="673.688586" height="371.939918"/>
  </clipPath>
 </defs>
</svg>
