<?xml version="1.0" encoding="utf-8" standalone="no"?>
<!DOCTYPE svg PUBLIC "-//W3C//DTD SVG 1.1//EN"
  "http://www.w3.org/Graphics/SVG/1.1/DTD/svg11.dtd">
<svg xmlns:xlink="http://www.w3.org/1999/xlink" width="722.272303pt" height="424.8pt" viewBox="0 0 722.272303 424.8" xmlns="http://www.w3.org/2000/svg" version="1.1">
 <metadata>
  <rdf:RDF xmlns:dc="http://purl.org/dc/elements/1.1/" xmlns:cc="http://creativecommons.org/ns#" xmlns:rdf="http://www.w3.org/1999/02/22-rdf-syntax-ns#">
   <cc:Work>
    <dc:type rdf:resource="http://purl.org/dc/dcmitype/StillImage"/>
    <dc:date>2025-01-15T14:51:04.979719</dc:date>
    <dc:format>image/svg+xml</dc:format>
    <dc:creator>
     <cc:Agent>
      <dc:title>Matplotlib v3.10.0, https://matplotlib.org/</dc:title>
     </cc:Agent>
    </dc:creator>
   </cc:Work>
  </rdf:RDF>
 </metadata>
 <defs>
  <style type="text/css">*{stroke-linejoin: round; stroke-linecap: butt}</style>
 </defs>
 <g id="figure_1">
  <g id="patch_1">
   <path d="M -0 424.8 
L 722.272303 424.8 
L 722.272303 0 
L -0 0 
z
" style="fill: #ffffff"/>
  </g>
  <g id="axes_1">
   <g id="patch_2">
    <path d="M 80.220004 391.116119 
L 715.072303 391.116119 
L 715.072303 29.804405 
L 80.220004 29.804405 
z
" style="fill: #ffffff"/>
   </g>
   <g id="matplotlib.axis_1">
    <g id="xtick_1">
     <g id="line2d_1">
      <path d="M 102.576892 391.116119 
L 102.576892 29.804405 
" clip-path="url(#p0d358e8ddf)" style="fill: none; stroke: #b0b0b0; stroke-width: 0.75; stroke-linecap: square"/>
     </g>
     <g id="line2d_2">
      <defs>
       <path id="m052f59403b" d="M 0 0 
L 0 3.5 
" style="stroke: #000000; stroke-width: 0.8"/>
      </defs>
      <g>
       <use xlink:href="#m052f59403b" x="102.576892" y="391.116119" style="stroke: #000000; stroke-width: 0.8"/>
      </g>
     </g>
     <g id="text_1">
      <!-- $\mathdefault{1980}$ -->
      <g transform="translate(82.473082 413.336812) scale(0.22 -0.22)">
       <defs>
        <path id="CMR17-31" d="M 1702 4058 
C 1702 4192 1696 4192 1606 4192 
C 1357 3916 979 3827 621 3827 
C 602 3827 570 3827 563 3808 
C 557 3795 557 3782 557 3648 
C 755 3648 1088 3686 1344 3839 
L 1344 461 
C 1344 236 1331 160 781 160 
L 589 160 
L 589 0 
C 896 0 1216 0 1523 0 
C 1830 0 2150 0 2458 0 
L 2458 160 
L 2266 160 
C 1715 160 1702 230 1702 458 
L 1702 4058 
z
" transform="scale(0.015625)"/>
        <path id="CMR17-39" d="M 2253 1864 
C 2253 464 1670 31 1190 31 
C 1043 31 685 31 538 294 
C 704 268 826 357 826 518 
C 826 692 685 749 595 749 
C 538 749 365 723 365 506 
C 365 71 742 -128 1203 -128 
C 1939 -128 2688 674 2688 2073 
C 2688 3817 1971 4179 1485 4179 
C 851 4179 243 3628 243 2778 
C 243 1991 762 1408 1414 1408 
C 1952 1408 2189 1903 2253 2112 
L 2253 1864 
z
M 1427 1510 
C 1254 1510 1011 1542 813 1922 
C 678 2169 678 2461 678 2771 
C 678 3146 678 3405 858 3684 
C 947 3817 1114 4032 1485 4032 
C 2240 4032 2240 2885 2240 2632 
C 2240 2182 2035 1510 1427 1510 
z
" transform="scale(0.015625)"/>
        <path id="CMR17-38" d="M 1741 2264 
C 2144 2467 2554 2773 2554 3263 
C 2554 3841 1990 4179 1472 4179 
C 890 4179 378 3759 378 3180 
C 378 3021 416 2747 666 2505 
C 730 2442 998 2251 1171 2130 
C 883 1983 211 1634 211 934 
C 211 279 838 -128 1459 -128 
C 2144 -128 2720 362 2720 1010 
C 2720 1590 2330 1857 2074 2029 
L 1741 2264 
z
M 902 2822 
C 851 2854 595 3051 595 3351 
C 595 3739 998 4032 1459 4032 
C 1965 4032 2336 3676 2336 3262 
C 2336 2669 1670 2331 1638 2331 
C 1632 2331 1626 2331 1574 2370 
L 902 2822 
z
M 2080 1519 
C 2176 1449 2483 1240 2483 851 
C 2483 381 2010 25 1472 25 
C 890 25 448 438 448 940 
C 448 1443 838 1862 1280 2060 
L 2080 1519 
z
" transform="scale(0.015625)"/>
        <path id="CMR17-30" d="M 2688 2025 
C 2688 2416 2682 3080 2413 3591 
C 2176 4039 1798 4198 1466 4198 
C 1158 4198 768 4058 525 3597 
C 269 3118 243 2524 243 2025 
C 243 1661 250 1106 448 619 
C 723 -39 1216 -128 1466 -128 
C 1760 -128 2208 -7 2470 600 
C 2662 1042 2688 1559 2688 2025 
z
M 1466 -26 
C 1056 -26 813 325 723 812 
C 653 1188 653 1738 653 2096 
C 653 2588 653 2997 736 3387 
C 858 3929 1216 4096 1466 4096 
C 1728 4096 2067 3923 2189 3400 
C 2272 3036 2278 2607 2278 2096 
C 2278 1680 2278 1169 2202 792 
C 2067 95 1690 -26 1466 -26 
z
" transform="scale(0.015625)"/>
       </defs>
       <use xlink:href="#CMR17-31" transform="scale(0.996264)"/>
       <use xlink:href="#CMR17-39" transform="translate(45.690477 0) scale(0.996264)"/>
       <use xlink:href="#CMR17-38" transform="translate(91.380954 0) scale(0.996264)"/>
       <use xlink:href="#CMR17-30" transform="translate(137.071431 0) scale(0.996264)"/>
      </g>
     </g>
    </g>
    <g id="xtick_2">
     <g id="line2d_3">
      <path d="M 168.187741 391.116119 
L 168.187741 29.804405 
" clip-path="url(#p0d358e8ddf)" style="fill: none; stroke: #b0b0b0; stroke-width: 0.75; stroke-linecap: square"/>
     </g>
     <g id="line2d_4">
      <g>
       <use xlink:href="#m052f59403b" x="168.187741" y="391.116119" style="stroke: #000000; stroke-width: 0.8"/>
      </g>
     </g>
     <g id="text_2">
      <!-- $\mathdefault{1985}$ -->
      <g transform="translate(148.083931 413.336812) scale(0.22 -0.22)">
       <defs>
        <path id="CMR17-35" d="M 730 3692 
C 794 3666 1056 3584 1325 3584 
C 1920 3584 2246 3911 2432 4100 
C 2432 4157 2432 4192 2394 4192 
C 2387 4192 2374 4192 2323 4163 
C 2099 4058 1837 3973 1517 3973 
C 1325 3973 1037 3999 723 4139 
C 653 4171 640 4171 634 4171 
C 602 4171 595 4164 595 4037 
L 595 2203 
C 595 2089 595 2057 659 2057 
C 691 2057 704 2070 736 2114 
C 941 2401 1222 2522 1542 2522 
C 1766 2522 2246 2382 2246 1289 
C 2246 1085 2246 715 2054 421 
C 1894 159 1645 25 1370 25 
C 947 25 518 320 403 814 
C 429 807 480 795 506 795 
C 589 795 749 840 749 1038 
C 749 1210 627 1280 506 1280 
C 358 1280 262 1190 262 1011 
C 262 454 704 -128 1382 -128 
C 2042 -128 2669 440 2669 1264 
C 2669 2030 2170 2624 1549 2624 
C 1222 2624 947 2503 730 2274 
L 730 3692 
z
" transform="scale(0.015625)"/>
       </defs>
       <use xlink:href="#CMR17-31" transform="scale(0.996264)"/>
       <use xlink:href="#CMR17-39" transform="translate(45.690477 0) scale(0.996264)"/>
       <use xlink:href="#CMR17-38" transform="translate(91.380954 0) scale(0.996264)"/>
       <use xlink:href="#CMR17-35" transform="translate(137.071431 0) scale(0.996264)"/>
      </g>
     </g>
    </g>
    <g id="xtick_3">
     <g id="line2d_5">
      <path d="M 233.762678 391.116119 
L 233.762678 29.804405 
" clip-path="url(#p0d358e8ddf)" style="fill: none; stroke: #b0b0b0; stroke-width: 0.75; stroke-linecap: square"/>
     </g>
     <g id="line2d_6">
      <g>
       <use xlink:href="#m052f59403b" x="233.762678" y="391.116119" style="stroke: #000000; stroke-width: 0.8"/>
      </g>
     </g>
     <g id="text_3">
      <!-- $\mathdefault{1990}$ -->
      <g transform="translate(213.658868 413.336812) scale(0.22 -0.22)">
       <use xlink:href="#CMR17-31" transform="scale(0.996264)"/>
       <use xlink:href="#CMR17-39" transform="translate(45.690477 0) scale(0.996264)"/>
       <use xlink:href="#CMR17-39" transform="translate(91.380954 0) scale(0.996264)"/>
       <use xlink:href="#CMR17-30" transform="translate(137.071431 0) scale(0.996264)"/>
      </g>
     </g>
    </g>
    <g id="xtick_4">
     <g id="line2d_7">
      <path d="M 299.337615 391.116119 
L 299.337615 29.804405 
" clip-path="url(#p0d358e8ddf)" style="fill: none; stroke: #b0b0b0; stroke-width: 0.75; stroke-linecap: square"/>
     </g>
     <g id="line2d_8">
      <g>
       <use xlink:href="#m052f59403b" x="299.337615" y="391.116119" style="stroke: #000000; stroke-width: 0.8"/>
      </g>
     </g>
     <g id="text_4">
      <!-- $\mathdefault{1995}$ -->
      <g transform="translate(279.233805 413.336812) scale(0.22 -0.22)">
       <use xlink:href="#CMR17-31" transform="scale(0.996264)"/>
       <use xlink:href="#CMR17-39" transform="translate(45.690477 0) scale(0.996264)"/>
       <use xlink:href="#CMR17-39" transform="translate(91.380954 0) scale(0.996264)"/>
       <use xlink:href="#CMR17-35" transform="translate(137.071431 0) scale(0.996264)"/>
      </g>
     </g>
    </g>
    <g id="xtick_5">
     <g id="line2d_9">
      <path d="M 364.912552 391.116119 
L 364.912552 29.804405 
" clip-path="url(#p0d358e8ddf)" style="fill: none; stroke: #b0b0b0; stroke-width: 0.75; stroke-linecap: square"/>
     </g>
     <g id="line2d_10">
      <g>
       <use xlink:href="#m052f59403b" x="364.912552" y="391.116119" style="stroke: #000000; stroke-width: 0.8"/>
      </g>
     </g>
     <g id="text_5">
      <!-- $\mathdefault{2000}$ -->
      <g transform="translate(344.808742 413.336812) scale(0.22 -0.22)">
       <defs>
        <path id="CMR17-32" d="M 2669 989 
L 2554 989 
C 2490 536 2438 459 2413 420 
C 2381 369 1920 369 1830 369 
L 602 369 
C 832 619 1280 1072 1824 1597 
C 2214 1967 2669 2402 2669 3035 
C 2669 3790 2067 4224 1395 4224 
C 691 4224 262 3604 262 3030 
C 262 2780 448 2748 525 2748 
C 589 2748 781 2787 781 3010 
C 781 3207 614 3264 525 3264 
C 486 3264 448 3258 422 3245 
C 544 3790 915 4058 1306 4058 
C 1862 4058 2227 3617 2227 3035 
C 2227 2479 1901 2000 1536 1584 
L 262 146 
L 262 0 
L 2515 0 
L 2669 989 
z
" transform="scale(0.015625)"/>
       </defs>
       <use xlink:href="#CMR17-32" transform="scale(0.996264)"/>
       <use xlink:href="#CMR17-30" transform="translate(45.690477 0) scale(0.996264)"/>
       <use xlink:href="#CMR17-30" transform="translate(91.380954 0) scale(0.996264)"/>
       <use xlink:href="#CMR17-30" transform="translate(137.071431 0) scale(0.996264)"/>
      </g>
     </g>
    </g>
    <g id="xtick_6">
     <g id="line2d_11">
      <path d="M 430.523401 391.116119 
L 430.523401 29.804405 
" clip-path="url(#p0d358e8ddf)" style="fill: none; stroke: #b0b0b0; stroke-width: 0.75; stroke-linecap: square"/>
     </g>
     <g id="line2d_12">
      <g>
       <use xlink:href="#m052f59403b" x="430.523401" y="391.116119" style="stroke: #000000; stroke-width: 0.8"/>
      </g>
     </g>
     <g id="text_6">
      <!-- $\mathdefault{2005}$ -->
      <g transform="translate(410.419592 413.336812) scale(0.22 -0.22)">
       <use xlink:href="#CMR17-32" transform="scale(0.996264)"/>
       <use xlink:href="#CMR17-30" transform="translate(45.690477 0) scale(0.996264)"/>
       <use xlink:href="#CMR17-30" transform="translate(91.380954 0) scale(0.996264)"/>
       <use xlink:href="#CMR17-35" transform="translate(137.071431 0) scale(0.996264)"/>
      </g>
     </g>
    </g>
    <g id="xtick_7">
     <g id="line2d_13">
      <path d="M 496.098339 391.116119 
L 496.098339 29.804405 
" clip-path="url(#p0d358e8ddf)" style="fill: none; stroke: #b0b0b0; stroke-width: 0.75; stroke-linecap: square"/>
     </g>
     <g id="line2d_14">
      <g>
       <use xlink:href="#m052f59403b" x="496.098339" y="391.116119" style="stroke: #000000; stroke-width: 0.8"/>
      </g>
     </g>
     <g id="text_7">
      <!-- $\mathdefault{2010}$ -->
      <g transform="translate(475.994529 413.336812) scale(0.22 -0.22)">
       <use xlink:href="#CMR17-32" transform="scale(0.996264)"/>
       <use xlink:href="#CMR17-30" transform="translate(45.690477 0) scale(0.996264)"/>
       <use xlink:href="#CMR17-31" transform="translate(91.380954 0) scale(0.996264)"/>
       <use xlink:href="#CMR17-30" transform="translate(137.071431 0) scale(0.996264)"/>
      </g>
     </g>
    </g>
    <g id="xtick_8">
     <g id="line2d_15">
      <path d="M 561.673276 391.116119 
L 561.673276 29.804405 
" clip-path="url(#p0d358e8ddf)" style="fill: none; stroke: #b0b0b0; stroke-width: 0.75; stroke-linecap: square"/>
     </g>
     <g id="line2d_16">
      <g>
       <use xlink:href="#m052f59403b" x="561.673276" y="391.116119" style="stroke: #000000; stroke-width: 0.8"/>
      </g>
     </g>
     <g id="text_8">
      <!-- $\mathdefault{2015}$ -->
      <g transform="translate(541.569466 413.336812) scale(0.22 -0.22)">
       <use xlink:href="#CMR17-32" transform="scale(0.996264)"/>
       <use xlink:href="#CMR17-30" transform="translate(45.690477 0) scale(0.996264)"/>
       <use xlink:href="#CMR17-31" transform="translate(91.380954 0) scale(0.996264)"/>
       <use xlink:href="#CMR17-35" transform="translate(137.071431 0) scale(0.996264)"/>
      </g>
     </g>
    </g>
    <g id="xtick_9">
     <g id="line2d_17">
      <path d="M 627.248213 391.116119 
L 627.248213 29.804405 
" clip-path="url(#p0d358e8ddf)" style="fill: none; stroke: #b0b0b0; stroke-width: 0.75; stroke-linecap: square"/>
     </g>
     <g id="line2d_18">
      <g>
       <use xlink:href="#m052f59403b" x="627.248213" y="391.116119" style="stroke: #000000; stroke-width: 0.8"/>
      </g>
     </g>
     <g id="text_9">
      <!-- $\mathdefault{2020}$ -->
      <g transform="translate(607.144403 413.336812) scale(0.22 -0.22)">
       <use xlink:href="#CMR17-32" transform="scale(0.996264)"/>
       <use xlink:href="#CMR17-30" transform="translate(45.690477 0) scale(0.996264)"/>
       <use xlink:href="#CMR17-32" transform="translate(91.380954 0) scale(0.996264)"/>
       <use xlink:href="#CMR17-30" transform="translate(137.071431 0) scale(0.996264)"/>
      </g>
     </g>
    </g>
    <g id="xtick_10">
     <g id="line2d_19">
      <path d="M 692.859062 391.116119 
L 692.859062 29.804405 
" clip-path="url(#p0d358e8ddf)" style="fill: none; stroke: #b0b0b0; stroke-width: 0.75; stroke-linecap: square"/>
     </g>
     <g id="line2d_20">
      <g>
       <use xlink:href="#m052f59403b" x="692.859062" y="391.116119" style="stroke: #000000; stroke-width: 0.8"/>
      </g>
     </g>
     <g id="text_10">
      <!-- $\mathdefault{2025}$ -->
      <g transform="translate(672.755252 413.336812) scale(0.22 -0.22)">
       <use xlink:href="#CMR17-32" transform="scale(0.996264)"/>
       <use xlink:href="#CMR17-30" transform="translate(45.690477 0) scale(0.996264)"/>
       <use xlink:href="#CMR17-32" transform="translate(91.380954 0) scale(0.996264)"/>
       <use xlink:href="#CMR17-35" transform="translate(137.071431 0) scale(0.996264)"/>
      </g>
     </g>
    </g>
   </g>
   <g id="matplotlib.axis_2">
    <g id="ytick_1">
     <g id="line2d_21">
      <path d="M 80.220004 382.9983 
L 715.072303 382.9983 
" clip-path="url(#p0d358e8ddf)" style="fill: none; stroke: #b0b0b0; stroke-width: 0.75; stroke-linecap: square"/>
     </g>
     <g id="line2d_22">
      <defs>
       <path id="m4fba9e1009" d="M 0 0 
L -3.5 0 
" style="stroke: #000000; stroke-width: 0.8"/>
      </defs>
      <g>
       <use xlink:href="#m4fba9e1009" x="80.220004" y="382.9983" style="stroke: #000000; stroke-width: 0.8"/>
      </g>
     </g>
     <g id="text_11">
      <!-- $\mathdefault{−0.20}$ -->
      <g transform="translate(20.055677 390.608647) scale(0.22 -0.22)">
       <defs>
        <path id="CMSY10-0" d="M 4218 1472 
C 4326 1472 4442 1472 4442 1600 
C 4442 1728 4326 1728 4218 1728 
L 755 1728 
C 646 1728 531 1728 531 1600 
C 531 1472 646 1472 755 1472 
L 4218 1472 
z
" transform="scale(0.015625)"/>
        <path id="CMMI12-3a" d="M 1178 307 
C 1178 492 1024 619 870 619 
C 685 619 557 466 557 313 
C 557 128 710 0 864 0 
C 1050 0 1178 153 1178 307 
z
" transform="scale(0.015625)"/>
       </defs>
       <use xlink:href="#CMSY10-0" transform="scale(0.996264)"/>
       <use xlink:href="#CMR17-30" transform="translate(77.487468 0) scale(0.996264)"/>
       <use xlink:href="#CMMI12-3a" transform="translate(123.177945 0) scale(0.996264)"/>
       <use xlink:href="#CMR17-32" transform="translate(150.275122 0) scale(0.996264)"/>
       <use xlink:href="#CMR17-30" transform="translate(195.965599 0) scale(0.996264)"/>
      </g>
     </g>
    </g>
    <g id="ytick_2">
     <g id="line2d_23">
      <path d="M 80.220004 333.556102 
L 715.072303 333.556102 
" clip-path="url(#p0d358e8ddf)" style="fill: none; stroke: #b0b0b0; stroke-width: 0.75; stroke-linecap: square"/>
     </g>
     <g id="line2d_24">
      <g>
       <use xlink:href="#m4fba9e1009" x="80.220004" y="333.556102" style="stroke: #000000; stroke-width: 0.8"/>
      </g>
     </g>
     <g id="text_12">
      <!-- $\mathdefault{−0.15}$ -->
      <g transform="translate(20.055677 341.166449) scale(0.22 -0.22)">
       <use xlink:href="#CMSY10-0" transform="scale(0.996264)"/>
       <use xlink:href="#CMR17-30" transform="translate(77.487468 0) scale(0.996264)"/>
       <use xlink:href="#CMMI12-3a" transform="translate(123.177945 0) scale(0.996264)"/>
       <use xlink:href="#CMR17-31" transform="translate(150.275122 0) scale(0.996264)"/>
       <use xlink:href="#CMR17-35" transform="translate(195.965599 0) scale(0.996264)"/>
      </g>
     </g>
    </g>
    <g id="ytick_3">
     <g id="line2d_25">
      <path d="M 80.220004 284.113903 
L 715.072303 284.113903 
" clip-path="url(#p0d358e8ddf)" style="fill: none; stroke: #b0b0b0; stroke-width: 0.75; stroke-linecap: square"/>
     </g>
     <g id="line2d_26">
      <g>
       <use xlink:href="#m4fba9e1009" x="80.220004" y="284.113903" style="stroke: #000000; stroke-width: 0.8"/>
      </g>
     </g>
     <g id="text_13">
      <!-- $\mathdefault{−0.10}$ -->
      <g transform="translate(20.055677 291.72425) scale(0.22 -0.22)">
       <use xlink:href="#CMSY10-0" transform="scale(0.996264)"/>
       <use xlink:href="#CMR17-30" transform="translate(77.487468 0) scale(0.996264)"/>
       <use xlink:href="#CMMI12-3a" transform="translate(123.177945 0) scale(0.996264)"/>
       <use xlink:href="#CMR17-31" transform="translate(150.275122 0) scale(0.996264)"/>
       <use xlink:href="#CMR17-30" transform="translate(195.965599 0) scale(0.996264)"/>
      </g>
     </g>
    </g>
    <g id="ytick_4">
     <g id="line2d_27">
      <path d="M 80.220004 234.671705 
L 715.072303 234.671705 
" clip-path="url(#p0d358e8ddf)" style="fill: none; stroke: #b0b0b0; stroke-width: 0.75; stroke-linecap: square"/>
     </g>
     <g id="line2d_28">
      <g>
       <use xlink:href="#m4fba9e1009" x="80.220004" y="234.671705" style="stroke: #000000; stroke-width: 0.8"/>
      </g>
     </g>
     <g id="text_14">
      <!-- $\mathdefault{−0.05}$ -->
      <g transform="translate(20.055677 242.282051) scale(0.22 -0.22)">
       <use xlink:href="#CMSY10-0" transform="scale(0.996264)"/>
       <use xlink:href="#CMR17-30" transform="translate(77.487468 0) scale(0.996264)"/>
       <use xlink:href="#CMMI12-3a" transform="translate(123.177945 0) scale(0.996264)"/>
       <use xlink:href="#CMR17-30" transform="translate(150.275122 0) scale(0.996264)"/>
       <use xlink:href="#CMR17-35" transform="translate(195.965599 0) scale(0.996264)"/>
      </g>
     </g>
    </g>
    <g id="ytick_5">
     <g id="line2d_29">
      <path d="M 80.220004 185.229506 
L 715.072303 185.229506 
" clip-path="url(#p0d358e8ddf)" style="fill: none; stroke: #b0b0b0; stroke-width: 0.75; stroke-linecap: square"/>
     </g>
     <g id="line2d_30">
      <g>
       <use xlink:href="#m4fba9e1009" x="80.220004" y="185.229506" style="stroke: #000000; stroke-width: 0.8"/>
      </g>
     </g>
     <g id="text_15">
      <!-- $\mathdefault{0.00}$ -->
      <g transform="translate(37.10291 192.839853) scale(0.22 -0.22)">
       <use xlink:href="#CMR17-30" transform="scale(0.996264)"/>
       <use xlink:href="#CMMI12-3a" transform="translate(45.690477 0) scale(0.996264)"/>
       <use xlink:href="#CMR17-30" transform="translate(72.787654 0) scale(0.996264)"/>
       <use xlink:href="#CMR17-30" transform="translate(118.478131 0) scale(0.996264)"/>
      </g>
     </g>
    </g>
    <g id="ytick_6">
     <g id="line2d_31">
      <path d="M 80.220004 135.787308 
L 715.072303 135.787308 
" clip-path="url(#p0d358e8ddf)" style="fill: none; stroke: #b0b0b0; stroke-width: 0.75; stroke-linecap: square"/>
     </g>
     <g id="line2d_32">
      <g>
       <use xlink:href="#m4fba9e1009" x="80.220004" y="135.787308" style="stroke: #000000; stroke-width: 0.8"/>
      </g>
     </g>
     <g id="text_16">
      <!-- $\mathdefault{0.05}$ -->
      <g transform="translate(37.10291 143.397654) scale(0.22 -0.22)">
       <use xlink:href="#CMR17-30" transform="scale(0.996264)"/>
       <use xlink:href="#CMMI12-3a" transform="translate(45.690477 0) scale(0.996264)"/>
       <use xlink:href="#CMR17-30" transform="translate(72.787654 0) scale(0.996264)"/>
       <use xlink:href="#CMR17-35" transform="translate(118.478131 0) scale(0.996264)"/>
      </g>
     </g>
    </g>
    <g id="ytick_7">
     <g id="line2d_33">
      <path d="M 80.220004 86.345109 
L 715.072303 86.345109 
" clip-path="url(#p0d358e8ddf)" style="fill: none; stroke: #b0b0b0; stroke-width: 0.75; stroke-linecap: square"/>
     </g>
     <g id="line2d_34">
      <g>
       <use xlink:href="#m4fba9e1009" x="80.220004" y="86.345109" style="stroke: #000000; stroke-width: 0.8"/>
      </g>
     </g>
     <g id="text_17">
      <!-- $\mathdefault{0.10}$ -->
      <g transform="translate(37.10291 93.955456) scale(0.22 -0.22)">
       <use xlink:href="#CMR17-30" transform="scale(0.996264)"/>
       <use xlink:href="#CMMI12-3a" transform="translate(45.690477 0) scale(0.996264)"/>
       <use xlink:href="#CMR17-31" transform="translate(72.787654 0) scale(0.996264)"/>
       <use xlink:href="#CMR17-30" transform="translate(118.478131 0) scale(0.996264)"/>
      </g>
     </g>
    </g>
    <g id="ytick_8">
     <g id="line2d_35">
      <path d="M 80.220004 36.902911 
L 715.072303 36.902911 
" clip-path="url(#p0d358e8ddf)" style="fill: none; stroke: #b0b0b0; stroke-width: 0.75; stroke-linecap: square"/>
     </g>
     <g id="line2d_36">
      <g>
       <use xlink:href="#m4fba9e1009" x="80.220004" y="36.902911" style="stroke: #000000; stroke-width: 0.8"/>
      </g>
     </g>
     <g id="text_18">
      <!-- $\mathdefault{0.15}$ -->
      <g transform="translate(37.10291 44.513257) scale(0.22 -0.22)">
       <use xlink:href="#CMR17-30" transform="scale(0.996264)"/>
       <use xlink:href="#CMMI12-3a" transform="translate(45.690477 0) scale(0.996264)"/>
       <use xlink:href="#CMR17-31" transform="translate(72.787654 0) scale(0.996264)"/>
       <use xlink:href="#CMR17-35" transform="translate(118.478131 0) scale(0.996264)"/>
      </g>
     </g>
    </g>
    <g id="text_19">
     <!-- Value -->
     <g transform="translate(14.118498 222.636844) rotate(-90) scale(0.1 -0.1)">
      <defs>
       <path id="CMR17-56" d="M 3776 3745 
C 3834 3886 3936 4160 4365 4160 
L 4365 4332 
C 4218 4319 4051 4319 3891 4319 
C 3738 4319 3475 4319 3328 4332 
L 3328 4160 
C 3648 4160 3661 3936 3661 3898 
C 3661 3827 3642 3783 3622 3732 
L 2362 446 
L 1043 3886 
C 1024 3931 1011 3963 1011 3994 
C 1011 4160 1267 4160 1402 4160 
L 1402 4319 
C 1197 4319 896 4319 685 4319 
C 518 4319 218 4319 64 4332 
L 64 4160 
C 435 4160 506 4135 582 3931 
L 2106 -26 
C 2138 -115 2144 -128 2214 -128 
C 2285 -128 2291 -115 2323 -26 
L 3776 3745 
z
" transform="scale(0.015625)"/>
       <path id="CMR17-61" d="M 2304 1653 
C 2304 2072 2304 2294 2035 2543 
C 1798 2752 1523 2816 1306 2816 
C 800 2816 435 2407 435 1971 
C 435 1728 627 1728 666 1728 
C 749 1728 896 1778 896 1954 
C 896 2112 774 2181 666 2181 
C 640 2181 608 2174 589 2168 
C 723 2592 1069 2714 1293 2714 
C 1613 2714 1965 2429 1965 1885 
L 1965 1600 
C 1587 1600 1133 1549 774 1357 
C 371 1133 256 813 256 570 
C 256 77 832 -64 1171 -64 
C 1523 -64 1850 139 1990 511 
C 2003 233 2182 -18 2464 -18 
C 2598 -18 2938 70 2938 567 
L 2938 920 
L 2822 920 
L 2822 562 
C 2822 178 2650 128 2566 128 
C 2304 128 2304 458 2304 738 
L 2304 1653 
z
M 1965 870 
C 1965 317 1568 38 1216 38 
C 896 38 646 275 646 570 
C 646 761 730 1100 1101 1305 
C 1408 1478 1760 1504 1965 1504 
L 1965 870 
z
" transform="scale(0.015625)"/>
       <path id="CMR17-6c" d="M 979 4396 
L 218 4326 
L 218 4160 
C 595 4160 653 4122 653 3817 
L 653 426 
C 653 184 627 153 218 153 
L 218 -13 
C 371 0 653 0 813 0 
C 979 0 1261 0 1414 -13 
L 1414 153 
C 1005 153 979 178 979 426 
L 979 4396 
z
" transform="scale(0.015625)"/>
       <path id="CMR17-75" d="M 1882 2693 
L 1882 2528 
C 2259 2528 2317 2489 2317 2186 
L 2317 1032 
C 2317 500 2029 38 1555 38 
C 1030 38 986 348 986 678 
L 986 2763 
L 211 2693 
L 211 2528 
C 467 2528 640 2528 646 2274 
L 646 1058 
C 646 633 646 361 813 183 
C 896 101 1056 -64 1517 -64 
C 2061 -64 2272 377 2323 506 
L 2330 506 
L 2330 -63 
L 3091 -63 
L 3091 128 
C 2714 128 2656 166 2656 473 
L 2656 2763 
L 1882 2693 
z
" transform="scale(0.015625)"/>
       <path id="CMR17-65" d="M 2438 1472 
C 2464 1498 2464 1511 2464 1576 
C 2464 2238 2118 2816 1389 2816 
C 710 2816 173 2169 173 1383 
C 173 551 781 -64 1459 -64 
C 2176 -64 2458 607 2458 740 
C 2458 784 2419 784 2406 784 
C 2362 784 2355 771 2330 696 
C 2189 265 1837 51 1504 51 
C 1229 51 954 203 781 480 
C 582 803 582 1176 582 1472 
L 2438 1472 
z
M 589 1568 
C 634 2505 1126 2714 1382 2714 
C 1818 2714 2112 2297 2118 1568 
L 589 1568 
z
" transform="scale(0.015625)"/>
      </defs>
      <use xlink:href="#CMR17-56" transform="scale(0.996264)"/>
      <use xlink:href="#CMR17-61" transform="translate(61.265174 0) scale(0.996264)"/>
      <use xlink:href="#CMR17-6c" transform="translate(106.955652 0) scale(0.996264)"/>
      <use xlink:href="#CMR17-75" transform="translate(131.82671 0) scale(0.996264)"/>
      <use xlink:href="#CMR17-65" transform="translate(182.72208 0) scale(0.996264)"/>
     </g>
    </g>
   </g>
   <g id="line2d_37">
    <path d="M 109.076926 374.692859 
L 112.380812 46.227665 
L 115.684697 130.031692 
L 118.916758 152.663665 
L 122.184732 151.497468 
L 125.488617 48.73089 
L 128.792502 272.885055 
L 132.024563 127.412884 
L 135.292537 149.803995 
L 138.596422 345.848636 
L 141.900307 207.195891 
L 145.132368 173.010586 
L 148.400342 158.124785 
L 151.704227 153.71386 
L 155.008112 153.103609 
L 158.276085 126.622057 
L 161.544059 72.710829 
L 164.847944 244.931693 
L 168.151829 250.411543 
L 171.38389 162.144544 
L 174.651864 279.93157 
L 177.955749 179.530699 
L 181.259634 278.295755 
L 184.491695 287.523917 
L 187.759669 172.145739 
L 191.063554 189.773395 
L 194.367439 201.369372 
L 197.599501 167.524649 
L 200.867474 112.968319 
L 204.171359 90.549433 
L 207.475244 226.390139 
L 210.743217 162.035056 
L 214.011191 137.662762 
L 217.315076 142.737097 
L 220.618961 135.626414 
L 223.851023 132.632577 
L 227.118996 249.327308 
L 230.422881 150.68946 
L 233.726766 199.11137 
L 236.958828 127.751177 
L 240.226801 200.660642 
L 243.530686 157.942241 
L 246.834571 224.993481 
L 250.066633 179.972077 
L 253.334606 171.137115 
L 256.638491 234.703055 
L 259.942376 235.546069 
L 263.21035 120.57172 
L 266.478323 214.491726 
L 269.782208 226.217255 
L 273.086093 147.140217 
L 276.318155 234.51257 
L 279.586128 200.036692 
L 282.890013 207.172322 
L 289.42596 113.055988 
L 292.693933 127.743273 
L 295.997818 145.806222 
L 299.301703 153.534955 
L 302.533765 189.16046 
L 305.801738 250.909552 
L 309.105623 187.781064 
L 312.409508 233.073971 
L 315.677482 125.78152 
L 318.945455 164.06484 
L 322.24934 183.83096 
L 325.553225 196.390348 
L 328.785287 148.934345 
L 332.05326 213.874388 
L 335.357145 213.90728 
L 338.66103 198.980369 
L 341.893092 190.937899 
L 345.161065 202.634643 
L 348.46495 253.414835 
L 351.768836 166.887107 
L 355.000897 147.694465 
L 358.26887 148.661301 
L 361.572755 164.959858 
L 364.876641 138.859114 
L 368.144614 181.191299 
L 371.412587 176.665995 
L 374.716472 183.659975 
L 378.020357 222.593198 
L 381.252419 208.689551 
L 384.520392 165.035342 
L 387.824277 256.300521 
L 391.128163 168.06208 
L 394.360224 182.564442 
L 397.628197 239.10501 
L 400.932083 287.681269 
L 404.235968 181.713479 
L 407.468029 193.217992 
L 410.736003 218.507881 
L 414.039888 159.815643 
L 417.343773 170.173219 
L 420.611746 222.452266 
L 423.879719 126.19501 
L 427.183605 216.418118 
L 430.48749 172.216756 
L 433.719551 156.239597 
L 436.987525 218.45828 
L 440.29141 152.094983 
L 443.595295 160.777691 
L 446.827356 151.485515 
L 450.09533 164.968106 
L 453.399215 216.637519 
L 456.7031 177.235788 
L 459.935161 190.252876 
L 463.203135 157.932081 
L 466.50702 224.899915 
L 469.810905 222.774308 
L 473.078878 231.45003 
L 476.346852 124.473327 
L 479.650737 202.057532 
L 482.954622 273.345401 
L 486.186683 148.572928 
L 489.454657 121.950124 
L 492.758542 192.600088 
L 496.062427 146.112466 
L 499.294488 181.064338 
L 502.562462 231.778186 
L 505.866347 211.870653 
L 509.170232 129.33932 
L 515.670267 210.921123 
L 518.974152 246.764035 
L 522.278037 190.616106 
L 525.54601 165.159277 
L 528.813984 216.102265 
L 532.117869 197.726221 
L 535.421754 184.365014 
L 538.653816 185.593303 
L 541.921789 148.965357 
L 545.225674 183.472842 
L 548.529559 157.122335 
L 551.761621 192.96973 
L 555.029594 208.459668 
L 558.333479 195.06965 
L 561.637364 228.396412 
L 564.869426 222.044923 
L 568.137399 178.056882 
L 571.441284 214.264027 
L 574.745169 170.344678 
L 578.013143 230.347733 
L 581.281116 211.520353 
L 584.585001 184.416205 
L 587.888886 140.686757 
L 591.120948 196.065358 
L 594.388921 202.213431 
L 597.692806 192.162391 
L 600.996691 180.833633 
L 604.228753 169.159235 
L 607.496726 183.950265 
L 610.800611 169.600715 
L 614.104496 211.346859 
L 617.336558 211.236762 
L 620.604531 225.242206 
L 623.908416 213.940162 
L 627.212301 184.687432 
L 630.480275 290.565831 
L 633.748248 207.913064 
L 637.052133 201.103288 
L 640.356018 188.686739 
L 643.58808 146.899723 
L 646.856053 198.610037 
L 650.159938 190.536272 
L 653.463823 188.882297 
L 656.695885 124.677782 
L 659.963858 145.923541 
L 663.267743 86.719854 
L 666.571629 189.40446 
L 669.80369 219.380391 
L 673.071663 157.483364 
L 676.375548 101.410135 
L 679.679434 219.97523 
L 682.947407 165.048897 
L 686.21538 167.859153 
L 686.21538 167.859153 
" clip-path="url(#p0d358e8ddf)" style="fill: none; stroke: #08306b; stroke-width: 1.5; stroke-linecap: square"/>
   </g>
   <g id="line2d_38">
    <path d="M 109.076926 258.094418 
L 112.380812 153.221841 
L 115.684697 146.027079 
L 118.916758 192.260392 
L 122.184732 139.825137 
L 125.488617 181.291637 
L 128.792502 201.97532 
L 132.024563 153.177017 
L 135.292537 175.820731 
L 138.596422 219.359185 
L 141.900307 196.297505 
L 145.132368 184.835649 
L 148.400342 184.481038 
L 151.704227 194.474594 
L 155.008112 188.973317 
L 158.276085 184.500066 
L 161.544059 188.843099 
L 164.847944 169.063662 
L 168.151829 223.716755 
L 171.38389 187.588936 
L 174.651864 200.147985 
L 177.955749 195.786477 
L 181.259634 170.724737 
L 184.491695 152.463806 
L 187.759669 195.869351 
L 191.063554 212.181764 
L 194.367439 176.430876 
L 197.599501 182.286501 
L 204.171359 195.915156 
L 207.475244 189.316294 
L 210.743217 191.567685 
L 214.011191 172.798626 
L 217.315076 168.578579 
L 220.618961 161.002414 
L 223.851023 160.446778 
L 227.118996 187.993601 
L 230.422881 170.055875 
L 233.726766 179.537596 
L 236.958828 180.276629 
L 240.226801 185.805716 
L 243.530686 203.259913 
L 246.834571 182.413719 
L 250.066633 190.639993 
L 253.334606 199.527247 
L 256.638491 190.968555 
L 259.942376 204.586557 
L 263.21035 188.089063 
L 266.478323 211.451235 
L 269.782208 203.084225 
L 273.086093 171.788586 
L 276.318155 190.089658 
L 279.586128 173.078743 
L 282.890013 179.915515 
L 286.193898 194.742317 
L 289.42596 192.86388 
L 292.693933 185.674758 
L 295.997818 186.576946 
L 299.301703 164.469974 
L 302.533765 193.601261 
L 305.801738 180.158093 
L 309.105623 180.683881 
L 312.409508 182.485015 
L 315.677482 196.219401 
L 318.945455 186.757724 
L 322.24934 189.743382 
L 325.553225 181.793801 
L 328.785287 189.804049 
L 332.05326 185.255604 
L 335.357145 181.914324 
L 338.66103 171.539763 
L 341.893092 184.488373 
L 345.161065 178.13018 
L 348.46495 186.888452 
L 351.768836 185.023544 
L 355.000897 193.181608 
L 358.26887 188.066847 
L 361.572755 188.115139 
L 364.876641 181.007244 
L 368.144614 155.61817 
L 371.412587 183.201031 
L 374.716472 181.141344 
L 378.020357 174.904691 
L 381.252419 203.964414 
L 384.520392 197.412523 
L 387.824277 208.288077 
L 391.128163 205.105784 
L 394.360224 193.271669 
L 397.628197 203.591015 
L 400.932083 186.596399 
L 404.235968 193.984284 
L 410.736003 181.655548 
L 414.039888 197.348368 
L 417.343773 189.593485 
L 420.611746 184.348288 
L 423.879719 184.438534 
L 427.183605 178.087712 
L 430.48749 177.083903 
L 436.987525 172.480429 
L 440.29141 183.189478 
L 443.595295 175.234175 
L 446.827356 185.26633 
L 450.09533 179.683031 
L 453.399215 174.276503 
L 456.7031 176.291719 
L 459.935161 181.268555 
L 463.203135 182.108446 
L 466.50702 194.094501 
L 469.810905 189.009953 
L 473.078878 209.897544 
L 476.346852 168.277734 
L 479.650737 201.72378 
L 482.954622 177.928455 
L 486.186683 187.76445 
L 489.454657 205.782512 
L 492.758542 183.190884 
L 496.062427 200.270876 
L 499.294488 191.852423 
L 502.562462 168.094638 
L 505.866347 173.975825 
L 509.170232 204.295925 
L 512.402294 186.965272 
L 515.670267 188.027453 
L 518.974152 143.097712 
L 522.278037 184.556615 
L 525.54601 195.558232 
L 528.813984 165.130726 
L 532.117869 189.389368 
L 535.421754 190.507289 
L 538.653816 191.126168 
L 541.921789 204.301475 
L 545.225674 192.283739 
L 548.529559 195.332742 
L 551.761621 169.28046 
L 555.029594 179.016157 
L 558.333479 183.249914 
L 561.637364 176.029163 
L 564.869426 187.065707 
L 568.137399 202.319714 
L 571.441284 179.953679 
L 574.745169 183.994821 
L 578.013143 180.648366 
L 581.281116 178.739385 
L 584.585001 185.265195 
L 587.888886 205.787481 
L 591.120948 182.60245 
L 594.388921 179.296174 
L 597.692806 183.997473 
L 600.996691 175.872074 
L 604.228753 185.655574 
L 607.496726 185.580439 
L 610.800611 186.424994 
L 614.104496 180.999684 
L 617.336558 178.561003 
L 620.604531 182.552208 
L 623.908416 173.280112 
L 627.212301 194.535606 
L 630.480275 186.038654 
L 633.748248 186.588212 
L 637.052133 187.862972 
L 640.356018 194.94613 
L 643.58808 213.5756 
L 646.856053 170.9998 
L 650.159938 187.127778 
L 653.463823 176.807269 
L 656.695885 179.150074 
L 659.963858 200.702759 
L 663.267743 172.387357 
L 666.571629 177.065001 
L 669.80369 173.307196 
L 673.071663 164.817267 
L 676.375548 198.042668 
L 679.679434 168.038216 
L 682.947407 171.629569 
L 686.21538 181.185915 
L 686.21538 181.185915 
" clip-path="url(#p0d358e8ddf)" style="fill: none; stroke: #125da6; stroke-width: 1.5; stroke-linecap: square"/>
   </g>
   <g id="line2d_39">
    <path d="M 109.076926 202.836441 
L 112.380812 177.256795 
L 115.684697 163.740099 
L 118.916758 188.306593 
L 122.184732 169.96436 
L 125.488617 187.638324 
L 128.792502 188.168249 
L 132.024563 183.123894 
L 135.292537 183.18302 
L 138.596422 203.762136 
L 141.900307 185.868051 
L 145.132368 180.392809 
L 148.400342 186.231944 
L 151.704227 188.253535 
L 155.008112 185.816192 
L 158.276085 186.056481 
L 161.544059 190.549003 
L 164.847944 188.093737 
L 168.151829 189.615248 
L 171.38389 185.770539 
L 174.651864 188.702335 
L 177.955749 181.809262 
L 181.259634 178.107442 
L 184.491695 190.418765 
L 187.759669 189.1245 
L 191.063554 182.720859 
L 194.367439 178.538819 
L 197.599501 185.321111 
L 200.867474 190.393125 
L 204.171359 188.750911 
L 207.475244 188.207108 
L 210.743217 182.060073 
L 214.011191 186.929549 
L 217.315076 183.369176 
L 220.618961 190.262362 
L 223.851023 186.028178 
L 227.118996 177.332013 
L 230.422881 185.52386 
L 233.726766 181.631789 
L 236.958828 187.946692 
L 240.226801 183.821123 
L 243.530686 178.72308 
L 246.834571 183.739128 
L 250.066633 193.002934 
L 253.334606 187.837632 
L 256.638491 181.482567 
L 259.942376 184.163912 
L 263.21035 199.913141 
L 266.478323 175.002913 
L 269.782208 176.415685 
L 273.086093 199.090142 
L 276.318155 176.814595 
L 279.586128 184.660464 
L 282.890013 187.011099 
L 286.193898 187.926948 
L 289.42596 193.453761 
L 292.693933 189.508119 
L 295.997818 187.651247 
L 299.301703 195.556437 
L 302.533765 181.707438 
L 305.801738 178.937027 
L 309.105623 186.253519 
L 312.409508 183.887958 
L 315.677482 186.894681 
L 318.945455 189.204959 
L 322.24934 188.377357 
L 325.553225 185.183682 
L 328.785287 188.338388 
L 332.05326 185.879006 
L 335.357145 185.930979 
L 338.66103 184.712042 
L 341.893092 184.788572 
L 345.161065 187.21512 
L 348.46495 174.008474 
L 351.768836 186.922975 
L 355.000897 186.304133 
L 358.26887 188.548028 
L 361.572755 184.613127 
L 364.876641 187.873708 
L 368.144614 190.857474 
L 371.412587 183.428653 
L 374.716472 176.709766 
L 378.020357 177.905313 
L 381.252419 184.265903 
L 384.520392 191.281435 
L 387.824277 179.18018 
L 391.128163 197.901256 
L 394.360224 192.831122 
L 397.628197 180.924533 
L 400.932083 168.308599 
L 404.235968 183.254445 
L 407.468029 182.588291 
L 410.736003 181.194291 
L 414.039888 182.705304 
L 417.343773 188.473785 
L 420.611746 179.960373 
L 423.879719 193.544458 
L 427.183605 181.764078 
L 430.48749 186.487358 
L 433.719551 193.523106 
L 436.987525 184.946379 
L 440.29141 188.308497 
L 443.595295 184.561402 
L 446.827356 184.758668 
L 450.09533 183.092975 
L 453.399215 181.174541 
L 456.7031 183.658507 
L 459.935161 179.624954 
L 463.203135 186.990326 
L 466.50702 179.445886 
L 469.810905 175.458847 
L 473.078878 177.299027 
L 476.346852 194.798635 
L 479.650737 177.565846 
L 482.954622 183.250393 
L 486.186683 178.73909 
L 489.454657 192.163197 
L 492.758542 185.703528 
L 496.062427 184.119819 
L 499.294488 184.121706 
L 502.562462 178.525998 
L 505.866347 177.260222 
L 509.170232 183.605919 
L 512.402294 186.358788 
L 515.670267 174.059038 
L 518.974152 187.621206 
L 522.278037 182.559791 
L 525.54601 179.885198 
L 528.813984 186.474479 
L 532.117869 180.402401 
L 535.421754 183.158086 
L 538.653816 181.17123 
L 541.921789 186.389767 
L 545.225674 180.974214 
L 548.529559 182.851046 
L 551.761621 189.543666 
L 555.029594 185.677407 
L 558.333479 191.404479 
L 561.637364 191.150503 
L 564.869426 183.980874 
L 568.137399 185.454714 
L 571.441284 186.353986 
L 574.745169 189.532486 
L 578.013143 183.020578 
L 581.281116 187.919266 
L 584.585001 187.342946 
L 587.888886 190.071507 
L 591.120948 186.17957 
L 594.388921 185.414866 
L 597.692806 187.1637 
L 600.996691 189.875593 
L 604.228753 189.574749 
L 607.496726 190.809564 
L 610.800611 189.015275 
L 614.104496 180.146245 
L 617.336558 185.378526 
L 620.604531 182.793138 
L 623.908416 187.54006 
L 627.212301 186.505827 
L 630.480275 187.629754 
L 633.748248 185.453627 
L 637.052133 186.231192 
L 640.356018 184.136363 
L 643.58808 182.453517 
L 646.856053 190.053211 
L 650.159938 188.186876 
L 656.695885 202.296522 
L 659.963858 184.044099 
L 663.267743 188.689503 
L 666.571629 176.988509 
L 669.80369 179.247343 
L 673.071663 189.619869 
L 676.375548 180.194143 
L 679.679434 178.42604 
L 682.947407 184.358122 
L 686.21538 183.203735 
L 686.21538 183.203735 
" clip-path="url(#p0d358e8ddf)" style="fill: none; stroke: #3b8bc2; stroke-width: 1.5; stroke-linecap: square"/>
   </g>
   <g id="line2d_40">
    <path d="M 109.076926 188.039761 
L 112.380812 185.789058 
L 115.684697 164.436104 
L 118.916758 184.750525 
L 122.184732 179.495938 
L 125.488617 193.657523 
L 128.792502 187.514324 
L 132.024563 179.968587 
L 135.292537 187.393533 
L 138.596422 197.609348 
L 141.900307 178.837536 
L 145.132368 184.389542 
L 148.400342 182.826803 
L 151.704227 183.74581 
L 155.008112 184.046685 
L 158.276085 181.635638 
L 161.544059 192.672499 
L 164.847944 181.873306 
L 168.151829 184.480073 
L 171.38389 185.616129 
L 174.651864 183.274006 
L 177.955749 188.571787 
L 181.259634 184.077883 
L 184.491695 182.816111 
L 187.759669 184.987802 
L 191.063554 186.08975 
L 194.367439 186.211662 
L 197.599501 185.397027 
L 200.867474 184.95209 
L 204.171359 187.374118 
L 207.475244 188.29082 
L 210.743217 187.360601 
L 214.011191 189.26236 
L 217.315076 186.526676 
L 220.618961 184.404506 
L 223.851023 185.957147 
L 227.118996 182.283935 
L 230.422881 184.584323 
L 233.726766 183.185863 
L 236.958828 184.683327 
L 240.226801 183.040192 
L 243.530686 185.057094 
L 246.834571 184.605506 
L 250.066633 185.205616 
L 253.334606 183.975151 
L 256.638491 184.258294 
L 259.942376 185.315976 
L 263.21035 182.14138 
L 266.478323 185.940336 
L 269.782208 189.049564 
L 273.086093 179.90212 
L 276.318155 186.14235 
L 279.586128 187.44589 
L 282.890013 186.003569 
L 289.42596 184.954136 
L 292.693933 189.185006 
L 295.997818 187.306178 
L 299.301703 190.586223 
L 302.533765 185.58527 
L 305.801738 186.280782 
L 309.105623 185.770503 
L 312.409508 184.177389 
L 315.677482 187.956194 
L 318.945455 186.263344 
L 322.24934 185.952591 
L 325.553225 185.11359 
L 328.785287 186.138425 
L 338.66103 184.890996 
L 341.893092 185.300982 
L 345.161065 184.978881 
L 348.46495 187.925172 
L 351.768836 184.690889 
L 355.000897 186.832628 
L 358.26887 186.574106 
L 361.572755 186.583431 
L 364.876641 186.835053 
L 368.144614 185.610781 
L 371.412587 186.302646 
L 374.716472 184.302545 
L 384.520392 184.161793 
L 387.824277 183.798585 
L 391.128163 181.880636 
L 394.360224 186.522419 
L 397.628197 184.435942 
L 400.932083 186.002043 
L 404.235968 184.583729 
L 407.468029 184.456504 
L 410.736003 186.107241 
L 414.039888 183.750922 
L 417.343773 184.962555 
L 420.611746 185.715307 
L 427.183605 187.947119 
L 430.48749 187.465769 
L 433.719551 187.430638 
L 436.987525 186.543045 
L 440.29141 186.308542 
L 443.595295 185.817828 
L 446.827356 185.034963 
L 450.09533 185.274417 
L 453.399215 183.704315 
L 456.7031 185.281795 
L 459.935161 184.297067 
L 463.203135 184.8366 
L 466.50702 184.523148 
L 469.810905 183.238283 
L 473.078878 190.799528 
L 476.346852 184.852715 
L 479.650737 183.247369 
L 482.954622 185.782766 
L 486.186683 188.954423 
L 489.454657 182.984959 
L 492.758542 185.318516 
L 496.062427 186.497843 
L 499.294488 184.496531 
L 502.562462 185.253867 
L 505.866347 188.048721 
L 509.170232 182.700939 
L 512.402294 185.175377 
L 515.670267 187.52409 
L 518.974152 188.091604 
L 522.278037 187.269025 
L 525.54601 188.004207 
L 532.117869 188.332781 
L 535.421754 187.507273 
L 538.653816 188.40629 
L 541.921789 181.721143 
L 545.225674 185.752271 
L 548.529559 181.448232 
L 551.761621 181.611133 
L 555.029594 182.99732 
L 558.333479 181.352405 
L 561.637364 181.733884 
L 564.869426 183.405362 
L 568.137399 182.89491 
L 571.441284 186.034625 
L 574.745169 183.252475 
L 578.013143 185.362697 
L 581.281116 183.960201 
L 584.585001 185.042545 
L 587.888886 182.115364 
L 591.120948 183.000415 
L 594.388921 183.772081 
L 597.692806 184.347969 
L 600.996691 183.643972 
L 604.228753 183.978041 
L 607.496726 186.049021 
L 610.800611 186.240568 
L 614.104496 183.402081 
L 617.336558 184.739648 
L 620.604531 183.794178 
L 623.908416 184.629639 
L 627.212301 184.3636 
L 630.480275 185.620555 
L 633.748248 185.098113 
L 637.052133 185.544217 
L 640.356018 184.878304 
L 643.58808 181.939037 
L 646.856053 184.863941 
L 650.159938 182.371534 
L 653.463823 185.757384 
L 656.695885 190.968931 
L 659.963858 188.321744 
L 663.267743 185.132813 
L 666.571629 184.653482 
L 669.80369 182.535349 
L 673.071663 191.711358 
L 676.375548 186.595859 
L 679.679434 181.783267 
L 682.947407 185.644578 
L 686.21538 184.752611 
L 686.21538 184.752611 
" clip-path="url(#p0d358e8ddf)" style="fill: none; stroke: #75b4d8; stroke-width: 1.5; stroke-linecap: square"/>
   </g>
   <g id="line2d_41">
    <path d="M 109.076926 179.319001 
L 112.380812 186.547733 
L 115.684697 185.16991 
L 118.916758 183.361087 
L 122.184732 184.789476 
L 125.488617 186.475896 
L 128.792502 188.449177 
L 132.024563 184.7169 
L 135.292537 184.839798 
L 138.596422 190.027317 
L 141.900307 181.992339 
L 145.132368 184.214288 
L 148.400342 184.786942 
L 151.704227 185.207142 
L 155.008112 184.829282 
L 158.276085 186.057528 
L 161.544059 184.929064 
L 164.847944 184.426156 
L 168.151829 184.629369 
L 171.38389 184.177139 
L 174.651864 183.476414 
L 177.955749 181.892895 
L 181.259634 185.830235 
L 184.491695 185.670834 
L 187.759669 184.375627 
L 191.063554 184.579571 
L 194.367439 185.217266 
L 200.867474 185.391756 
L 204.171359 185.153663 
L 207.475244 189.063949 
L 210.743217 185.307615 
L 214.011191 186.46188 
L 217.315076 185.748798 
L 220.618961 188.263431 
L 223.851023 186.035129 
L 227.118996 186.462262 
L 230.422881 185.986874 
L 233.726766 185.074402 
L 236.958828 184.425173 
L 240.226801 185.909858 
L 243.530686 185.606306 
L 246.834571 185.740712 
L 250.066633 184.192662 
L 253.334606 186.152701 
L 256.638491 185.707236 
L 259.942376 185.702815 
L 263.21035 185.101412 
L 266.478323 186.115292 
L 269.782208 184.850507 
L 273.086093 184.921736 
L 276.318155 185.530013 
L 279.586128 184.216421 
L 282.890013 184.507929 
L 286.193898 185.090203 
L 289.42596 185.995381 
L 292.693933 185.553186 
L 295.997818 182.925087 
L 299.301703 189.625631 
L 302.533765 182.880207 
L 305.801738 184.072814 
L 309.105623 184.278993 
L 312.409508 186.206618 
L 315.677482 183.565936 
L 318.945455 184.748589 
L 322.24934 185.75863 
L 325.553225 183.7878 
L 328.785287 184.320895 
L 332.05326 184.152541 
L 335.357145 186.634925 
L 338.66103 183.885749 
L 341.893092 184.516447 
L 345.161065 185.567594 
L 348.46495 183.689305 
L 351.768836 185.095352 
L 355.000897 184.71994 
L 358.26887 185.74619 
L 361.572755 185.512448 
L 364.876641 187.350899 
L 368.144614 185.021653 
L 371.412587 186.891592 
L 374.716472 186.160131 
L 378.020357 185.115949 
L 381.252419 184.878138 
L 384.520392 184.831693 
L 387.824277 184.256723 
L 391.128163 182.372104 
L 394.360224 185.308971 
L 397.628197 182.86052 
L 400.932083 185.733819 
L 404.235968 184.815684 
L 407.468029 184.685947 
L 410.736003 185.418427 
L 414.039888 184.76988 
L 417.343773 184.321091 
L 420.611746 184.742494 
L 427.183605 184.52393 
L 430.48749 184.856429 
L 433.719551 184.693223 
L 436.987525 184.809114 
L 440.29141 187.428788 
L 443.595295 183.845728 
L 446.827356 185.093237 
L 450.09533 185.671852 
L 453.399215 185.627295 
L 456.7031 185.114056 
L 459.935161 185.797405 
L 463.203135 185.344184 
L 469.810905 187.770719 
L 473.078878 184.827873 
L 476.346852 185.215312 
L 479.650737 188.611068 
L 482.954622 187.295504 
L 486.186683 185.202158 
L 489.454657 187.502825 
L 492.758542 186.333839 
L 496.062427 185.893998 
L 499.294488 186.188014 
L 505.866347 185.723905 
L 509.170232 186.32234 
L 512.402294 185.046258 
L 515.670267 186.7804 
L 518.974152 184.521065 
L 522.278037 185.210159 
L 525.54601 185.21303 
L 528.813984 183.911151 
L 532.117869 184.474934 
L 535.421754 184.875305 
L 538.653816 184.542616 
L 541.921789 186.743303 
L 545.225674 186.318982 
L 548.529559 187.522127 
L 551.761621 184.589544 
L 555.029594 184.771486 
L 558.333479 183.521439 
L 561.637364 184.797392 
L 564.869426 184.748437 
L 568.137399 185.394084 
L 571.441284 184.737198 
L 574.745169 185.267137 
L 581.281116 185.13925 
L 584.585001 184.555935 
L 587.888886 185.660281 
L 591.120948 184.664114 
L 594.388921 185.307668 
L 597.692806 184.949347 
L 600.996691 185.115519 
L 604.228753 184.809435 
L 607.496726 185.719737 
L 610.800611 184.851774 
L 614.104496 185.166023 
L 617.336558 184.937121 
L 620.604531 185.149623 
L 623.908416 184.789441 
L 627.212301 184.833779 
L 630.480275 184.450431 
L 637.052133 184.520998 
L 640.356018 185.46146 
L 643.58808 187.232054 
L 646.856053 184.504228 
L 650.159938 185.025456 
L 653.463823 184.021784 
L 656.695885 182.446054 
L 659.963858 188.814624 
L 663.267743 182.467808 
L 666.571629 184.52916 
L 669.80369 185.861389 
L 673.071663 189.502865 
L 676.375548 185.807922 
L 679.679434 184.839107 
L 686.21538 185.161077 
L 686.21538 185.161077 
" clip-path="url(#p0d358e8ddf)" style="fill: none; stroke: #b7d4ea; stroke-width: 1.5; stroke-linecap: square"/>
   </g>
   <g id="text_20">
    <!-- v -->
    <g transform="translate(391.851006 23.804405) scale(0.24 -0.24)">
     <defs>
      <path id="CMR17-76" d="M 2502 2163 
C 2560 2304 2662 2560 3034 2560 
L 3034 2726 
C 2912 2726 2752 2726 2630 2726 
C 2496 2726 2285 2726 2157 2732 
L 2157 2566 
C 2317 2553 2406 2477 2406 2311 
C 2406 2253 2406 2240 2368 2151 
L 1664 377 
L 902 2286 
C 864 2369 864 2381 864 2407 
C 864 2560 1075 2560 1171 2560 
L 1171 2732 
C 1018 2726 736 2726 576 2726 
C 403 2726 205 2726 64 2732 
L 64 2560 
C 307 2560 442 2560 518 2362 
L 1446 44 
C 1485 -51 1491 -64 1549 -64 
C 1606 -64 1613 -51 1651 44 
L 2502 2163 
z
" transform="scale(0.015625)"/>
     </defs>
     <use xlink:href="#CMR17-76" transform="scale(0.996264)"/>
    </g>
   </g>
   <g id="legend_1">
    <g id="patch_3">
     <path d="M 648.587936 170.262308 
L 708.072303 170.262308 
Q 710.072303 170.262308 710.072303 168.262308 
L 710.072303 36.804405 
Q 710.072303 34.804405 708.072303 34.804405 
L 648.587936 34.804405 
Q 646.587936 34.804405 646.587936 36.804405 
L 646.587936 168.262308 
Q 646.587936 170.262308 648.587936 170.262308 
z
" style="fill: #ffffff; opacity: 0.8; stroke: #cccccc; stroke-linejoin: miter"/>
    </g>
    <g id="line2d_42">
     <path d="M 650.587936 50.525099 
L 660.587936 50.525099 
L 670.587936 50.525099 
" style="fill: none; stroke: #08306b; stroke-width: 1.5; stroke-linecap: square"/>
    </g>
    <g id="text_21">
     <!-- $v_{1,t}$ -->
     <g transform="translate(678.587936 54.025099) scale(0.22 -0.22)">
      <defs>
       <path id="CMMI12-76" d="M 2925 2389 
C 2925 2791 2720 2816 2669 2816 
C 2515 2816 2374 2663 2374 2535 
C 2374 2459 2419 2414 2445 2389 
C 2509 2331 2675 2159 2675 1827 
C 2675 1558 2291 64 1523 64 
C 1133 64 1056 390 1056 626 
C 1056 945 1203 1392 1376 1852 
C 1478 2114 1504 2178 1504 2305 
C 1504 2574 1312 2816 998 2816 
C 410 2816 173 1890 173 1839 
C 173 1814 198 1782 243 1782 
C 301 1782 307 1807 333 1897 
C 486 2446 736 2689 979 2689 
C 1037 2689 1146 2689 1146 2478 
C 1146 2312 1075 2127 979 1884 
C 672 1067 672 869 672 715 
C 672 575 691 313 890 134 
C 1120 -64 1440 -64 1498 -64 
C 2560 -64 2925 2024 2925 2389 
z
" transform="scale(0.015625)"/>
       <path id="CMMI12-3b" d="M 1248 -31 
C 1248 343 1126 619 864 619 
C 659 619 557 453 557 313 
C 557 172 653 0 870 0 
C 954 0 1024 26 1082 83 
C 1094 96 1101 96 1107 96 
C 1120 96 1120 5 1120 -27 
C 1120 -240 1082 -659 710 -1080 
C 640 -1157 640 -1170 640 -1183 
C 640 -1216 672 -1248 704 -1248 
C 755 -1248 1248 -771 1248 -31 
z
" transform="scale(0.015625)"/>
       <path id="CMMI12-74" d="M 1286 2566 
L 1875 2566 
C 1997 2566 2061 2566 2061 2681 
C 2061 2752 2022 2752 1894 2752 
L 1331 2752 
L 1568 3692 
C 1594 3781 1594 3794 1594 3840 
C 1594 3943 1510 4000 1427 4000 
C 1376 4000 1229 3981 1178 3775 
L 928 2752 
L 326 2752 
C 198 2752 141 2752 141 2630 
C 141 2566 186 2566 307 2566 
L 877 2566 
L 454 881 
C 403 658 384 594 384 511 
C 384 211 595 -64 954 -64 
C 1600 -64 1946 868 1946 912 
C 1946 951 1920 970 1882 970 
C 1869 970 1843 970 1830 944 
C 1824 938 1818 931 1773 829 
C 1638 511 1344 64 973 64 
C 781 64 768 224 768 364 
C 768 370 768 492 787 568 
L 1286 2566 
z
" transform="scale(0.015625)"/>
      </defs>
      <use xlink:href="#CMMI12-76" transform="scale(0.996264)"/>
      <use xlink:href="#CMR17-31" transform="translate(47.160581 -14.943915) scale(0.697382)"/>
      <use xlink:href="#CMMI12-3b" transform="translate(79.143763 -14.943915) scale(0.697382)"/>
      <use xlink:href="#CMMI12-74" transform="translate(98.111695 -14.943915) scale(0.697382)"/>
     </g>
    </g>
    <g id="line2d_43">
     <path d="M 650.587936 77.016679 
L 660.587936 77.016679 
L 670.587936 77.016679 
" style="fill: none; stroke: #125da6; stroke-width: 1.5; stroke-linecap: square"/>
    </g>
    <g id="text_22">
     <!-- $v_{2,t}$ -->
     <g transform="translate(678.587936 80.516679) scale(0.22 -0.22)">
      <use xlink:href="#CMMI12-76" transform="scale(0.996264)"/>
      <use xlink:href="#CMR17-32" transform="translate(47.160581 -14.943915) scale(0.697382)"/>
      <use xlink:href="#CMMI12-3b" transform="translate(79.143763 -14.943915) scale(0.697382)"/>
      <use xlink:href="#CMMI12-74" transform="translate(98.111695 -14.943915) scale(0.697382)"/>
     </g>
    </g>
    <g id="line2d_44">
     <path d="M 650.587936 103.50826 
L 660.587936 103.50826 
L 670.587936 103.50826 
" style="fill: none; stroke: #3b8bc2; stroke-width: 1.5; stroke-linecap: square"/>
    </g>
    <g id="text_23">
     <!-- $v_{3,t}$ -->
     <g transform="translate(678.587936 107.00826) scale(0.22 -0.22)">
      <defs>
       <path id="CMR17-33" d="M 1414 2157 
C 1984 2157 2234 1662 2234 1090 
C 2234 320 1824 25 1453 25 
C 1114 25 563 194 390 693 
C 422 680 454 680 486 680 
C 640 680 755 782 755 948 
C 755 1133 614 1216 486 1216 
C 378 1216 211 1165 211 926 
C 211 335 787 -128 1466 -128 
C 2176 -128 2720 430 2720 1085 
C 2720 1707 2208 2157 1600 2227 
C 2086 2328 2554 2756 2554 3329 
C 2554 3820 2048 4179 1472 4179 
C 890 4179 378 3829 378 3329 
C 378 3110 544 3072 627 3072 
C 762 3072 877 3155 877 3321 
C 877 3486 762 3569 627 3569 
C 602 3569 570 3569 544 3557 
C 730 3959 1235 4032 1459 4032 
C 1683 4032 2106 3925 2106 3320 
C 2106 3143 2080 2828 1862 2550 
C 1670 2304 1453 2304 1242 2284 
C 1210 2284 1062 2269 1037 2269 
C 992 2263 966 2257 966 2208 
C 966 2163 973 2157 1101 2157 
L 1414 2157 
z
" transform="scale(0.015625)"/>
      </defs>
      <use xlink:href="#CMMI12-76" transform="scale(0.996264)"/>
      <use xlink:href="#CMR17-33" transform="translate(47.160581 -14.943915) scale(0.697382)"/>
      <use xlink:href="#CMMI12-3b" transform="translate(79.143763 -14.943915) scale(0.697382)"/>
      <use xlink:href="#CMMI12-74" transform="translate(98.111695 -14.943915) scale(0.697382)"/>
     </g>
    </g>
    <g id="line2d_45">
     <path d="M 650.587936 129.999841 
L 660.587936 129.999841 
L 670.587936 129.999841 
" style="fill: none; stroke: #75b4d8; stroke-width: 1.5; stroke-linecap: square"/>
    </g>
    <g id="text_24">
     <!-- $v_{4,t}$ -->
     <g transform="translate(678.587936 133.499841) scale(0.22 -0.22)">
      <defs>
       <path id="CMR17-34" d="M 2150 4122 
C 2150 4256 2144 4256 2029 4256 
L 128 1254 
L 128 1088 
L 1779 1088 
L 1779 457 
C 1779 224 1766 160 1318 160 
L 1197 160 
L 1197 0 
C 1402 0 1747 0 1965 0 
C 2182 0 2528 0 2733 0 
L 2733 160 
L 2611 160 
C 2163 160 2150 224 2150 457 
L 2150 1088 
L 2803 1088 
L 2803 1254 
L 2150 1254 
L 2150 4122 
z
M 1798 3703 
L 1798 1254 
L 256 1254 
L 1798 3703 
z
" transform="scale(0.015625)"/>
      </defs>
      <use xlink:href="#CMMI12-76" transform="scale(0.996264)"/>
      <use xlink:href="#CMR17-34" transform="translate(47.160581 -14.943915) scale(0.697382)"/>
      <use xlink:href="#CMMI12-3b" transform="translate(79.143763 -14.943915) scale(0.697382)"/>
      <use xlink:href="#CMMI12-74" transform="translate(98.111695 -14.943915) scale(0.697382)"/>
     </g>
    </g>
    <g id="line2d_46">
     <path d="M 650.587936 156.491421 
L 660.587936 156.491421 
L 670.587936 156.491421 
" style="fill: none; stroke: #b7d4ea; stroke-width: 1.5; stroke-linecap: square"/>
    </g>
    <g id="text_25">
     <!-- $v_{5,t}$ -->
     <g transform="translate(678.587936 159.991421) scale(0.22 -0.22)">
      <use xlink:href="#CMMI12-76" transform="scale(0.996264)"/>
      <use xlink:href="#CMR17-35" transform="translate(47.160581 -14.943915) scale(0.697382)"/>
      <use xlink:href="#CMMI12-3b" transform="translate(79.143763 -14.943915) scale(0.697382)"/>
      <use xlink:href="#CMMI12-74" transform="translate(98.111695 -14.943915) scale(0.697382)"/>
     </g>
    </g>
   </g>
  </g>
 </g>
 <defs>
  <clipPath id="p0d358e8ddf">
   <rect x="80.220004" y="29.804405" width="634.852299" height="361.311714"/>
  </clipPath>
 </defs>
</svg>
