<?xml version="1.0" encoding="utf-8" standalone="no"?>
<!DOCTYPE svg PUBLIC "-//W3C//DTD SVG 1.1//EN"
  "http://www.w3.org/Graphics/SVG/1.1/DTD/svg11.dtd">
<svg xmlns:xlink="http://www.w3.org/1999/xlink" width="712.253277pt" height="424.8pt" viewBox="0 0 712.253277 424.8" xmlns="http://www.w3.org/2000/svg" version="1.1">
 <metadata>
  <rdf:RDF xmlns:dc="http://purl.org/dc/elements/1.1/" xmlns:cc="http://creativecommons.org/ns#" xmlns:rdf="http://www.w3.org/1999/02/22-rdf-syntax-ns#">
   <cc:Work>
    <dc:type rdf:resource="http://purl.org/dc/dcmitype/StillImage"/>
    <dc:date>2025-01-15T16:26:21.891000</dc:date>
    <dc:format>image/svg+xml</dc:format>
    <dc:creator>
     <cc:Agent>
      <dc:title>Matplotlib v3.10.0, https://matplotlib.org/</dc:title>
     </cc:Agent>
    </dc:creator>
   </cc:Work>
  </rdf:RDF>
 </metadata>
 <defs>
  <style type="text/css">*{stroke-linejoin: round; stroke-linecap: butt}</style>
 </defs>
 <g id="figure_1">
  <g id="patch_1">
   <path d="M 0 424.8 
L 712.253277 424.8 
L 712.253277 0 
L 0 0 
z
" style="fill: #1c1c1c"/>
  </g>
  <g id="axes_1">
   <g id="patch_2">
    <path d="M 70.168099 391.116119 
L 705.053277 391.116119 
L 705.053277 29.804405 
L 70.168099 29.804405 
z
" style="fill: #1c1c1c"/>
   </g>
   <g id="matplotlib.axis_1">
    <g id="xtick_1">
     <g id="line2d_1">
      <path d="M 95.812486 391.116119 
L 95.812486 29.804405 
" clip-path="url(#pa03e4f44c1)" style="fill: none; stroke: #404040; stroke-opacity: 0.3; stroke-width: 0.75; stroke-linecap: square"/>
     </g>
     <g id="line2d_2">
      <defs>
       <path id="maf681d5420" d="M 0 0 
L 0 3.5 
" style="stroke: #ffffff; stroke-width: 0.8"/>
      </defs>
      <g>
       <use xlink:href="#maf681d5420" x="95.812486" y="391.116119" style="fill: #ffffff; stroke: #ffffff; stroke-width: 0.8"/>
      </g>
     </g>
     <g id="text_1">
      <!-- $\mathdefault{1980}$ -->
      <g style="fill: #ffffff" transform="translate(75.708676 413.336812) scale(0.22 -0.22)">
       <defs>
        <path id="CMR17-31" d="M 1702 4058 
C 1702 4192 1696 4192 1606 4192 
C 1357 3916 979 3827 621 3827 
C 602 3827 570 3827 563 3808 
C 557 3795 557 3782 557 3648 
C 755 3648 1088 3686 1344 3839 
L 1344 461 
C 1344 236 1331 160 781 160 
L 589 160 
L 589 0 
C 896 0 1216 0 1523 0 
C 1830 0 2150 0 2458 0 
L 2458 160 
L 2266 160 
C 1715 160 1702 230 1702 458 
L 1702 4058 
z
" transform="scale(0.015625)"/>
        <path id="CMR17-39" d="M 2253 1864 
C 2253 464 1670 31 1190 31 
C 1043 31 685 31 538 294 
C 704 268 826 357 826 518 
C 826 692 685 749 595 749 
C 538 749 365 723 365 506 
C 365 71 742 -128 1203 -128 
C 1939 -128 2688 674 2688 2073 
C 2688 3817 1971 4179 1485 4179 
C 851 4179 243 3628 243 2778 
C 243 1991 762 1408 1414 1408 
C 1952 1408 2189 1903 2253 2112 
L 2253 1864 
z
M 1427 1510 
C 1254 1510 1011 1542 813 1922 
C 678 2169 678 2461 678 2771 
C 678 3146 678 3405 858 3684 
C 947 3817 1114 4032 1485 4032 
C 2240 4032 2240 2885 2240 2632 
C 2240 2182 2035 1510 1427 1510 
z
" transform="scale(0.015625)"/>
        <path id="CMR17-38" d="M 1741 2264 
C 2144 2467 2554 2773 2554 3263 
C 2554 3841 1990 4179 1472 4179 
C 890 4179 378 3759 378 3180 
C 378 3021 416 2747 666 2505 
C 730 2442 998 2251 1171 2130 
C 883 1983 211 1634 211 934 
C 211 279 838 -128 1459 -128 
C 2144 -128 2720 362 2720 1010 
C 2720 1590 2330 1857 2074 2029 
L 1741 2264 
z
M 902 2822 
C 851 2854 595 3051 595 3351 
C 595 3739 998 4032 1459 4032 
C 1965 4032 2336 3676 2336 3262 
C 2336 2669 1670 2331 1638 2331 
C 1632 2331 1626 2331 1574 2370 
L 902 2822 
z
M 2080 1519 
C 2176 1449 2483 1240 2483 851 
C 2483 381 2010 25 1472 25 
C 890 25 448 438 448 940 
C 448 1443 838 1862 1280 2060 
L 2080 1519 
z
" transform="scale(0.015625)"/>
        <path id="CMR17-30" d="M 2688 2025 
C 2688 2416 2682 3080 2413 3591 
C 2176 4039 1798 4198 1466 4198 
C 1158 4198 768 4058 525 3597 
C 269 3118 243 2524 243 2025 
C 243 1661 250 1106 448 619 
C 723 -39 1216 -128 1466 -128 
C 1760 -128 2208 -7 2470 600 
C 2662 1042 2688 1559 2688 2025 
z
M 1466 -26 
C 1056 -26 813 325 723 812 
C 653 1188 653 1738 653 2096 
C 653 2588 653 2997 736 3387 
C 858 3929 1216 4096 1466 4096 
C 1728 4096 2067 3923 2189 3400 
C 2272 3036 2278 2607 2278 2096 
C 2278 1680 2278 1169 2202 792 
C 2067 95 1690 -26 1466 -26 
z
" transform="scale(0.015625)"/>
       </defs>
       <use xlink:href="#CMR17-31" transform="scale(0.996264)"/>
       <use xlink:href="#CMR17-39" transform="translate(45.690477 0) scale(0.996264)"/>
       <use xlink:href="#CMR17-38" transform="translate(91.380954 0) scale(0.996264)"/>
       <use xlink:href="#CMR17-30" transform="translate(137.071431 0) scale(0.996264)"/>
      </g>
     </g>
    </g>
    <g id="xtick_2">
     <g id="line2d_3">
      <path d="M 161.057293 391.116119 
L 161.057293 29.804405 
" clip-path="url(#pa03e4f44c1)" style="fill: none; stroke: #404040; stroke-opacity: 0.3; stroke-width: 0.75; stroke-linecap: square"/>
     </g>
     <g id="line2d_4">
      <g>
       <use xlink:href="#maf681d5420" x="161.057293" y="391.116119" style="fill: #ffffff; stroke: #ffffff; stroke-width: 0.8"/>
      </g>
     </g>
     <g id="text_2">
      <!-- $\mathdefault{1985}$ -->
      <g style="fill: #ffffff" transform="translate(140.953483 413.336812) scale(0.22 -0.22)">
       <defs>
        <path id="CMR17-35" d="M 730 3692 
C 794 3666 1056 3584 1325 3584 
C 1920 3584 2246 3911 2432 4100 
C 2432 4157 2432 4192 2394 4192 
C 2387 4192 2374 4192 2323 4163 
C 2099 4058 1837 3973 1517 3973 
C 1325 3973 1037 3999 723 4139 
C 653 4171 640 4171 634 4171 
C 602 4171 595 4164 595 4037 
L 595 2203 
C 595 2089 595 2057 659 2057 
C 691 2057 704 2070 736 2114 
C 941 2401 1222 2522 1542 2522 
C 1766 2522 2246 2382 2246 1289 
C 2246 1085 2246 715 2054 421 
C 1894 159 1645 25 1370 25 
C 947 25 518 320 403 814 
C 429 807 480 795 506 795 
C 589 795 749 840 749 1038 
C 749 1210 627 1280 506 1280 
C 358 1280 262 1190 262 1011 
C 262 454 704 -128 1382 -128 
C 2042 -128 2669 440 2669 1264 
C 2669 2030 2170 2624 1549 2624 
C 1222 2624 947 2503 730 2274 
L 730 3692 
z
" transform="scale(0.015625)"/>
       </defs>
       <use xlink:href="#CMR17-31" transform="scale(0.996264)"/>
       <use xlink:href="#CMR17-39" transform="translate(45.690477 0) scale(0.996264)"/>
       <use xlink:href="#CMR17-38" transform="translate(91.380954 0) scale(0.996264)"/>
       <use xlink:href="#CMR17-35" transform="translate(137.071431 0) scale(0.996264)"/>
      </g>
     </g>
    </g>
    <g id="xtick_3">
     <g id="line2d_5">
      <path d="M 226.266388 391.116119 
L 226.266388 29.804405 
" clip-path="url(#pa03e4f44c1)" style="fill: none; stroke: #404040; stroke-opacity: 0.3; stroke-width: 0.75; stroke-linecap: square"/>
     </g>
     <g id="line2d_6">
      <g>
       <use xlink:href="#maf681d5420" x="226.266388" y="391.116119" style="fill: #ffffff; stroke: #ffffff; stroke-width: 0.8"/>
      </g>
     </g>
     <g id="text_3">
      <!-- $\mathdefault{1990}$ -->
      <g style="fill: #ffffff" transform="translate(206.162578 413.336812) scale(0.22 -0.22)">
       <use xlink:href="#CMR17-31" transform="scale(0.996264)"/>
       <use xlink:href="#CMR17-39" transform="translate(45.690477 0) scale(0.996264)"/>
       <use xlink:href="#CMR17-39" transform="translate(91.380954 0) scale(0.996264)"/>
       <use xlink:href="#CMR17-30" transform="translate(137.071431 0) scale(0.996264)"/>
      </g>
     </g>
    </g>
    <g id="xtick_4">
     <g id="line2d_7">
      <path d="M 291.475483 391.116119 
L 291.475483 29.804405 
" clip-path="url(#pa03e4f44c1)" style="fill: none; stroke: #404040; stroke-opacity: 0.3; stroke-width: 0.75; stroke-linecap: square"/>
     </g>
     <g id="line2d_8">
      <g>
       <use xlink:href="#maf681d5420" x="291.475483" y="391.116119" style="fill: #ffffff; stroke: #ffffff; stroke-width: 0.8"/>
      </g>
     </g>
     <g id="text_4">
      <!-- $\mathdefault{1995}$ -->
      <g style="fill: #ffffff" transform="translate(271.371673 413.336812) scale(0.22 -0.22)">
       <use xlink:href="#CMR17-31" transform="scale(0.996264)"/>
       <use xlink:href="#CMR17-39" transform="translate(45.690477 0) scale(0.996264)"/>
       <use xlink:href="#CMR17-39" transform="translate(91.380954 0) scale(0.996264)"/>
       <use xlink:href="#CMR17-35" transform="translate(137.071431 0) scale(0.996264)"/>
      </g>
     </g>
    </g>
    <g id="xtick_5">
     <g id="line2d_9">
      <path d="M 356.684578 391.116119 
L 356.684578 29.804405 
" clip-path="url(#pa03e4f44c1)" style="fill: none; stroke: #404040; stroke-opacity: 0.3; stroke-width: 0.75; stroke-linecap: square"/>
     </g>
     <g id="line2d_10">
      <g>
       <use xlink:href="#maf681d5420" x="356.684578" y="391.116119" style="fill: #ffffff; stroke: #ffffff; stroke-width: 0.8"/>
      </g>
     </g>
     <g id="text_5">
      <!-- $\mathdefault{2000}$ -->
      <g style="fill: #ffffff" transform="translate(336.580768 413.336812) scale(0.22 -0.22)">
       <defs>
        <path id="CMR17-32" d="M 2669 989 
L 2554 989 
C 2490 536 2438 459 2413 420 
C 2381 369 1920 369 1830 369 
L 602 369 
C 832 619 1280 1072 1824 1597 
C 2214 1967 2669 2402 2669 3035 
C 2669 3790 2067 4224 1395 4224 
C 691 4224 262 3604 262 3030 
C 262 2780 448 2748 525 2748 
C 589 2748 781 2787 781 3010 
C 781 3207 614 3264 525 3264 
C 486 3264 448 3258 422 3245 
C 544 3790 915 4058 1306 4058 
C 1862 4058 2227 3617 2227 3035 
C 2227 2479 1901 2000 1536 1584 
L 262 146 
L 262 0 
L 2515 0 
L 2669 989 
z
" transform="scale(0.015625)"/>
       </defs>
       <use xlink:href="#CMR17-32" transform="scale(0.996264)"/>
       <use xlink:href="#CMR17-30" transform="translate(45.690477 0) scale(0.996264)"/>
       <use xlink:href="#CMR17-30" transform="translate(91.380954 0) scale(0.996264)"/>
       <use xlink:href="#CMR17-30" transform="translate(137.071431 0) scale(0.996264)"/>
      </g>
     </g>
    </g>
    <g id="xtick_6">
     <g id="line2d_11">
      <path d="M 421.929385 391.116119 
L 421.929385 29.804405 
" clip-path="url(#pa03e4f44c1)" style="fill: none; stroke: #404040; stroke-opacity: 0.3; stroke-width: 0.75; stroke-linecap: square"/>
     </g>
     <g id="line2d_12">
      <g>
       <use xlink:href="#maf681d5420" x="421.929385" y="391.116119" style="fill: #ffffff; stroke: #ffffff; stroke-width: 0.8"/>
      </g>
     </g>
     <g id="text_6">
      <!-- $\mathdefault{2005}$ -->
      <g style="fill: #ffffff" transform="translate(401.825575 413.336812) scale(0.22 -0.22)">
       <use xlink:href="#CMR17-32" transform="scale(0.996264)"/>
       <use xlink:href="#CMR17-30" transform="translate(45.690477 0) scale(0.996264)"/>
       <use xlink:href="#CMR17-30" transform="translate(91.380954 0) scale(0.996264)"/>
       <use xlink:href="#CMR17-35" transform="translate(137.071431 0) scale(0.996264)"/>
      </g>
     </g>
    </g>
    <g id="xtick_7">
     <g id="line2d_13">
      <path d="M 487.13848 391.116119 
L 487.13848 29.804405 
" clip-path="url(#pa03e4f44c1)" style="fill: none; stroke: #404040; stroke-opacity: 0.3; stroke-width: 0.75; stroke-linecap: square"/>
     </g>
     <g id="line2d_14">
      <g>
       <use xlink:href="#maf681d5420" x="487.13848" y="391.116119" style="fill: #ffffff; stroke: #ffffff; stroke-width: 0.8"/>
      </g>
     </g>
     <g id="text_7">
      <!-- $\mathdefault{2010}$ -->
      <g style="fill: #ffffff" transform="translate(467.03467 413.336812) scale(0.22 -0.22)">
       <use xlink:href="#CMR17-32" transform="scale(0.996264)"/>
       <use xlink:href="#CMR17-30" transform="translate(45.690477 0) scale(0.996264)"/>
       <use xlink:href="#CMR17-31" transform="translate(91.380954 0) scale(0.996264)"/>
       <use xlink:href="#CMR17-30" transform="translate(137.071431 0) scale(0.996264)"/>
      </g>
     </g>
    </g>
    <g id="xtick_8">
     <g id="line2d_15">
      <path d="M 552.347575 391.116119 
L 552.347575 29.804405 
" clip-path="url(#pa03e4f44c1)" style="fill: none; stroke: #404040; stroke-opacity: 0.3; stroke-width: 0.75; stroke-linecap: square"/>
     </g>
     <g id="line2d_16">
      <g>
       <use xlink:href="#maf681d5420" x="552.347575" y="391.116119" style="fill: #ffffff; stroke: #ffffff; stroke-width: 0.8"/>
      </g>
     </g>
     <g id="text_8">
      <!-- $\mathdefault{2015}$ -->
      <g style="fill: #ffffff" transform="translate(532.243765 413.336812) scale(0.22 -0.22)">
       <use xlink:href="#CMR17-32" transform="scale(0.996264)"/>
       <use xlink:href="#CMR17-30" transform="translate(45.690477 0) scale(0.996264)"/>
       <use xlink:href="#CMR17-31" transform="translate(91.380954 0) scale(0.996264)"/>
       <use xlink:href="#CMR17-35" transform="translate(137.071431 0) scale(0.996264)"/>
      </g>
     </g>
    </g>
    <g id="xtick_9">
     <g id="line2d_17">
      <path d="M 617.55667 391.116119 
L 617.55667 29.804405 
" clip-path="url(#pa03e4f44c1)" style="fill: none; stroke: #404040; stroke-opacity: 0.3; stroke-width: 0.75; stroke-linecap: square"/>
     </g>
     <g id="line2d_18">
      <g>
       <use xlink:href="#maf681d5420" x="617.55667" y="391.116119" style="fill: #ffffff; stroke: #ffffff; stroke-width: 0.8"/>
      </g>
     </g>
     <g id="text_9">
      <!-- $\mathdefault{2020}$ -->
      <g style="fill: #ffffff" transform="translate(597.45286 413.336812) scale(0.22 -0.22)">
       <use xlink:href="#CMR17-32" transform="scale(0.996264)"/>
       <use xlink:href="#CMR17-30" transform="translate(45.690477 0) scale(0.996264)"/>
       <use xlink:href="#CMR17-32" transform="translate(91.380954 0) scale(0.996264)"/>
       <use xlink:href="#CMR17-30" transform="translate(137.071431 0) scale(0.996264)"/>
      </g>
     </g>
    </g>
    <g id="xtick_10">
     <g id="line2d_19">
      <path d="M 682.801477 391.116119 
L 682.801477 29.804405 
" clip-path="url(#pa03e4f44c1)" style="fill: none; stroke: #404040; stroke-opacity: 0.3; stroke-width: 0.75; stroke-linecap: square"/>
     </g>
     <g id="line2d_20">
      <g>
       <use xlink:href="#maf681d5420" x="682.801477" y="391.116119" style="fill: #ffffff; stroke: #ffffff; stroke-width: 0.8"/>
      </g>
     </g>
     <g id="text_10">
      <!-- $\mathdefault{2025}$ -->
      <g style="fill: #ffffff" transform="translate(662.697667 413.336812) scale(0.22 -0.22)">
       <use xlink:href="#CMR17-32" transform="scale(0.996264)"/>
       <use xlink:href="#CMR17-30" transform="translate(45.690477 0) scale(0.996264)"/>
       <use xlink:href="#CMR17-32" transform="translate(91.380954 0) scale(0.996264)"/>
       <use xlink:href="#CMR17-35" transform="translate(137.071431 0) scale(0.996264)"/>
      </g>
     </g>
    </g>
   </g>
   <g id="matplotlib.axis_2">
    <g id="ytick_1">
     <g id="line2d_21">
      <path d="M 70.168099 381.362849 
L 705.053277 381.362849 
" clip-path="url(#pa03e4f44c1)" style="fill: none; stroke: #404040; stroke-opacity: 0.3; stroke-width: 0.75; stroke-linecap: square"/>
     </g>
     <g id="line2d_22">
      <defs>
       <path id="mff85796fde" d="M 0 0 
L -3.5 0 
" style="stroke: #ffffff; stroke-width: 0.8"/>
      </defs>
      <g>
       <use xlink:href="#mff85796fde" x="70.168099" y="381.362849" style="fill: #ffffff; stroke: #ffffff; stroke-width: 0.8"/>
      </g>
     </g>
     <g id="text_11">
      <!-- $\mathdefault{−0.4}$ -->
      <g style="fill: #ffffff" transform="translate(20.055677 388.973196) scale(0.22 -0.22)">
       <defs>
        <path id="CMSY10-0" d="M 4218 1472 
C 4326 1472 4442 1472 4442 1600 
C 4442 1728 4326 1728 4218 1728 
L 755 1728 
C 646 1728 531 1728 531 1600 
C 531 1472 646 1472 755 1472 
L 4218 1472 
z
" transform="scale(0.015625)"/>
        <path id="CMMI12-3a" d="M 1178 307 
C 1178 492 1024 619 870 619 
C 685 619 557 466 557 313 
C 557 128 710 0 864 0 
C 1050 0 1178 153 1178 307 
z
" transform="scale(0.015625)"/>
        <path id="CMR17-34" d="M 2150 4122 
C 2150 4256 2144 4256 2029 4256 
L 128 1254 
L 128 1088 
L 1779 1088 
L 1779 457 
C 1779 224 1766 160 1318 160 
L 1197 160 
L 1197 0 
C 1402 0 1747 0 1965 0 
C 2182 0 2528 0 2733 0 
L 2733 160 
L 2611 160 
C 2163 160 2150 224 2150 457 
L 2150 1088 
L 2803 1088 
L 2803 1254 
L 2150 1254 
L 2150 4122 
z
M 1798 3703 
L 1798 1254 
L 256 1254 
L 1798 3703 
z
" transform="scale(0.015625)"/>
       </defs>
       <use xlink:href="#CMSY10-0" transform="scale(0.996264)"/>
       <use xlink:href="#CMR17-30" transform="translate(77.487468 0) scale(0.996264)"/>
       <use xlink:href="#CMMI12-3a" transform="translate(123.177945 0) scale(0.996264)"/>
       <use xlink:href="#CMR17-34" transform="translate(150.275122 0) scale(0.996264)"/>
      </g>
     </g>
    </g>
    <g id="ytick_2">
     <g id="line2d_23">
      <path d="M 70.168099 323.303773 
L 705.053277 323.303773 
" clip-path="url(#pa03e4f44c1)" style="fill: none; stroke: #404040; stroke-opacity: 0.3; stroke-width: 0.75; stroke-linecap: square"/>
     </g>
     <g id="line2d_24">
      <g>
       <use xlink:href="#mff85796fde" x="70.168099" y="323.303773" style="fill: #ffffff; stroke: #ffffff; stroke-width: 0.8"/>
      </g>
     </g>
     <g id="text_12">
      <!-- $\mathdefault{−0.2}$ -->
      <g style="fill: #ffffff" transform="translate(20.055677 330.91412) scale(0.22 -0.22)">
       <use xlink:href="#CMSY10-0" transform="scale(0.996264)"/>
       <use xlink:href="#CMR17-30" transform="translate(77.487468 0) scale(0.996264)"/>
       <use xlink:href="#CMMI12-3a" transform="translate(123.177945 0) scale(0.996264)"/>
       <use xlink:href="#CMR17-32" transform="translate(150.275122 0) scale(0.996264)"/>
      </g>
     </g>
    </g>
    <g id="ytick_3">
     <g id="line2d_25">
      <path d="M 70.168099 265.244697 
L 705.053277 265.244697 
" clip-path="url(#pa03e4f44c1)" style="fill: none; stroke: #404040; stroke-opacity: 0.3; stroke-width: 0.75; stroke-linecap: square"/>
     </g>
     <g id="line2d_26">
      <g>
       <use xlink:href="#mff85796fde" x="70.168099" y="265.244697" style="fill: #ffffff; stroke: #ffffff; stroke-width: 0.8"/>
      </g>
     </g>
     <g id="text_13">
      <!-- $\mathdefault{0.0}$ -->
      <g style="fill: #ffffff" transform="translate(37.10291 272.855044) scale(0.22 -0.22)">
       <use xlink:href="#CMR17-30" transform="scale(0.996264)"/>
       <use xlink:href="#CMMI12-3a" transform="translate(45.690477 0) scale(0.996264)"/>
       <use xlink:href="#CMR17-30" transform="translate(72.787654 0) scale(0.996264)"/>
      </g>
     </g>
    </g>
    <g id="ytick_4">
     <g id="line2d_27">
      <path d="M 70.168099 207.185622 
L 705.053277 207.185622 
" clip-path="url(#pa03e4f44c1)" style="fill: none; stroke: #404040; stroke-opacity: 0.3; stroke-width: 0.75; stroke-linecap: square"/>
     </g>
     <g id="line2d_28">
      <g>
       <use xlink:href="#mff85796fde" x="70.168099" y="207.185622" style="fill: #ffffff; stroke: #ffffff; stroke-width: 0.8"/>
      </g>
     </g>
     <g id="text_14">
      <!-- $\mathdefault{0.2}$ -->
      <g style="fill: #ffffff" transform="translate(37.10291 214.795968) scale(0.22 -0.22)">
       <use xlink:href="#CMR17-30" transform="scale(0.996264)"/>
       <use xlink:href="#CMMI12-3a" transform="translate(45.690477 0) scale(0.996264)"/>
       <use xlink:href="#CMR17-32" transform="translate(72.787654 0) scale(0.996264)"/>
      </g>
     </g>
    </g>
    <g id="ytick_5">
     <g id="line2d_29">
      <path d="M 70.168099 149.126546 
L 705.053277 149.126546 
" clip-path="url(#pa03e4f44c1)" style="fill: none; stroke: #404040; stroke-opacity: 0.3; stroke-width: 0.75; stroke-linecap: square"/>
     </g>
     <g id="line2d_30">
      <g>
       <use xlink:href="#mff85796fde" x="70.168099" y="149.126546" style="fill: #ffffff; stroke: #ffffff; stroke-width: 0.8"/>
      </g>
     </g>
     <g id="text_15">
      <!-- $\mathdefault{0.4}$ -->
      <g style="fill: #ffffff" transform="translate(37.10291 156.736892) scale(0.22 -0.22)">
       <use xlink:href="#CMR17-30" transform="scale(0.996264)"/>
       <use xlink:href="#CMMI12-3a" transform="translate(45.690477 0) scale(0.996264)"/>
       <use xlink:href="#CMR17-34" transform="translate(72.787654 0) scale(0.996264)"/>
      </g>
     </g>
    </g>
    <g id="ytick_6">
     <g id="line2d_31">
      <path d="M 70.168099 91.06747 
L 705.053277 91.06747 
" clip-path="url(#pa03e4f44c1)" style="fill: none; stroke: #404040; stroke-opacity: 0.3; stroke-width: 0.75; stroke-linecap: square"/>
     </g>
     <g id="line2d_32">
      <g>
       <use xlink:href="#mff85796fde" x="70.168099" y="91.06747" style="fill: #ffffff; stroke: #ffffff; stroke-width: 0.8"/>
      </g>
     </g>
     <g id="text_16">
      <!-- $\mathdefault{0.6}$ -->
      <g style="fill: #ffffff" transform="translate(37.10291 98.677816) scale(0.22 -0.22)">
       <defs>
        <path id="CMR17-36" d="M 678 2176 
C 678 3690 1395 4032 1811 4032 
C 1946 4032 2272 4009 2400 3776 
C 2298 3776 2106 3776 2106 3553 
C 2106 3381 2246 3323 2336 3323 
C 2394 3323 2566 3348 2566 3560 
C 2566 3954 2246 4179 1805 4179 
C 1043 4179 243 3390 243 1984 
C 243 253 966 -128 1478 -128 
C 2099 -128 2688 427 2688 1283 
C 2688 2081 2170 2662 1517 2662 
C 1126 2662 838 2407 678 1960 
L 678 2176 
z
M 1478 25 
C 691 25 691 1200 691 1436 
C 691 1896 909 2560 1504 2560 
C 1613 2560 1926 2560 2138 2120 
C 2253 1870 2253 1609 2253 1289 
C 2253 944 2253 690 2118 434 
C 1978 171 1773 25 1478 25 
z
" transform="scale(0.015625)"/>
       </defs>
       <use xlink:href="#CMR17-30" transform="scale(0.996264)"/>
       <use xlink:href="#CMMI12-3a" transform="translate(45.690477 0) scale(0.996264)"/>
       <use xlink:href="#CMR17-36" transform="translate(72.787654 0) scale(0.996264)"/>
      </g>
     </g>
    </g>
    <g id="ytick_7">
     <g id="line2d_33">
      <path d="M 70.168099 33.008394 
L 705.053277 33.008394 
" clip-path="url(#pa03e4f44c1)" style="fill: none; stroke: #404040; stroke-opacity: 0.3; stroke-width: 0.75; stroke-linecap: square"/>
     </g>
     <g id="line2d_34">
      <g>
       <use xlink:href="#mff85796fde" x="70.168099" y="33.008394" style="fill: #ffffff; stroke: #ffffff; stroke-width: 0.8"/>
      </g>
     </g>
     <g id="text_17">
      <!-- $\mathdefault{0.8}$ -->
      <g style="fill: #ffffff" transform="translate(37.10291 40.61874) scale(0.22 -0.22)">
       <use xlink:href="#CMR17-30" transform="scale(0.996264)"/>
       <use xlink:href="#CMMI12-3a" transform="translate(45.690477 0) scale(0.996264)"/>
       <use xlink:href="#CMR17-38" transform="translate(72.787654 0) scale(0.996264)"/>
      </g>
     </g>
    </g>
    <g id="text_18">
     <!-- Value -->
     <g style="fill: #ffffff" transform="translate(14.118498 222.636844) rotate(-90) scale(0.1 -0.1)">
      <defs>
       <path id="CMR17-56" d="M 3776 3745 
C 3834 3886 3936 4160 4365 4160 
L 4365 4332 
C 4218 4319 4051 4319 3891 4319 
C 3738 4319 3475 4319 3328 4332 
L 3328 4160 
C 3648 4160 3661 3936 3661 3898 
C 3661 3827 3642 3783 3622 3732 
L 2362 446 
L 1043 3886 
C 1024 3931 1011 3963 1011 3994 
C 1011 4160 1267 4160 1402 4160 
L 1402 4319 
C 1197 4319 896 4319 685 4319 
C 518 4319 218 4319 64 4332 
L 64 4160 
C 435 4160 506 4135 582 3931 
L 2106 -26 
C 2138 -115 2144 -128 2214 -128 
C 2285 -128 2291 -115 2323 -26 
L 3776 3745 
z
" transform="scale(0.015625)"/>
       <path id="CMR17-61" d="M 2304 1653 
C 2304 2072 2304 2294 2035 2543 
C 1798 2752 1523 2816 1306 2816 
C 800 2816 435 2407 435 1971 
C 435 1728 627 1728 666 1728 
C 749 1728 896 1778 896 1954 
C 896 2112 774 2181 666 2181 
C 640 2181 608 2174 589 2168 
C 723 2592 1069 2714 1293 2714 
C 1613 2714 1965 2429 1965 1885 
L 1965 1600 
C 1587 1600 1133 1549 774 1357 
C 371 1133 256 813 256 570 
C 256 77 832 -64 1171 -64 
C 1523 -64 1850 139 1990 511 
C 2003 233 2182 -18 2464 -18 
C 2598 -18 2938 70 2938 567 
L 2938 920 
L 2822 920 
L 2822 562 
C 2822 178 2650 128 2566 128 
C 2304 128 2304 458 2304 738 
L 2304 1653 
z
M 1965 870 
C 1965 317 1568 38 1216 38 
C 896 38 646 275 646 570 
C 646 761 730 1100 1101 1305 
C 1408 1478 1760 1504 1965 1504 
L 1965 870 
z
" transform="scale(0.015625)"/>
       <path id="CMR17-6c" d="M 979 4396 
L 218 4326 
L 218 4160 
C 595 4160 653 4122 653 3817 
L 653 426 
C 653 184 627 153 218 153 
L 218 -13 
C 371 0 653 0 813 0 
C 979 0 1261 0 1414 -13 
L 1414 153 
C 1005 153 979 178 979 426 
L 979 4396 
z
" transform="scale(0.015625)"/>
       <path id="CMR17-75" d="M 1882 2693 
L 1882 2528 
C 2259 2528 2317 2489 2317 2186 
L 2317 1032 
C 2317 500 2029 38 1555 38 
C 1030 38 986 348 986 678 
L 986 2763 
L 211 2693 
L 211 2528 
C 467 2528 640 2528 646 2274 
L 646 1058 
C 646 633 646 361 813 183 
C 896 101 1056 -64 1517 -64 
C 2061 -64 2272 377 2323 506 
L 2330 506 
L 2330 -63 
L 3091 -63 
L 3091 128 
C 2714 128 2656 166 2656 473 
L 2656 2763 
L 1882 2693 
z
" transform="scale(0.015625)"/>
       <path id="CMR17-65" d="M 2438 1472 
C 2464 1498 2464 1511 2464 1576 
C 2464 2238 2118 2816 1389 2816 
C 710 2816 173 2169 173 1383 
C 173 551 781 -64 1459 -64 
C 2176 -64 2458 607 2458 740 
C 2458 784 2419 784 2406 784 
C 2362 784 2355 771 2330 696 
C 2189 265 1837 51 1504 51 
C 1229 51 954 203 781 480 
C 582 803 582 1176 582 1472 
L 2438 1472 
z
M 589 1568 
C 634 2505 1126 2714 1382 2714 
C 1818 2714 2112 2297 2118 1568 
L 589 1568 
z
" transform="scale(0.015625)"/>
      </defs>
      <use xlink:href="#CMR17-56" transform="scale(0.996264)"/>
      <use xlink:href="#CMR17-61" transform="translate(61.265174 0) scale(0.996264)"/>
      <use xlink:href="#CMR17-6c" transform="translate(106.955652 0) scale(0.996264)"/>
      <use xlink:href="#CMR17-75" transform="translate(131.82671 0) scale(0.996264)"/>
      <use xlink:href="#CMR17-65" transform="translate(182.72208 0) scale(0.996264)"/>
     </g>
    </g>
   </g>
   <g id="line2d_35">
    <path d="M 99.026516 103.770667 
L 102.276257 171.76432 
L 105.56171 125.835348 
L 108.847163 114.255023 
L 112.061193 98.384006 
L 115.310934 86.397326 
L 118.596387 46.227665 
L 121.88184 84.09797 
L 125.095869 82.031719 
L 128.345611 77.158328 
L 131.631064 131.22408 
L 134.916516 158.040068 
L 138.130546 154.473146 
L 141.380287 147.453131 
L 144.66574 139.485014 
L 147.951193 132.930286 
L 151.200934 118.874791 
L 154.450676 90.370554 
L 157.736128 117.662617 
L 161.021581 140.058863 
L 164.235611 135.84116 
L 167.485352 166.337061 
L 170.770805 163.59481 
L 174.056258 189.24528 
L 177.270288 221.188736 
L 180.520029 218.31618 
L 183.805482 219.783213 
L 187.090935 225.559779 
L 190.304965 222.839685 
L 193.554706 204.164431 
L 196.840159 179.238031 
L 200.125611 195.989488 
L 203.375353 201.497659 
L 206.625094 195.235227 
L 209.910547 192.065778 
L 213.196 184.564228 
L 216.410029 178.844053 
L 219.659771 205.409641 
L 222.945224 200.40992 
L 226.230676 209.303942 
L 229.444706 194.451282 
L 232.694448 200.013292 
L 235.9799 194.357488 
L 239.265353 209.865113 
L 242.479383 211.864446 
L 245.729124 208.476759 
L 252.30003 243.975731 
L 255.549771 228.054761 
L 258.799512 237.031896 
L 262.084965 253.164621 
L 265.370418 246.031544 
L 268.584448 258.969796 
L 271.834189 265.090302 
L 275.119642 272.167604 
L 278.405095 264.04219 
L 281.619125 243.225504 
L 284.868866 228.871588 
L 288.154319 222.608554 
L 291.439771 213.608526 
L 294.653801 227.530755 
L 297.903543 248.48493 
L 301.188995 249.118492 
L 304.474448 262.359653 
L 307.72419 246.268773 
L 310.973931 240.008234 
L 314.259384 240.216517 
L 317.544836 246.075169 
L 320.758866 234.508804 
L 324.008608 242.663542 
L 327.29406 250.212846 
L 330.579513 257.400774 
L 333.793543 258.163136 
L 337.043284 262.363478 
L 340.328737 283.03309 
L 343.61419 276.837146 
L 346.82822 265.056124 
L 350.077961 254.548895 
L 353.363414 251.098825 
L 356.648867 240.536098 
L 359.898608 246.344324 
L 363.148349 246.805904 
L 366.433802 252.138903 
L 369.719255 267.391623 
L 372.933285 275.526859 
L 376.183026 269.080307 
L 379.468479 288.799151 
L 382.753932 280.984623 
L 385.967961 272.108885 
L 389.217703 286.67949 
L 392.503156 311.944143 
L 395.788608 310.66914 
L 399.002638 311.398759 
L 402.252379 318.824398 
L 405.537832 310.898472 
L 408.823285 304.391035 
L 412.073026 312.522227 
L 415.322768 293.364098 
L 418.60822 301.715892 
L 421.893673 297.752087 
L 425.107703 289.577625 
L 428.357444 299.487946 
L 431.642897 289.514889 
L 434.92835 286.983175 
L 438.14238 276.623355 
L 441.392121 270.56773 
L 444.677574 281.147026 
L 447.963027 279.335875 
L 451.177057 281.082996 
L 454.426798 274.008895 
L 457.712251 286.279251 
L 460.997703 299.704349 
L 464.247445 317.742095 
L 467.497186 303.384935 
L 470.782639 308.743768 
L 474.068092 339.893573 
L 477.282121 334.016564 
L 480.531863 318.743685 
L 483.817316 324.449034 
L 487.102768 315.892935 
L 490.316798 317.610098 
L 493.56654 333.440818 
L 496.851992 342.860259 
L 500.137445 328.719662 
L 503.351475 325.043032 
L 506.601216 331.954404 
L 509.886669 353.598853 
L 513.172122 355.047148 
L 516.421863 348.88965 
L 519.671604 358.335465 
L 522.957057 359.610842 
L 526.24251 357.392981 
L 529.45654 355.898757 
L 532.706281 343.77931 
L 535.991734 342.38921 
L 539.277187 335.337386 
L 542.491217 339.513323 
L 545.740958 342.846715 
L 549.026411 341.674024 
L 552.311863 346.704393 
L 555.525893 351.146753 
L 558.775635 344.154302 
L 562.061087 349.349468 
L 565.34654 342.443819 
L 568.596282 352.923387 
L 571.846023 358.623285 
L 575.131476 355.466289 
L 578.416928 338.894063 
L 581.630958 339.203278 
L 584.8807 340.24538 
L 588.166152 339.548422 
L 591.451605 335.528179 
L 594.665635 328.003256 
L 597.915376 324.653782 
L 601.200829 319.893409 
L 604.486282 327.005778 
L 607.700312 332.877294 
L 610.950053 342.388943 
L 614.235506 348.106123 
L 617.520959 344.615764 
L 620.7707 372.166903 
L 624.020441 374.517466 
L 627.305894 374.692859 
L 630.591347 371.358406 
L 633.805377 357.346523 
L 637.055118 361.219623 
L 640.340571 359.806621 
L 643.626024 356.642497 
L 646.840053 334.146177 
L 650.089795 318.167012 
L 653.375247 296.069696 
L 656.6607 294.639229 
L 659.87473 302.380407 
L 663.124471 292.860605 
L 666.409924 279.211455 
L 669.695377 295.515801 
L 672.945118 288.846943 
L 676.19486 283.27215 
L 676.19486 283.27215 
" clip-path="url(#pa03e4f44c1)" style="fill: none; stroke: #08306b; stroke-width: 1.5; stroke-linecap: square"/>
   </g>
   <g id="line2d_36">
    <path d="M 99.026516 239.720685 
L 102.276257 270.555744 
L 105.56171 259.23073 
L 108.847163 250.137566 
L 112.061193 262.332181 
L 115.310934 252.245534 
L 118.596387 257.521531 
L 121.88184 264.930583 
L 125.095869 257.221236 
L 128.345611 258.296807 
L 131.631064 270.819207 
L 134.916516 270.976674 
L 138.130546 269.773498 
L 141.380287 269.389966 
L 144.66574 272.067011 
L 147.951193 272.477961 
L 151.200934 271.642502 
L 154.450676 273.071642 
L 157.736128 266.245315 
L 161.021581 277.285149 
L 164.235611 275.655069 
L 167.485352 278.079477 
L 170.770805 278.512071 
L 174.056258 271.065608 
L 177.270288 261.544945 
L 180.520029 265.410584 
L 183.805482 272.609271 
L 187.090935 268.730982 
L 190.304965 268.232571 
L 193.554706 269.629561 
L 196.840159 272.180257 
L 200.125611 271.9204 
L 203.375353 273.1338 
L 206.625094 269.303602 
L 209.910547 264.312685 
L 213.196 258.365497 
L 216.410029 253.299243 
L 219.659771 256.718962 
L 222.945224 256.019799 
L 229.444706 258.604057 
L 232.694448 260.001106 
L 235.9799 266.887669 
L 239.265353 267.494184 
L 242.479383 270.219483 
L 245.729124 273.133915 
L 249.014577 273.621434 
L 252.30003 279.001795 
L 255.549771 278.733827 
L 258.799512 283.478872 
L 262.084965 287.294623 
L 265.370418 281.709089 
L 268.584448 280.731522 
L 271.834189 276.042495 
L 275.119642 273.060127 
L 278.405095 274.314513 
L 281.619125 274.744023 
L 288.154319 270.471323 
L 291.439771 261.847939 
L 294.653801 262.98248 
L 297.903543 261.09933 
L 301.188995 260.362034 
L 304.474448 259.750319 
L 307.72419 264.082074 
L 310.973931 263.783502 
L 314.259384 264.058868 
L 317.544836 262.234863 
L 320.758866 263.134727 
L 324.008608 262.125146 
L 327.29406 260.353828 
L 330.579513 256.619225 
L 333.793543 257.090865 
L 337.043284 255.559194 
L 340.328737 256.769876 
L 343.61419 258.127947 
L 346.82822 261.403477 
L 350.077961 262.200292 
L 353.363414 262.73949 
L 356.648867 261.58918 
L 359.898608 253.490222 
L 363.148349 253.737572 
L 366.433802 254.292861 
L 369.719255 254.640293 
L 372.933285 263.705472 
L 376.183026 268.647519 
L 379.468479 274.639213 
L 382.753932 279.668561 
L 385.967961 277.969317 
L 389.217703 278.896178 
L 392.503156 275.951772 
L 395.788608 278.636196 
L 399.002638 278.818228 
L 402.252379 276.987075 
L 405.537832 280.002672 
L 408.823285 280.469477 
L 412.073026 278.08444 
L 415.322768 276.586568 
L 418.60822 271.659254 
L 421.893673 267.622197 
L 425.107703 263.339081 
L 428.357444 257.749806 
L 431.642897 256.729293 
L 434.92835 254.255547 
L 438.14238 255.031119 
L 441.392121 254.392926 
L 444.677574 252.810015 
L 447.963027 252.790763 
L 451.177057 253.820297 
L 454.426798 255.734183 
L 457.712251 260.043067 
L 460.997703 263.280122 
L 464.247445 274.015476 
L 467.497186 269.655055 
L 470.782639 273.803485 
L 474.068092 272.989869 
L 477.282121 274.748406 
L 480.531863 281.067475 
L 483.817316 279.464961 
L 487.102768 282.830215 
L 490.316798 283.126195 
L 493.56654 276.76939 
L 496.851992 273.676683 
L 500.137445 279.931176 
L 503.351475 280.63936 
L 506.601216 280.339072 
L 509.886669 268.214158 
L 513.172122 267.835679 
L 516.421863 270.718601 
L 519.671604 264.635034 
L 522.957057 265.208679 
L 526.24251 266.370279 
L 529.45654 267.658449 
L 532.706281 272.753264 
L 535.991734 274.772024 
L 539.277187 277.799983 
L 542.491217 273.899389 
L 545.740958 271.786622 
L 549.026411 270.491356 
L 552.311863 265.891398 
L 555.525893 264.579368 
L 558.775635 268.430501 
L 562.061087 265.719258 
L 565.34654 263.993458 
L 568.596282 261.528414 
L 571.846023 259.271608 
L 575.131476 259.020538 
L 578.416928 264.41954 
L 581.630958 262.583727 
L 584.8807 260.173916 
L 588.166152 259.684669 
L 591.451605 256.58292 
L 594.665635 256.402632 
L 601.200829 255.304676 
L 604.486282 253.100009 
L 607.700312 252.282222 
L 610.950053 252.514862 
L 614.235506 250.456045 
L 617.520959 254.163983 
L 620.7707 254.739223 
L 624.020441 254.650444 
L 627.305894 255.13677 
L 630.591347 257.564778 
L 633.805377 265.881217 
L 637.055118 262.40797 
L 640.340571 262.513579 
L 643.626024 259.496927 
L 646.840053 255.495595 
L 650.089795 255.018894 
L 653.375247 249.933834 
L 656.6607 247.053121 
L 659.87473 245.498913 
L 663.124471 243.100564 
L 666.409924 249.678039 
L 669.695377 247.727882 
L 672.945118 248.061216 
L 676.19486 249.925572 
L 676.19486 249.925572 
" clip-path="url(#pa03e4f44c1)" style="fill: none; stroke: #125da6; stroke-width: 1.5; stroke-linecap: square"/>
   </g>
   <g id="line2d_37">
    <path d="M 99.026516 253.009026 
L 102.276257 262.584626 
L 105.56171 261.004161 
L 108.847163 256.209259 
L 112.061193 262.48549 
L 115.310934 259.983764 
L 118.596387 263.794452 
L 121.88184 265.118949 
L 125.095869 264.394298 
L 128.345611 264.892304 
L 131.631064 270.869045 
L 134.916516 267.957514 
L 138.130546 266.003673 
L 141.380287 266.396177 
L 144.66574 267.305512 
L 147.951193 267.077737 
L 151.200934 266.994429 
L 154.450676 268.445896 
L 157.736128 267.854932 
L 161.021581 268.587974 
L 164.235611 267.733392 
L 167.485352 267.99622 
L 170.770805 266.238472 
L 174.056258 263.698859 
L 177.270288 265.851308 
L 180.520029 267.079288 
L 183.805482 265.880935 
L 187.090935 263.693335 
L 190.304965 264.279937 
L 193.554706 266.184259 
L 196.840159 266.953052 
L 200.125611 267.113074 
L 203.375353 265.138431 
L 206.625094 265.51317 
L 209.910547 264.578242 
L 213.196 266.270729 
L 216.410029 266.312137 
L 219.659771 263.907907 
L 222.945224 265.027403 
L 226.230676 264.517955 
L 229.444706 266.132025 
L 232.694448 265.833112 
L 235.9799 264.157416 
L 239.265353 264.389664 
L 242.479383 267.215935 
L 245.729124 267.419853 
L 249.014577 265.66074 
L 252.30003 265.355792 
L 255.549771 269.62778 
L 258.799512 265.252734 
L 262.084965 262.619384 
L 265.370418 267.269853 
L 268.584448 264.312491 
L 271.834189 264.453703 
L 278.405095 265.8138 
L 281.619125 267.899336 
L 284.868866 268.097353 
L 288.154319 267.432002 
L 291.439771 269.507205 
L 294.653801 266.352843 
L 297.903543 264.124737 
L 301.188995 264.886189 
L 304.474448 264.684067 
L 307.72419 265.502608 
L 310.973931 266.49814 
L 314.259384 266.889538 
L 317.544836 266.200652 
L 320.758866 266.877855 
L 324.008608 266.505342 
L 327.29406 266.300172 
L 330.579513 265.780181 
L 333.793543 265.677182 
L 337.043284 266.281485 
L 340.328737 262.770348 
L 343.61419 264.162687 
L 346.82822 264.955201 
L 350.077961 265.976706 
L 353.363414 265.414844 
L 356.648867 266.03925 
L 359.898608 267.26835 
L 363.148349 266.143514 
L 366.433802 263.393899 
L 369.719255 262.211607 
L 372.933285 263.411679 
L 376.183026 266.10045 
L 379.468479 264.172985 
L 382.753932 268.419684 
L 385.967961 269.742175 
L 389.217703 266.662129 
L 392.503156 261.154889 
L 395.788608 261.903705 
L 399.002638 262.24658 
L 402.252379 262.09314 
L 405.537832 262.305743 
L 408.823285 264.282303 
L 412.073026 262.987605 
L 415.322768 266.091817 
L 418.60822 264.481805 
L 421.893673 264.788001 
L 425.107703 267.073049 
L 428.357444 266.042799 
L 431.642897 266.516444 
L 434.92835 265.70487 
L 438.14238 265.49845 
L 441.392121 264.928971 
L 444.677574 264.010458 
L 447.963027 264.315093 
L 451.177057 263.263481 
L 454.426798 264.785142 
L 457.712251 263.494155 
L 460.997703 261.436973 
L 464.247445 260.72894 
L 467.497186 264.807046 
L 470.782639 262.60598 
L 474.068092 262.960854 
L 477.282121 261.77936 
L 480.531863 264.755004 
L 483.817316 264.948596 
L 490.316798 264.272848 
L 493.56654 262.523162 
L 496.851992 261.099153 
L 500.137445 261.855432 
L 503.351475 263.396307 
L 506.601216 260.70297 
L 509.886669 262.717013 
L 513.172122 262.542702 
L 516.421863 261.628999 
L 519.671604 262.893636 
L 522.957057 261.952828 
L 526.24251 262.099142 
L 529.45654 261.623101 
L 532.706281 262.799006 
L 535.991734 262.363879 
L 539.277187 262.533674 
L 542.491217 264.886779 
L 545.740958 265.492208 
L 549.026411 267.49051 
L 552.311863 268.80844 
L 555.525893 267.517159 
L 558.775635 267.017717 
L 562.061087 266.909783 
L 565.34654 267.567629 
L 568.596282 266.211698 
L 571.846023 266.70111 
L 575.131476 266.925555 
L 578.416928 267.824546 
L 584.8807 266.944044 
L 588.166152 267.136468 
L 591.451605 268.001413 
L 594.665635 268.519968 
L 597.915376 269.211955 
L 601.200829 268.92026 
L 604.486282 266.104296 
L 607.700312 266.099813 
L 610.950053 265.302534 
L 614.235506 266.233562 
L 617.520959 266.484948 
L 620.7707 266.929066 
L 624.020441 266.429806 
L 627.305894 266.338578 
L 630.591347 265.616876 
L 633.805377 264.656328 
L 637.055118 266.423642 
L 640.340571 266.989007 
L 643.626024 269.55298 
L 646.840053 273.064375 
L 650.089795 269.488786 
L 653.375247 268.456062 
L 656.6607 264.984352 
L 659.87473 263.587046 
L 663.124471 265.928317 
L 666.409924 263.87227 
L 669.695377 262.368446 
L 672.945118 263.688692 
L 676.19486 263.992039 
L 676.19486 263.992039 
" clip-path="url(#pa03e4f44c1)" style="fill: none; stroke: #3b8bc2; stroke-width: 1.5; stroke-linecap: square"/>
   </g>
   <g id="line2d_38">
    <path d="M 99.026516 268.003564 
L 102.276257 267.296505 
L 105.56171 266.90534 
L 108.847163 260.027243 
L 112.061193 263.322899 
L 115.310934 263.050424 
L 118.596387 267.044847 
L 121.88184 266.516874 
L 125.095869 263.810342 
L 128.345611 265.186376 
L 131.631064 268.781992 
L 134.916516 264.108739 
L 138.130546 264.557763 
L 141.380287 264.317858 
L 147.951193 264.511117 
L 151.200934 263.830722 
L 154.450676 266.684237 
L 157.736128 264.640877 
L 161.021581 264.731846 
L 164.235611 265.093873 
L 167.485352 264.601917 
L 170.770805 266.068763 
L 174.056258 265.5427 
L 177.270288 264.748255 
L 180.520029 264.964783 
L 183.805482 265.413921 
L 187.090935 265.640194 
L 193.554706 265.254756 
L 200.125611 266.288315 
L 203.375353 265.810013 
L 206.625094 266.414064 
L 209.910547 265.825008 
L 213.196 265.06061 
L 216.410029 264.977201 
L 219.659771 263.973745 
L 222.945224 264.309306 
L 226.230676 264.063912 
L 229.444706 264.530618 
L 232.694448 264.314499 
L 235.9799 264.727778 
L 239.265353 264.757329 
L 242.479383 264.937548 
L 249.014577 264.607682 
L 252.30003 264.870723 
L 255.549771 264.04489 
L 258.799512 264.827588 
L 262.084965 266.004346 
L 265.370418 263.931428 
L 268.584448 264.95788 
L 271.834189 265.714781 
L 275.119642 265.716081 
L 278.405095 265.582188 
L 281.619125 265.330611 
L 284.868866 266.317007 
L 288.154319 266.117232 
L 291.439771 267.273604 
L 294.653801 265.681335 
L 301.188995 265.742614 
L 304.474448 265.294164 
L 307.72419 266.054805 
L 310.973931 266.007207 
L 314.259384 265.844286 
L 317.544836 265.404258 
L 320.758866 265.684 
L 327.29406 265.57588 
L 330.579513 265.178796 
L 333.793543 265.325673 
L 337.043284 265.303842 
L 340.328737 266.057267 
L 343.61419 265.60256 
L 346.82822 265.982898 
L 350.077961 266.037138 
L 353.363414 265.936645 
L 356.648867 265.948005 
L 359.898608 265.385041 
L 363.148349 265.498423 
L 366.433802 264.839612 
L 369.719255 264.644917 
L 376.183026 264.776159 
L 379.468479 264.668053 
L 382.753932 264.14952 
L 385.967961 265.457647 
L 389.217703 265.106312 
L 392.503156 265.62991 
L 395.788608 265.312825 
L 399.002638 265.176836 
L 402.252379 265.625154 
L 405.537832 265.047911 
L 408.823285 265.210628 
L 412.073026 265.515424 
L 418.60822 266.416938 
L 425.107703 266.485164 
L 428.357444 266.199195 
L 431.642897 266.02437 
L 434.92835 265.536999 
L 438.14238 265.362911 
L 441.392121 265.346856 
L 444.677574 264.8204 
L 447.963027 265.075761 
L 451.177057 264.922014 
L 454.426798 264.988674 
L 457.712251 264.921682 
L 460.997703 264.424664 
L 464.247445 266.313787 
L 470.782639 264.774842 
L 474.068092 264.924713 
L 477.282121 265.902234 
L 480.531863 264.745888 
L 483.817316 264.802551 
L 487.102768 265.198855 
L 490.316798 264.821392 
L 493.56654 264.904451 
L 496.851992 265.817079 
L 500.137445 264.679678 
L 503.351475 264.923437 
L 506.601216 265.781112 
L 509.886669 266.192469 
L 513.172122 266.288443 
L 519.671604 266.733615 
L 522.957057 266.979739 
L 526.24251 266.853294 
L 529.45654 267.034705 
L 532.706281 265.165598 
L 535.991734 265.38656 
L 539.277187 264.13036 
L 542.491217 263.527329 
L 545.740958 263.873189 
L 549.026411 263.575011 
L 552.311863 263.691699 
L 555.525893 264.140027 
L 558.775635 264.153956 
L 562.061087 265.016395 
L 565.34654 264.578126 
L 568.596282 264.991128 
L 571.846023 264.759114 
L 575.131476 264.994657 
L 578.416928 264.281404 
L 581.630958 264.156529 
L 588.166152 264.617941 
L 591.451605 264.520439 
L 594.665635 264.563927 
L 597.915376 265.201216 
L 601.200829 265.410679 
L 604.486282 264.713676 
L 607.700312 264.881091 
L 610.950053 264.703806 
L 614.235506 264.89172 
L 617.520959 264.913009 
L 620.7707 265.291191 
L 624.020441 265.326959 
L 627.305894 265.492501 
L 630.591347 265.372413 
L 633.805377 264.383693 
L 637.055118 264.645463 
L 640.340571 264.157701 
L 643.626024 264.969539 
L 646.840053 266.875538 
L 650.089795 266.977008 
L 653.375247 265.587013 
L 656.6607 265.325446 
L 659.87473 264.633609 
L 663.124471 266.95986 
L 666.409924 265.905749 
L 669.695377 264.291919 
L 672.945118 265.01095 
L 676.19486 265.068129 
L 676.19486 265.068129 
" clip-path="url(#pa03e4f44c1)" style="fill: none; stroke: #75b4d8; stroke-width: 1.5; stroke-linecap: square"/>
   </g>
   <g id="line2d_39">
    <path d="M 99.026516 265.226336 
L 102.276257 263.159979 
L 105.56171 264.563157 
L 108.847163 264.776933 
L 112.061193 264.468701 
L 115.310934 264.769335 
L 118.596387 265.354564 
L 121.88184 266.151244 
L 125.095869 265.471417 
L 128.345611 265.260334 
L 131.631064 266.651932 
L 134.916516 264.940839 
L 138.130546 264.90212 
L 147.951193 265.172884 
L 151.200934 265.52292 
L 154.450676 265.372753 
L 157.736128 265.092564 
L 164.235611 264.949655 
L 167.485352 264.659043 
L 170.770805 264.083128 
L 174.056258 264.894131 
L 177.270288 265.182113 
L 180.520029 264.989154 
L 183.805482 264.980197 
L 190.304965 265.189005 
L 196.840159 265.245495 
L 200.125611 266.392824 
L 203.375353 265.805698 
L 206.625094 265.85421 
L 209.910547 265.650552 
L 213.196 266.291357 
L 216.410029 265.9822 
L 219.659771 265.963288 
L 222.945224 265.806076 
L 229.444706 265.131681 
L 232.694448 265.425974 
L 239.265353 265.50054 
L 242.479383 265.061398 
L 245.729124 265.484087 
L 252.30003 265.567396 
L 255.549771 265.385014 
L 258.799512 265.704763 
L 262.084965 265.379131 
L 265.370418 265.166857 
L 268.584448 265.395237 
L 271.834189 265.025288 
L 275.119642 264.91333 
L 278.405095 265.041313 
L 281.619125 265.385063 
L 284.868866 265.461342 
L 288.154319 264.694573 
L 291.439771 266.300503 
L 294.653801 265.051708 
L 297.903543 264.820686 
L 301.188995 264.728909 
L 304.474448 265.265915 
L 307.72419 264.747845 
L 310.973931 264.852032 
L 314.259384 265.216364 
L 317.544836 264.818423 
L 324.008608 264.733698 
L 327.29406 265.428342 
L 330.579513 264.93832 
L 333.793543 264.896791 
L 337.043284 265.180074 
L 340.328737 264.769296 
L 343.61419 264.90417 
L 346.82822 264.898269 
L 350.077961 265.203027 
L 353.363414 265.293061 
L 356.648867 265.867735 
L 359.898608 265.458805 
L 363.148349 265.851543 
L 366.433802 265.793397 
L 372.933285 265.178542 
L 379.468479 264.916505 
L 382.753932 264.262894 
L 385.967961 264.925307 
L 389.217703 264.492076 
L 392.503156 265.090986 
L 399.002638 264.909676 
L 402.252379 265.105876 
L 408.823285 264.825602 
L 415.322768 264.887608 
L 428.357444 264.948853 
L 431.642897 265.728735 
L 434.92835 265.049599 
L 438.14238 265.101147 
L 441.392121 265.297633 
L 444.677574 265.364435 
L 447.963027 265.242597 
L 451.177057 265.384488 
L 454.426798 265.303336 
L 457.712251 265.639836 
L 460.997703 266.144251 
L 464.247445 265.4938 
L 467.497186 265.244887 
L 470.782639 266.223744 
L 474.068092 266.276438 
L 477.282121 265.68633 
L 480.531863 266.038385 
L 500.137445 265.632716 
L 503.351475 265.339315 
L 506.601216 265.734824 
L 509.886669 265.175444 
L 516.421863 265.103836 
L 519.671604 264.686862 
L 529.45654 264.706784 
L 532.706281 265.316469 
L 535.991734 265.560918 
L 539.277187 266.0137 
L 542.491217 265.408634 
L 545.740958 265.242258 
L 549.026411 264.796306 
L 555.525893 265.110872 
L 558.775635 265.306452 
L 562.061087 265.19831 
L 568.596282 265.29627 
L 571.846023 265.261852 
L 575.131476 265.088779 
L 578.416928 265.329598 
L 581.630958 265.194104 
L 584.8807 265.314361 
L 594.665635 265.191523 
L 597.915376 265.435668 
L 601.200829 265.285021 
L 610.950053 265.212592 
L 620.7707 264.957521 
L 627.305894 264.893546 
L 630.591347 265.149637 
L 633.805377 265.780592 
L 637.055118 265.293956 
L 640.340571 265.243296 
L 643.626024 264.951764 
L 646.840053 264.372959 
L 650.089795 265.975519 
L 653.375247 264.78054 
L 656.6607 264.856167 
L 659.87473 265.223046 
L 663.124471 266.455682 
L 669.695377 265.369405 
L 672.945118 265.184444 
L 676.19486 265.15602 
L 676.19486 265.15602 
" clip-path="url(#pa03e4f44c1)" style="fill: none; stroke: #b7d4ea; stroke-width: 1.5; stroke-linecap: square"/>
   </g>
   <g id="text_19">
    <!-- X -->
    <g style="fill: #ffffff" transform="translate(379.322 23.804405) scale(0.24 -0.24)">
     <defs>
      <path id="CMR17-58" d="M 2336 2398 
L 3283 3753 
C 3379 3886 3571 4160 4096 4160 
L 4096 4332 
C 3949 4319 3706 4319 3552 4319 
C 3341 4319 3078 4319 2918 4332 
L 2918 4166 
C 3123 4147 3174 4020 3174 3918 
C 3174 3843 3142 3792 3098 3728 
L 2253 2513 
L 1306 3887 
C 1261 3956 1254 3975 1254 3994 
C 1254 4052 1325 4160 1536 4160 
L 1536 4319 
C 1331 4319 1018 4319 806 4319 
C 640 4319 320 4319 166 4332 
L 166 4160 
C 518 4160 634 4148 774 3951 
L 2010 2163 
L 896 549 
C 621 153 205 153 83 153 
L 83 -13 
C 230 0 474 0 627 0 
C 800 0 1101 0 1261 -13 
L 1261 153 
C 1062 172 1005 299 1005 401 
C 1005 483 1037 528 1069 572 
L 2093 2048 
L 3206 422 
C 3258 352 3258 333 3258 314 
C 3258 263 3200 153 2976 153 
L 2976 0 
C 3181 0 3494 0 3706 0 
C 3872 0 4192 0 4346 -13 
L 4346 153 
C 3936 153 3872 184 3744 363 
L 2336 2398 
z
" transform="scale(0.015625)"/>
     </defs>
     <use xlink:href="#CMR17-58" transform="scale(0.996264)"/>
    </g>
   </g>
   <g id="legend_1">
    <g id="patch_3">
     <path d="M 631.132989 170.262308 
L 698.053277 170.262308 
Q 700.053277 170.262308 700.053277 168.262308 
L 700.053277 36.804405 
Q 700.053277 34.804405 698.053277 34.804405 
L 631.132989 34.804405 
Q 629.132989 34.804405 629.132989 36.804405 
L 629.132989 168.262308 
Q 629.132989 170.262308 631.132989 170.262308 
z
" style="fill: #1c1c1c; opacity: 0.8; stroke: #cccccc; stroke-linejoin: miter"/>
    </g>
    <g id="line2d_40">
     <path d="M 633.132989 50.525099 
L 643.132989 50.525099 
L 653.132989 50.525099 
" style="fill: none; stroke: #08306b; stroke-width: 1.5; stroke-linecap: square"/>
    </g>
    <g id="text_20">
     <!-- $X_{1,t}$ -->
     <g style="fill: #ffffff" transform="translate(661.132989 54.025099) scale(0.22 -0.22)">
      <defs>
       <path id="CMMI12-58" d="M 3040 2596 
L 2438 3994 
C 2522 4147 2714 4172 2790 4179 
C 2829 4179 2899 4179 2899 4292 
C 2899 4364 2842 4364 2803 4364 
C 2694 4364 2566 4364 2458 4364 
L 2086 4364 
C 1696 4364 1414 4364 1408 4364 
C 1357 4364 1293 4364 1293 4243 
C 1293 4179 1350 4179 1434 4179 
C 1805 4179 1830 4115 1894 3962 
L 2656 2185 
L 1267 693 
C 1037 442 762 198 288 198 
C 211 192 160 192 160 68 
C 160 48 166 0 237 0 
C 326 0 422 0 512 0 
L 813 0 
C 1018 0 1242 0 1440 0 
C 1485 0 1562 0 1562 115 
C 1562 179 1517 185 1478 185 
C 1350 198 1267 268 1267 370 
C 1267 479 1344 557 1530 748 
L 2099 1368 
C 2240 1516 2579 1886 2720 2026 
L 3392 453 
C 3398 441 3424 377 3424 370 
C 3424 313 3283 198 3078 198 
C 3040 198 2970 198 2970 71 
C 2970 0 3034 0 3066 0 
C 3174 0 3302 0 3411 0 
L 4115 0 
C 4230 0 4352 0 4461 0 
C 4506 0 4576 0 4576 130 
C 4576 198 4512 198 4454 198 
C 4070 198 4058 230 3949 465 
L 3104 2441 
L 3917 3316 
C 3981 3381 4128 3542 4186 3606 
C 4461 3896 4717 4160 5235 4160 
C 5299 4179 5363 4179 5363 4292 
C 5363 4364 5306 4364 5280 4364 
C 5190 4364 5094 4364 5005 4364 
L 4710 4364 
C 4506 4364 4282 4364 4083 4364 
C 4038 4364 3962 4364 3962 4249 
C 3962 4185 4006 4179 4045 4179 
C 4147 4167 4256 4116 4256 3994 
L 4250 3982 
C 4243 3937 4230 3873 4160 3797 
L 3040 2596 
z
" transform="scale(0.015625)"/>
       <path id="CMMI12-3b" d="M 1248 -31 
C 1248 343 1126 619 864 619 
C 659 619 557 453 557 313 
C 557 172 653 0 870 0 
C 954 0 1024 26 1082 83 
C 1094 96 1101 96 1107 96 
C 1120 96 1120 5 1120 -27 
C 1120 -240 1082 -659 710 -1080 
C 640 -1157 640 -1170 640 -1183 
C 640 -1216 672 -1248 704 -1248 
C 755 -1248 1248 -771 1248 -31 
z
" transform="scale(0.015625)"/>
       <path id="CMMI12-74" d="M 1286 2566 
L 1875 2566 
C 1997 2566 2061 2566 2061 2681 
C 2061 2752 2022 2752 1894 2752 
L 1331 2752 
L 1568 3692 
C 1594 3781 1594 3794 1594 3840 
C 1594 3943 1510 4000 1427 4000 
C 1376 4000 1229 3981 1178 3775 
L 928 2752 
L 326 2752 
C 198 2752 141 2752 141 2630 
C 141 2566 186 2566 307 2566 
L 877 2566 
L 454 881 
C 403 658 384 594 384 511 
C 384 211 595 -64 954 -64 
C 1600 -64 1946 868 1946 912 
C 1946 951 1920 970 1882 970 
C 1869 970 1843 970 1830 944 
C 1824 938 1818 931 1773 829 
C 1638 511 1344 64 973 64 
C 781 64 768 224 768 364 
C 768 370 768 492 787 568 
L 1286 2566 
z
" transform="scale(0.015625)"/>
      </defs>
      <use xlink:href="#CMMI12-58" transform="scale(0.996264)"/>
      <use xlink:href="#CMR17-31" transform="translate(80.960224 -14.943915) scale(0.697382)"/>
      <use xlink:href="#CMMI12-3b" transform="translate(112.943406 -14.943915) scale(0.697382)"/>
      <use xlink:href="#CMMI12-74" transform="translate(131.911338 -14.943915) scale(0.697382)"/>
     </g>
    </g>
    <g id="line2d_41">
     <path d="M 633.132989 77.016679 
L 643.132989 77.016679 
L 653.132989 77.016679 
" style="fill: none; stroke: #125da6; stroke-width: 1.5; stroke-linecap: square"/>
    </g>
    <g id="text_21">
     <!-- $X_{2,t}$ -->
     <g style="fill: #ffffff" transform="translate(661.132989 80.516679) scale(0.22 -0.22)">
      <use xlink:href="#CMMI12-58" transform="scale(0.996264)"/>
      <use xlink:href="#CMR17-32" transform="translate(80.960224 -14.943915) scale(0.697382)"/>
      <use xlink:href="#CMMI12-3b" transform="translate(112.943406 -14.943915) scale(0.697382)"/>
      <use xlink:href="#CMMI12-74" transform="translate(131.911338 -14.943915) scale(0.697382)"/>
     </g>
    </g>
    <g id="line2d_42">
     <path d="M 633.132989 103.50826 
L 643.132989 103.50826 
L 653.132989 103.50826 
" style="fill: none; stroke: #3b8bc2; stroke-width: 1.5; stroke-linecap: square"/>
    </g>
    <g id="text_22">
     <!-- $X_{3,t}$ -->
     <g style="fill: #ffffff" transform="translate(661.132989 107.00826) scale(0.22 -0.22)">
      <defs>
       <path id="CMR17-33" d="M 1414 2157 
C 1984 2157 2234 1662 2234 1090 
C 2234 320 1824 25 1453 25 
C 1114 25 563 194 390 693 
C 422 680 454 680 486 680 
C 640 680 755 782 755 948 
C 755 1133 614 1216 486 1216 
C 378 1216 211 1165 211 926 
C 211 335 787 -128 1466 -128 
C 2176 -128 2720 430 2720 1085 
C 2720 1707 2208 2157 1600 2227 
C 2086 2328 2554 2756 2554 3329 
C 2554 3820 2048 4179 1472 4179 
C 890 4179 378 3829 378 3329 
C 378 3110 544 3072 627 3072 
C 762 3072 877 3155 877 3321 
C 877 3486 762 3569 627 3569 
C 602 3569 570 3569 544 3557 
C 730 3959 1235 4032 1459 4032 
C 1683 4032 2106 3925 2106 3320 
C 2106 3143 2080 2828 1862 2550 
C 1670 2304 1453 2304 1242 2284 
C 1210 2284 1062 2269 1037 2269 
C 992 2263 966 2257 966 2208 
C 966 2163 973 2157 1101 2157 
L 1414 2157 
z
" transform="scale(0.015625)"/>
      </defs>
      <use xlink:href="#CMMI12-58" transform="scale(0.996264)"/>
      <use xlink:href="#CMR17-33" transform="translate(80.960224 -14.943915) scale(0.697382)"/>
      <use xlink:href="#CMMI12-3b" transform="translate(112.943406 -14.943915) scale(0.697382)"/>
      <use xlink:href="#CMMI12-74" transform="translate(131.911338 -14.943915) scale(0.697382)"/>
     </g>
    </g>
    <g id="line2d_43">
     <path d="M 633.132989 129.999841 
L 643.132989 129.999841 
L 653.132989 129.999841 
" style="fill: none; stroke: #75b4d8; stroke-width: 1.5; stroke-linecap: square"/>
    </g>
    <g id="text_23">
     <!-- $X_{4,t}$ -->
     <g style="fill: #ffffff" transform="translate(661.132989 133.499841) scale(0.22 -0.22)">
      <use xlink:href="#CMMI12-58" transform="scale(0.996264)"/>
      <use xlink:href="#CMR17-34" transform="translate(80.960224 -14.943915) scale(0.697382)"/>
      <use xlink:href="#CMMI12-3b" transform="translate(112.943406 -14.943915) scale(0.697382)"/>
      <use xlink:href="#CMMI12-74" transform="translate(131.911338 -14.943915) scale(0.697382)"/>
     </g>
    </g>
    <g id="line2d_44">
     <path d="M 633.132989 156.491421 
L 643.132989 156.491421 
L 653.132989 156.491421 
" style="fill: none; stroke: #b7d4ea; stroke-width: 1.5; stroke-linecap: square"/>
    </g>
    <g id="text_24">
     <!-- $X_{5,t}$ -->
     <g style="fill: #ffffff" transform="translate(661.132989 159.991421) scale(0.22 -0.22)">
      <use xlink:href="#CMMI12-58" transform="scale(0.996264)"/>
      <use xlink:href="#CMR17-35" transform="translate(80.960224 -14.943915) scale(0.697382)"/>
      <use xlink:href="#CMMI12-3b" transform="translate(112.943406 -14.943915) scale(0.697382)"/>
      <use xlink:href="#CMMI12-74" transform="translate(131.911338 -14.943915) scale(0.697382)"/>
     </g>
    </g>
   </g>
  </g>
 </g>
 <defs>
  <clipPath id="pa03e4f44c1">
   <rect x="70.168099" y="29.804405" width="634.885178" height="361.311714"/>
  </clipPath>
 </defs>
</svg>
