<?xml version="1.0" encoding="utf-8" standalone="no"?>
<!DOCTYPE svg PUBLIC "-//W3C//DTD SVG 1.1//EN"
  "http://www.w3.org/Graphics/SVG/1.1/DTD/svg11.dtd">
<svg xmlns:xlink="http://www.w3.org/1999/xlink" width="712.8pt" height="424.8pt" viewBox="0 0 712.8 424.8" xmlns="http://www.w3.org/2000/svg" version="1.1">
 <metadata>
  <rdf:RDF xmlns:dc="http://purl.org/dc/elements/1.1/" xmlns:cc="http://creativecommons.org/ns#" xmlns:rdf="http://www.w3.org/1999/02/22-rdf-syntax-ns#">
   <cc:Work>
    <dc:type rdf:resource="http://purl.org/dc/dcmitype/StillImage"/>
    <dc:date>2025-01-15T14:51:09.327546</dc:date>
    <dc:format>image/svg+xml</dc:format>
    <dc:creator>
     <cc:Agent>
      <dc:title>Matplotlib v3.10.0, https://matplotlib.org/</dc:title>
     </cc:Agent>
    </dc:creator>
   </cc:Work>
  </rdf:RDF>
 </metadata>
 <defs>
  <style type="text/css">*{stroke-linejoin: round; stroke-linecap: butt}</style>
 </defs>
 <g id="figure_1">
  <g id="patch_1">
   <path d="M 0 424.8 
L 712.8 424.8 
L 712.8 0 
L 0 0 
z
" style="fill: #ffffff"/>
  </g>
  <g id="axes_1">
   <g id="patch_2">
    <path d="M 26.930079 401.744323 
L 705.6 401.744323 
L 705.6 29.804405 
L 26.930079 29.804405 
z
" style="fill: #ffffff"/>
   </g>
   <g id="matplotlib.axis_1">
    <g id="xtick_1">
     <g id="line2d_1">
      <path d="M 57.778712 401.744323 
L 57.778712 29.804405 
" clip-path="url(#p5ea1c87036)" style="fill: none; stroke: #b0b0b0; stroke-width: 0.75; stroke-linecap: square"/>
     </g>
     <g id="line2d_2">
      <defs>
       <path id="m2b3d7693b8" d="M 0 0 
L 0 3.5 
" style="stroke: #000000; stroke-width: 0.8"/>
      </defs>
      <g>
       <use xlink:href="#m2b3d7693b8" x="57.778712" y="401.744323" style="stroke: #000000; stroke-width: 0.8"/>
      </g>
     </g>
     <g id="text_1">
      <!-- $\mathdefault{0}$ -->
      <g transform="translate(55.288044 415.662822) scale(0.1 -0.1)">
       <defs>
        <path id="CMR17-30" d="M 2688 2025 
C 2688 2416 2682 3080 2413 3591 
C 2176 4039 1798 4198 1466 4198 
C 1158 4198 768 4058 525 3597 
C 269 3118 243 2524 243 2025 
C 243 1661 250 1106 448 619 
C 723 -39 1216 -128 1466 -128 
C 1760 -128 2208 -7 2470 600 
C 2662 1042 2688 1559 2688 2025 
z
M 1466 -26 
C 1056 -26 813 325 723 812 
C 653 1188 653 1738 653 2096 
C 653 2588 653 2997 736 3387 
C 858 3929 1216 4096 1466 4096 
C 1728 4096 2067 3923 2189 3400 
C 2272 3036 2278 2607 2278 2096 
C 2278 1680 2278 1169 2202 792 
C 2067 95 1690 -26 1466 -26 
z
" transform="scale(0.015625)"/>
       </defs>
       <use xlink:href="#CMR17-30" transform="scale(0.996264)"/>
      </g>
     </g>
    </g>
    <g id="xtick_2">
     <g id="line2d_3">
      <path d="M 162.350348 401.744323 
L 162.350348 29.804405 
" clip-path="url(#p5ea1c87036)" style="fill: none; stroke: #b0b0b0; stroke-width: 0.75; stroke-linecap: square"/>
     </g>
     <g id="line2d_4">
      <g>
       <use xlink:href="#m2b3d7693b8" x="162.350348" y="401.744323" style="stroke: #000000; stroke-width: 0.8"/>
      </g>
     </g>
     <g id="text_2">
      <!-- $\mathdefault{10}$ -->
      <g transform="translate(157.369013 415.662822) scale(0.1 -0.1)">
       <defs>
        <path id="CMR17-31" d="M 1702 4058 
C 1702 4192 1696 4192 1606 4192 
C 1357 3916 979 3827 621 3827 
C 602 3827 570 3827 563 3808 
C 557 3795 557 3782 557 3648 
C 755 3648 1088 3686 1344 3839 
L 1344 461 
C 1344 236 1331 160 781 160 
L 589 160 
L 589 0 
C 896 0 1216 0 1523 0 
C 1830 0 2150 0 2458 0 
L 2458 160 
L 2266 160 
C 1715 160 1702 230 1702 458 
L 1702 4058 
z
" transform="scale(0.015625)"/>
       </defs>
       <use xlink:href="#CMR17-31" transform="scale(0.996264)"/>
       <use xlink:href="#CMR17-30" transform="translate(45.690477 0) scale(0.996264)"/>
      </g>
     </g>
    </g>
    <g id="xtick_3">
     <g id="line2d_5">
      <path d="M 266.921985 401.744323 
L 266.921985 29.804405 
" clip-path="url(#p5ea1c87036)" style="fill: none; stroke: #b0b0b0; stroke-width: 0.75; stroke-linecap: square"/>
     </g>
     <g id="line2d_6">
      <g>
       <use xlink:href="#m2b3d7693b8" x="266.921985" y="401.744323" style="stroke: #000000; stroke-width: 0.8"/>
      </g>
     </g>
     <g id="text_3">
      <!-- $\mathdefault{20}$ -->
      <g transform="translate(261.94065 415.662822) scale(0.1 -0.1)">
       <defs>
        <path id="CMR17-32" d="M 2669 989 
L 2554 989 
C 2490 536 2438 459 2413 420 
C 2381 369 1920 369 1830 369 
L 602 369 
C 832 619 1280 1072 1824 1597 
C 2214 1967 2669 2402 2669 3035 
C 2669 3790 2067 4224 1395 4224 
C 691 4224 262 3604 262 3030 
C 262 2780 448 2748 525 2748 
C 589 2748 781 2787 781 3010 
C 781 3207 614 3264 525 3264 
C 486 3264 448 3258 422 3245 
C 544 3790 915 4058 1306 4058 
C 1862 4058 2227 3617 2227 3035 
C 2227 2479 1901 2000 1536 1584 
L 262 146 
L 262 0 
L 2515 0 
L 2669 989 
z
" transform="scale(0.015625)"/>
       </defs>
       <use xlink:href="#CMR17-32" transform="scale(0.996264)"/>
       <use xlink:href="#CMR17-30" transform="translate(45.690477 0) scale(0.996264)"/>
      </g>
     </g>
    </g>
    <g id="xtick_4">
     <g id="line2d_7">
      <path d="M 371.493621 401.744323 
L 371.493621 29.804405 
" clip-path="url(#p5ea1c87036)" style="fill: none; stroke: #b0b0b0; stroke-width: 0.75; stroke-linecap: square"/>
     </g>
     <g id="line2d_8">
      <g>
       <use xlink:href="#m2b3d7693b8" x="371.493621" y="401.744323" style="stroke: #000000; stroke-width: 0.8"/>
      </g>
     </g>
     <g id="text_4">
      <!-- $\mathdefault{30}$ -->
      <g transform="translate(366.512286 415.662822) scale(0.1 -0.1)">
       <defs>
        <path id="CMR17-33" d="M 1414 2157 
C 1984 2157 2234 1662 2234 1090 
C 2234 320 1824 25 1453 25 
C 1114 25 563 194 390 693 
C 422 680 454 680 486 680 
C 640 680 755 782 755 948 
C 755 1133 614 1216 486 1216 
C 378 1216 211 1165 211 926 
C 211 335 787 -128 1466 -128 
C 2176 -128 2720 430 2720 1085 
C 2720 1707 2208 2157 1600 2227 
C 2086 2328 2554 2756 2554 3329 
C 2554 3820 2048 4179 1472 4179 
C 890 4179 378 3829 378 3329 
C 378 3110 544 3072 627 3072 
C 762 3072 877 3155 877 3321 
C 877 3486 762 3569 627 3569 
C 602 3569 570 3569 544 3557 
C 730 3959 1235 4032 1459 4032 
C 1683 4032 2106 3925 2106 3320 
C 2106 3143 2080 2828 1862 2550 
C 1670 2304 1453 2304 1242 2284 
C 1210 2284 1062 2269 1037 2269 
C 992 2263 966 2257 966 2208 
C 966 2163 973 2157 1101 2157 
L 1414 2157 
z
" transform="scale(0.015625)"/>
       </defs>
       <use xlink:href="#CMR17-33" transform="scale(0.996264)"/>
       <use xlink:href="#CMR17-30" transform="translate(45.690477 0) scale(0.996264)"/>
      </g>
     </g>
    </g>
    <g id="xtick_5">
     <g id="line2d_9">
      <path d="M 476.065258 401.744323 
L 476.065258 29.804405 
" clip-path="url(#p5ea1c87036)" style="fill: none; stroke: #b0b0b0; stroke-width: 0.75; stroke-linecap: square"/>
     </g>
     <g id="line2d_10">
      <g>
       <use xlink:href="#m2b3d7693b8" x="476.065258" y="401.744323" style="stroke: #000000; stroke-width: 0.8"/>
      </g>
     </g>
     <g id="text_5">
      <!-- $\mathdefault{40}$ -->
      <g transform="translate(471.083923 415.662822) scale(0.1 -0.1)">
       <defs>
        <path id="CMR17-34" d="M 2150 4122 
C 2150 4256 2144 4256 2029 4256 
L 128 1254 
L 128 1088 
L 1779 1088 
L 1779 457 
C 1779 224 1766 160 1318 160 
L 1197 160 
L 1197 0 
C 1402 0 1747 0 1965 0 
C 2182 0 2528 0 2733 0 
L 2733 160 
L 2611 160 
C 2163 160 2150 224 2150 457 
L 2150 1088 
L 2803 1088 
L 2803 1254 
L 2150 1254 
L 2150 4122 
z
M 1798 3703 
L 1798 1254 
L 256 1254 
L 1798 3703 
z
" transform="scale(0.015625)"/>
       </defs>
       <use xlink:href="#CMR17-34" transform="scale(0.996264)"/>
       <use xlink:href="#CMR17-30" transform="translate(45.690477 0) scale(0.996264)"/>
      </g>
     </g>
    </g>
    <g id="xtick_6">
     <g id="line2d_11">
      <path d="M 580.636894 401.744323 
L 580.636894 29.804405 
" clip-path="url(#p5ea1c87036)" style="fill: none; stroke: #b0b0b0; stroke-width: 0.75; stroke-linecap: square"/>
     </g>
     <g id="line2d_12">
      <g>
       <use xlink:href="#m2b3d7693b8" x="580.636894" y="401.744323" style="stroke: #000000; stroke-width: 0.8"/>
      </g>
     </g>
     <g id="text_6">
      <!-- $\mathdefault{50}$ -->
      <g transform="translate(575.655559 415.662822) scale(0.1 -0.1)">
       <defs>
        <path id="CMR17-35" d="M 730 3692 
C 794 3666 1056 3584 1325 3584 
C 1920 3584 2246 3911 2432 4100 
C 2432 4157 2432 4192 2394 4192 
C 2387 4192 2374 4192 2323 4163 
C 2099 4058 1837 3973 1517 3973 
C 1325 3973 1037 3999 723 4139 
C 653 4171 640 4171 634 4171 
C 602 4171 595 4164 595 4037 
L 595 2203 
C 595 2089 595 2057 659 2057 
C 691 2057 704 2070 736 2114 
C 941 2401 1222 2522 1542 2522 
C 1766 2522 2246 2382 2246 1289 
C 2246 1085 2246 715 2054 421 
C 1894 159 1645 25 1370 25 
C 947 25 518 320 403 814 
C 429 807 480 795 506 795 
C 589 795 749 840 749 1038 
C 749 1210 627 1280 506 1280 
C 358 1280 262 1190 262 1011 
C 262 454 704 -128 1382 -128 
C 2042 -128 2669 440 2669 1264 
C 2669 2030 2170 2624 1549 2624 
C 1222 2624 947 2503 730 2274 
L 730 3692 
z
" transform="scale(0.015625)"/>
       </defs>
       <use xlink:href="#CMR17-35" transform="scale(0.996264)"/>
       <use xlink:href="#CMR17-30" transform="translate(45.690477 0) scale(0.996264)"/>
      </g>
     </g>
    </g>
    <g id="xtick_7">
     <g id="line2d_13">
      <path d="M 685.208531 401.744323 
L 685.208531 29.804405 
" clip-path="url(#p5ea1c87036)" style="fill: none; stroke: #b0b0b0; stroke-width: 0.75; stroke-linecap: square"/>
     </g>
     <g id="line2d_14">
      <g>
       <use xlink:href="#m2b3d7693b8" x="685.208531" y="401.744323" style="stroke: #000000; stroke-width: 0.8"/>
      </g>
     </g>
     <g id="text_7">
      <!-- $\mathdefault{60}$ -->
      <g transform="translate(680.227196 415.662822) scale(0.1 -0.1)">
       <defs>
        <path id="CMR17-36" d="M 678 2176 
C 678 3690 1395 4032 1811 4032 
C 1946 4032 2272 4009 2400 3776 
C 2298 3776 2106 3776 2106 3553 
C 2106 3381 2246 3323 2336 3323 
C 2394 3323 2566 3348 2566 3560 
C 2566 3954 2246 4179 1805 4179 
C 1043 4179 243 3390 243 1984 
C 243 253 966 -128 1478 -128 
C 2099 -128 2688 427 2688 1283 
C 2688 2081 2170 2662 1517 2662 
C 1126 2662 838 2407 678 1960 
L 678 2176 
z
M 1478 25 
C 691 25 691 1200 691 1436 
C 691 1896 909 2560 1504 2560 
C 1613 2560 1926 2560 2138 2120 
C 2253 1870 2253 1609 2253 1289 
C 2253 944 2253 690 2118 434 
C 1978 171 1773 25 1478 25 
z
" transform="scale(0.015625)"/>
       </defs>
       <use xlink:href="#CMR17-36" transform="scale(0.996264)"/>
       <use xlink:href="#CMR17-30" transform="translate(45.690477 0) scale(0.996264)"/>
      </g>
     </g>
    </g>
   </g>
   <g id="matplotlib.axis_2">
    <g id="ytick_1">
     <g id="line2d_15">
      <path d="M 26.930079 347.188524 
L 705.6 347.188524 
" clip-path="url(#p5ea1c87036)" style="fill: none; stroke: #b0b0b0; stroke-width: 0.75; stroke-linecap: square"/>
     </g>
     <g id="line2d_16">
      <defs>
       <path id="m9a74bf968a" d="M 0 0 
L -3.5 0 
" style="stroke: #000000; stroke-width: 0.8"/>
      </defs>
      <g>
       <use xlink:href="#m9a74bf968a" x="26.930079" y="347.188524" style="stroke: #000000; stroke-width: 0.8"/>
      </g>
     </g>
     <g id="text_8">
      <!-- $\mathdefault{−5}$ -->
      <g transform="translate(7.2 350.647773) scale(0.1 -0.1)">
       <defs>
        <path id="CMSY10-0" d="M 4218 1472 
C 4326 1472 4442 1472 4442 1600 
C 4442 1728 4326 1728 4218 1728 
L 755 1728 
C 646 1728 531 1728 531 1600 
C 531 1472 646 1472 755 1472 
L 4218 1472 
z
" transform="scale(0.015625)"/>
       </defs>
       <use xlink:href="#CMSY10-0" transform="scale(0.996264)"/>
       <use xlink:href="#CMR17-35" transform="translate(77.487468 0) scale(0.996264)"/>
      </g>
     </g>
    </g>
    <g id="ytick_2">
     <g id="line2d_17">
      <path d="M 26.930079 280.837598 
L 705.6 280.837598 
" clip-path="url(#p5ea1c87036)" style="fill: none; stroke: #b0b0b0; stroke-width: 0.75; stroke-linecap: square"/>
     </g>
     <g id="line2d_18">
      <g>
       <use xlink:href="#m9a74bf968a" x="26.930079" y="280.837598" style="stroke: #000000; stroke-width: 0.8"/>
      </g>
     </g>
     <g id="text_9">
      <!-- $\mathdefault{0}$ -->
      <g transform="translate(14.948744 284.296847) scale(0.1 -0.1)">
       <use xlink:href="#CMR17-30" transform="scale(0.996264)"/>
      </g>
     </g>
    </g>
    <g id="ytick_3">
     <g id="line2d_19">
      <path d="M 26.930079 214.486672 
L 705.6 214.486672 
" clip-path="url(#p5ea1c87036)" style="fill: none; stroke: #b0b0b0; stroke-width: 0.75; stroke-linecap: square"/>
     </g>
     <g id="line2d_20">
      <g>
       <use xlink:href="#m9a74bf968a" x="26.930079" y="214.486672" style="stroke: #000000; stroke-width: 0.8"/>
      </g>
     </g>
     <g id="text_10">
      <!-- $\mathdefault{5}$ -->
      <g transform="translate(14.948744 217.945921) scale(0.1 -0.1)">
       <use xlink:href="#CMR17-35" transform="scale(0.996264)"/>
      </g>
     </g>
    </g>
    <g id="ytick_4">
     <g id="line2d_21">
      <path d="M 26.930079 148.135747 
L 705.6 148.135747 
" clip-path="url(#p5ea1c87036)" style="fill: none; stroke: #b0b0b0; stroke-width: 0.75; stroke-linecap: square"/>
     </g>
     <g id="line2d_22">
      <g>
       <use xlink:href="#m9a74bf968a" x="26.930079" y="148.135747" style="stroke: #000000; stroke-width: 0.8"/>
      </g>
     </g>
     <g id="text_11">
      <!-- $\mathdefault{10}$ -->
      <g transform="translate(9.967408 151.594996) scale(0.1 -0.1)">
       <use xlink:href="#CMR17-31" transform="scale(0.996264)"/>
       <use xlink:href="#CMR17-30" transform="translate(45.690477 0) scale(0.996264)"/>
      </g>
     </g>
    </g>
    <g id="ytick_5">
     <g id="line2d_23">
      <path d="M 26.930079 81.784821 
L 705.6 81.784821 
" clip-path="url(#p5ea1c87036)" style="fill: none; stroke: #b0b0b0; stroke-width: 0.75; stroke-linecap: square"/>
     </g>
     <g id="line2d_24">
      <g>
       <use xlink:href="#m9a74bf968a" x="26.930079" y="81.784821" style="stroke: #000000; stroke-width: 0.8"/>
      </g>
     </g>
     <g id="text_12">
      <!-- $\mathdefault{15}$ -->
      <g transform="translate(9.967408 85.24407) scale(0.1 -0.1)">
       <use xlink:href="#CMR17-31" transform="scale(0.996264)"/>
       <use xlink:href="#CMR17-35" transform="translate(45.690477 0) scale(0.996264)"/>
      </g>
     </g>
    </g>
   </g>
   <g id="line2d_25">
    <path d="M 57.778712 282.678121 
L 68.235875 284.609404 
L 78.693039 286.575445 
L 89.150203 288.548047 
L 99.607366 290.511788 
L 110.06453 292.457525 
L 120.521694 294.379551 
L 130.978857 296.274321 
L 141.436021 298.13984 
L 151.893185 299.975331 
L 162.350348 301.781015 
L 172.807512 303.557947 
L 183.264676 305.30786 
L 193.721839 307.033025 
L 204.179003 308.736124 
L 214.636167 310.420113 
L 225.09333 312.088115 
L 235.550494 313.743301 
L 246.007657 315.388799 
L 256.464821 317.027605 
L 266.921985 318.66251 
L 277.379148 320.296041 
L 287.836312 321.930412 
L 298.293476 323.567492 
L 308.750639 325.208779 
L 319.207803 326.855392 
L 329.664967 328.508069 
L 340.12213 330.16718 
L 350.579294 331.832738 
L 361.036458 333.50443 
L 371.493621 335.181643 
L 381.950785 336.863502 
L 392.407949 338.548905 
L 402.865112 340.236568 
L 413.322276 341.925058 
L 423.77944 343.612841 
L 434.236603 345.29832 
L 444.693767 346.979869 
L 455.150931 348.655872 
L 465.608094 350.324752 
L 476.065258 351.985003 
L 486.522421 353.63521 
L 496.979585 355.27407 
L 507.436749 356.900411 
L 517.893912 358.513199 
L 528.351076 360.11155 
L 538.80824 361.69473 
L 549.265403 363.262159 
L 559.722567 364.813403 
L 570.179731 366.348176 
L 580.636894 367.866321 
L 591.094058 369.36781 
L 601.551222 370.852725 
L 612.008385 372.321248 
L 622.465549 373.773645 
L 632.922713 375.210255 
L 643.379876 376.63147 
L 653.83704 378.037726 
L 664.294204 379.429487 
L 674.751367 380.807231 
" clip-path="url(#p5ea1c87036)" style="fill: none; stroke: #b7d4ea; stroke-width: 1.5; stroke-linecap: square"/>
   </g>
   <g id="line2d_26">
    <path d="M 57.778712 284.665982 
L 68.235875 288.22436 
L 78.693039 291.312743 
L 89.150203 293.865289 
L 99.607366 295.873523 
L 110.06453 297.35324 
L 120.521694 298.330196 
L 130.978857 298.833893 
L 141.436021 298.894843 
L 151.893185 298.543338 
L 162.350348 297.808866 
L 172.807512 296.719821 
L 183.264676 295.303337 
L 193.721839 293.585187 
L 204.179003 291.589719 
L 214.636167 289.339822 
L 225.09333 286.856903 
L 235.550494 284.160885 
L 246.007657 281.270222 
L 256.464821 278.201929 
L 266.921985 274.971622 
L 277.379148 271.593572 
L 287.836312 268.080769 
L 298.293476 264.444996 
L 308.750639 260.696905 
L 319.207803 256.846107 
L 329.664967 252.901255 
L 340.12213 248.870135 
L 350.579294 244.759756 
L 361.036458 240.576442 
L 371.493621 236.32591 
L 381.950785 232.013359 
L 392.407949 227.643542 
L 402.865112 223.22084 
L 413.322276 218.749326 
L 423.77944 214.232825 
L 434.236603 209.674961 
L 444.693767 205.079204 
L 455.150931 200.44891 
L 465.608094 195.787343 
L 476.065258 191.097706 
L 486.522421 186.383156 
L 496.979585 181.646814 
L 507.436749 176.891774 
L 517.893912 172.121105 
L 528.351076 167.337845 
L 538.80824 162.545002 
L 549.265403 157.745544 
L 559.722567 152.942388 
L 570.179731 148.138391 
L 580.636894 143.336336 
L 591.094058 138.538923 
L 601.551222 133.748757 
L 612.008385 128.968334 
L 622.465549 124.200033 
L 632.922713 119.446109 
L 643.379876 114.708679 
L 653.83704 109.989726 
L 664.294204 105.291084 
L 674.751367 100.614444 
" clip-path="url(#p5ea1c87036)" style="fill: none; stroke: #75b4d8; stroke-width: 1.5; stroke-linecap: square"/>
   </g>
   <g id="line2d_27">
    <path d="M 57.778712 287.532436 
L 68.235875 288.787727 
L 78.693039 287.481398 
L 89.150203 284.859814 
L 99.607366 281.478776 
L 110.06453 277.606576 
L 120.521694 273.395468 
L 130.978857 268.953489 
L 141.436021 264.373464 
L 151.893185 259.743703 
L 162.350348 255.15096 
L 172.807512 250.680233 
L 183.264676 246.413396 
L 193.721839 242.427511 
L 204.179003 238.79322 
L 214.636167 235.573359 
L 225.09333 232.821872 
L 235.550494 230.583037 
L 246.007657 228.891002 
L 256.464821 227.769623 
L 266.921985 227.232558 
L 277.379148 227.283618 
L 287.836312 227.917316 
L 298.293476 229.119596 
L 308.750639 230.868701 
L 319.207803 233.136149 
L 329.664967 235.88778 
L 340.12213 239.084845 
L 350.579294 242.685108 
L 361.036458 246.64393 
L 371.493621 250.915315 
L 381.950785 255.452898 
L 392.407949 260.21085 
L 402.865112 265.144701 
L 413.322276 270.212054 
L 423.77944 275.373194 
L 434.236603 280.591589 
L 444.693767 285.834269 
L 455.150931 291.072103 
L 465.608094 296.279965 
L 476.065258 301.436801 
L 486.522421 306.5256 
L 496.979585 311.533288 
L 507.436749 316.450545 
L 517.893912 321.271557 
L 528.351076 325.993727 
L 538.80824 330.617333 
L 549.265403 335.145172 
L 559.722567 339.582178 
L 570.179731 343.935032 
L 580.636894 348.211781 
L 591.094058 352.421461 
L 601.551222 356.573741 
L 612.008385 360.678587 
L 622.465549 364.745962 
L 632.922713 368.785552 
L 643.379876 372.806531 
L 653.83704 376.817362 
L 664.294204 380.82564 
L 674.751367 384.837963 
" clip-path="url(#p5ea1c87036)" style="fill: none; stroke: #3b8bc2; stroke-width: 1.5; stroke-linecap: square"/>
   </g>
   <g id="line2d_28">
    <path d="M 57.778712 288.239563 
L 68.235875 285.828496 
L 78.693039 279.887004 
L 89.150203 273.230274 
L 99.607366 267.141445 
L 110.06453 262.207623 
L 120.521694 258.68313 
L 130.978857 256.649634 
L 141.436021 256.089101 
L 151.893185 256.91937 
L 162.350348 259.013699 
L 172.807512 262.213348 
L 183.264676 266.337024 
L 193.721839 271.188772 
L 204.179003 276.5649 
L 214.636167 282.260165 
L 225.09333 288.073264 
L 235.550494 293.811632 
L 246.007657 299.295518 
L 256.464821 304.361344 
L 266.921985 308.864323 
L 277.379148 312.680382 
L 287.836312 315.707387 
L 298.293476 317.86573 
L 308.750639 319.098326 
L 319.207803 319.370072 
L 329.664967 318.666838 
L 340.12213 316.994067 
L 350.579294 314.375036 
L 361.036458 310.84888 
L 371.493621 306.468415 
L 381.950785 301.29786 
L 392.407949 295.410502 
L 402.865112 288.886369 
L 413.322276 281.809964 
L 423.77944 274.268109 
L 434.236603 266.347932 
L 444.693767 258.135036 
L 455.150931 249.711866 
L 465.608094 241.156305 
L 476.065258 232.540495 
L 486.522421 223.929898 
L 496.979585 215.382596 
L 507.436749 206.948809 
L 517.893912 198.670648 
L 528.351076 190.58205 
L 538.80824 182.708918 
L 549.265403 175.06941 
L 559.722567 167.674375 
L 570.179731 160.527909 
L 580.636894 153.628005 
L 591.094058 146.967267 
L 601.551222 140.53368 
L 612.008385 134.311403 
L 622.465549 128.281562 
L 632.922713 122.423041 
L 643.379876 116.713234 
L 653.83704 111.128756 
L 664.294204 105.6461 
L 674.751367 100.242233 
" clip-path="url(#p5ea1c87036)" style="fill: none; stroke: #125da6; stroke-width: 1.5; stroke-linecap: square"/>
   </g>
   <g id="line2d_29">
    <path d="M 57.778712 286.233001 
L 68.235875 278.888452 
L 78.693039 269.649438 
L 89.150203 262.455526 
L 99.607366 258.318612 
L 110.06453 257.044538 
L 120.521694 257.981217 
L 130.978857 260.345703 
L 141.436021 263.368093 
L 151.893185 266.354801 
L 162.350348 268.71547 
L 172.807512 269.972748 
L 183.264676 269.76339 
L 193.721839 267.834515 
L 204.179003 264.036876 
L 214.636167 258.316133 
L 225.09333 250.70276 
L 235.550494 241.301048 
L 246.007657 230.277579 
L 256.464821 217.849495 
L 266.921985 204.272867 
L 277.379148 189.83139 
L 287.836312 174.825656 
L 298.293476 159.56317 
L 308.750639 144.34926 
L 319.207803 129.479007 
L 329.664967 115.230267 
L 340.12213 101.857834 
L 350.579294 89.588762 
L 361.036458 78.618842 
L 371.493621 69.110185 
L 381.950785 61.189871 
L 392.407949 54.949575 
L 402.865112 50.446083 
L 413.322276 47.702607 
L 423.77944 46.710765 
L 434.236603 47.433147 
L 444.693767 49.806315 
L 455.150931 53.744149 
L 465.608094 59.141415 
L 476.065258 65.877452 
L 486.522421 73.819884 
L 496.979585 82.828267 
L 507.436749 92.757586 
L 517.893912 103.461547 
L 528.351076 114.795603 
L 538.80824 126.619663 
L 549.265403 138.800459 
L 559.722567 151.213557 
L 570.179731 163.744977 
L 580.636894 176.292444 
L 591.094058 188.766272 
L 601.551222 201.089883 
L 612.008385 213.200001 
L 622.465549 225.046536 
L 632.922713 236.592196 
L 643.379876 247.811858 
L 653.83704 258.691739 
L 664.294204 269.228397 
L 674.751367 279.427613 
" clip-path="url(#p5ea1c87036)" style="fill: none; stroke: #08306b; stroke-width: 1.5; stroke-linecap: square"/>
   </g>
   <g id="text_13">
    <!-- B -->
    <g transform="translate(358.442392 23.804405) scale(0.24 -0.24)">
     <defs>
      <path id="CMR17-42" d="M 333 4352 
L 333 4186 
C 774 4186 845 4186 845 3900 
L 845 452 
C 845 166 774 166 333 166 
L 333 0 
L 2534 0 
C 3354 0 3885 583 3885 1164 
C 3885 1741 3360 2233 2675 2233 
C 3290 2356 3718 2771 3718 3264 
C 3718 3802 3194 4352 2368 4352 
L 333 4352 
z
M 1248 2304 
L 1248 3937 
C 1248 4155 1261 4186 1517 4186 
L 2336 4186 
C 2970 4186 3251 3674 3251 3277 
C 3251 2791 2861 2304 2170 2304 
L 1248 2304 
z
M 1517 166 
C 1261 166 1248 197 1248 413 
L 1248 2202 
L 2432 2202 
C 3091 2202 3411 1625 3411 1162 
C 3411 699 3046 166 2349 166 
L 1517 166 
z
" transform="scale(0.015625)"/>
     </defs>
     <use xlink:href="#CMR17-42" transform="scale(0.996264)"/>
    </g>
   </g>
   <g id="legend_1">
    <g id="patch_3">
     <path d="M 42.330079 200.720344 
L 136.54513 200.720344 
Q 140.94513 200.720344 140.94513 196.320344 
L 140.94513 45.204405 
Q 140.94513 40.804405 136.54513 40.804405 
L 42.330079 40.804405 
Q 37.930079 40.804405 37.930079 45.204405 
L 37.930079 196.320344 
Q 37.930079 200.720344 42.330079 200.720344 
z
" style="fill: #ffffff; opacity: 0.8; stroke: #cccccc; stroke-linejoin: miter"/>
    </g>
    <g id="line2d_30">
     <path d="M 46.730079 57.304405 
L 68.730079 57.304405 
L 90.730079 57.304405 
" style="fill: none; stroke: #b7d4ea; stroke-width: 1.5; stroke-linecap: square"/>
    </g>
    <g id="text_14">
     <!-- $B_{1}$ -->
     <g transform="translate(108.330079 65.004405) scale(0.22 -0.22)">
      <defs>
       <path id="CMMI12-42" d="M 2342 3921 
C 2400 4160 2426 4160 2675 4160 
L 3507 4160 
C 4230 4160 4230 3544 4230 3485 
C 4230 2966 3712 2304 2867 2304 
L 1946 2304 
L 2342 3921 
z
M 3424 2275 
C 4122 2402 4755 2886 4755 3473 
C 4755 3970 4314 4352 3590 4352 
L 1536 4352 
C 1414 4352 1357 4352 1357 4226 
C 1357 4160 1414 4160 1510 4160 
C 1901 4160 1901 4112 1901 4044 
C 1901 4032 1901 3993 1875 3897 
L 1011 472 
C 954 249 941 185 493 185 
C 371 185 307 185 307 70 
C 307 0 346 0 474 0 
L 2669 0 
C 3648 0 4403 739 4403 1383 
C 4403 1906 3942 2224 3424 2275 
z
M 2515 185 
L 1651 185 
C 1562 185 1549 185 1510 192 
C 1440 198 1434 211 1434 261 
C 1434 305 1446 343 1459 399 
L 1907 2176 
L 3110 2176 
C 3866 2176 3866 1483 3866 1433 
C 3866 828 3309 185 2515 185 
z
" transform="scale(0.015625)"/>
      </defs>
      <use xlink:href="#CMMI12-42" transform="scale(0.996264)"/>
      <use xlink:href="#CMR17-31" transform="translate(74.10802 -14.943915) scale(0.697382)"/>
     </g>
    </g>
    <g id="line2d_31">
     <path d="M 46.730079 87.967593 
L 68.730079 87.967593 
L 90.730079 87.967593 
" style="fill: none; stroke: #75b4d8; stroke-width: 1.5; stroke-linecap: square"/>
    </g>
    <g id="text_15">
     <!-- $B_{2}$ -->
     <g transform="translate(108.330079 95.667593) scale(0.22 -0.22)">
      <use xlink:href="#CMMI12-42" transform="scale(0.996264)"/>
      <use xlink:href="#CMR17-32" transform="translate(74.10802 -14.943915) scale(0.697382)"/>
     </g>
    </g>
    <g id="line2d_32">
     <path d="M 46.730079 118.630781 
L 68.730079 118.630781 
L 90.730079 118.630781 
" style="fill: none; stroke: #3b8bc2; stroke-width: 1.5; stroke-linecap: square"/>
    </g>
    <g id="text_16">
     <!-- $B_{3}$ -->
     <g transform="translate(108.330079 126.330781) scale(0.22 -0.22)">
      <use xlink:href="#CMMI12-42" transform="scale(0.996264)"/>
      <use xlink:href="#CMR17-33" transform="translate(74.10802 -14.943915) scale(0.697382)"/>
     </g>
    </g>
    <g id="line2d_33">
     <path d="M 46.730079 149.293969 
L 68.730079 149.293969 
L 90.730079 149.293969 
" style="fill: none; stroke: #125da6; stroke-width: 1.5; stroke-linecap: square"/>
    </g>
    <g id="text_17">
     <!-- $B_{4}$ -->
     <g transform="translate(108.330079 156.993969) scale(0.22 -0.22)">
      <use xlink:href="#CMMI12-42" transform="scale(0.996264)"/>
      <use xlink:href="#CMR17-34" transform="translate(74.10802 -14.943915) scale(0.697382)"/>
     </g>
    </g>
    <g id="line2d_34">
     <path d="M 46.730079 179.957157 
L 68.730079 179.957157 
L 90.730079 179.957157 
" style="fill: none; stroke: #08306b; stroke-width: 1.5; stroke-linecap: square"/>
    </g>
    <g id="text_18">
     <!-- $B_{5}$ -->
     <g transform="translate(108.330079 187.657157) scale(0.22 -0.22)">
      <use xlink:href="#CMMI12-42" transform="scale(0.996264)"/>
      <use xlink:href="#CMR17-35" transform="translate(74.10802 -14.943915) scale(0.697382)"/>
     </g>
    </g>
   </g>
  </g>
 </g>
 <defs>
  <clipPath id="p5ea1c87036">
   <rect x="26.930079" y="29.804405" width="678.669921" height="371.939918"/>
  </clipPath>
 </defs>
</svg>
