<?xml version="1.0" encoding="utf-8" standalone="no"?>
<!DOCTYPE svg PUBLIC "-//W3C//DTD SVG 1.1//EN"
  "http://www.w3.org/Graphics/SVG/1.1/DTD/svg11.dtd">
<svg xmlns:xlink="http://www.w3.org/1999/xlink" width="722.272303pt" height="424.8pt" viewBox="0 0 722.272303 424.8" xmlns="http://www.w3.org/2000/svg" version="1.1">
 <metadata>
  <rdf:RDF xmlns:dc="http://purl.org/dc/elements/1.1/" xmlns:cc="http://creativecommons.org/ns#" xmlns:rdf="http://www.w3.org/1999/02/22-rdf-syntax-ns#">
   <cc:Work>
    <dc:type rdf:resource="http://purl.org/dc/dcmitype/StillImage"/>
    <dc:date>2025-01-15T14:51:09.863064</dc:date>
    <dc:format>image/svg+xml</dc:format>
    <dc:creator>
     <cc:Agent>
      <dc:title>Matplotlib v3.10.0, https://matplotlib.org/</dc:title>
     </cc:Agent>
    </dc:creator>
   </cc:Work>
  </rdf:RDF>
 </metadata>
 <defs>
  <style type="text/css">*{stroke-linejoin: round; stroke-linecap: butt}</style>
 </defs>
 <g id="figure_1">
  <g id="patch_1">
   <path d="M -0 424.8 
L 722.272303 424.8 
L 722.272303 0 
L -0 0 
z
" style="fill: #ffffff"/>
  </g>
  <g id="axes_1">
   <g id="patch_2">
    <path d="M 80.220004 391.116119 
L 715.072303 391.116119 
L 715.072303 29.804405 
L 80.220004 29.804405 
z
" style="fill: #ffffff"/>
   </g>
   <g id="matplotlib.axis_1">
    <g id="xtick_1">
     <g id="line2d_1">
      <path d="M 102.576892 391.116119 
L 102.576892 29.804405 
" clip-path="url(#pc6e7862e98)" style="fill: none; stroke: #b0b0b0; stroke-width: 0.75; stroke-linecap: square"/>
     </g>
     <g id="line2d_2">
      <defs>
       <path id="m1c8b2c0954" d="M 0 0 
L 0 3.5 
" style="stroke: #000000; stroke-width: 0.8"/>
      </defs>
      <g>
       <use xlink:href="#m1c8b2c0954" x="102.576892" y="391.116119" style="stroke: #000000; stroke-width: 0.8"/>
      </g>
     </g>
     <g id="text_1">
      <!-- $\mathdefault{1980}$ -->
      <g transform="translate(82.473082 413.336812) scale(0.22 -0.22)">
       <defs>
        <path id="CMR17-31" d="M 1702 4058 
C 1702 4192 1696 4192 1606 4192 
C 1357 3916 979 3827 621 3827 
C 602 3827 570 3827 563 3808 
C 557 3795 557 3782 557 3648 
C 755 3648 1088 3686 1344 3839 
L 1344 461 
C 1344 236 1331 160 781 160 
L 589 160 
L 589 0 
C 896 0 1216 0 1523 0 
C 1830 0 2150 0 2458 0 
L 2458 160 
L 2266 160 
C 1715 160 1702 230 1702 458 
L 1702 4058 
z
" transform="scale(0.015625)"/>
        <path id="CMR17-39" d="M 2253 1864 
C 2253 464 1670 31 1190 31 
C 1043 31 685 31 538 294 
C 704 268 826 357 826 518 
C 826 692 685 749 595 749 
C 538 749 365 723 365 506 
C 365 71 742 -128 1203 -128 
C 1939 -128 2688 674 2688 2073 
C 2688 3817 1971 4179 1485 4179 
C 851 4179 243 3628 243 2778 
C 243 1991 762 1408 1414 1408 
C 1952 1408 2189 1903 2253 2112 
L 2253 1864 
z
M 1427 1510 
C 1254 1510 1011 1542 813 1922 
C 678 2169 678 2461 678 2771 
C 678 3146 678 3405 858 3684 
C 947 3817 1114 4032 1485 4032 
C 2240 4032 2240 2885 2240 2632 
C 2240 2182 2035 1510 1427 1510 
z
" transform="scale(0.015625)"/>
        <path id="CMR17-38" d="M 1741 2264 
C 2144 2467 2554 2773 2554 3263 
C 2554 3841 1990 4179 1472 4179 
C 890 4179 378 3759 378 3180 
C 378 3021 416 2747 666 2505 
C 730 2442 998 2251 1171 2130 
C 883 1983 211 1634 211 934 
C 211 279 838 -128 1459 -128 
C 2144 -128 2720 362 2720 1010 
C 2720 1590 2330 1857 2074 2029 
L 1741 2264 
z
M 902 2822 
C 851 2854 595 3051 595 3351 
C 595 3739 998 4032 1459 4032 
C 1965 4032 2336 3676 2336 3262 
C 2336 2669 1670 2331 1638 2331 
C 1632 2331 1626 2331 1574 2370 
L 902 2822 
z
M 2080 1519 
C 2176 1449 2483 1240 2483 851 
C 2483 381 2010 25 1472 25 
C 890 25 448 438 448 940 
C 448 1443 838 1862 1280 2060 
L 2080 1519 
z
" transform="scale(0.015625)"/>
        <path id="CMR17-30" d="M 2688 2025 
C 2688 2416 2682 3080 2413 3591 
C 2176 4039 1798 4198 1466 4198 
C 1158 4198 768 4058 525 3597 
C 269 3118 243 2524 243 2025 
C 243 1661 250 1106 448 619 
C 723 -39 1216 -128 1466 -128 
C 1760 -128 2208 -7 2470 600 
C 2662 1042 2688 1559 2688 2025 
z
M 1466 -26 
C 1056 -26 813 325 723 812 
C 653 1188 653 1738 653 2096 
C 653 2588 653 2997 736 3387 
C 858 3929 1216 4096 1466 4096 
C 1728 4096 2067 3923 2189 3400 
C 2272 3036 2278 2607 2278 2096 
C 2278 1680 2278 1169 2202 792 
C 2067 95 1690 -26 1466 -26 
z
" transform="scale(0.015625)"/>
       </defs>
       <use xlink:href="#CMR17-31" transform="scale(0.996264)"/>
       <use xlink:href="#CMR17-39" transform="translate(45.690477 0) scale(0.996264)"/>
       <use xlink:href="#CMR17-38" transform="translate(91.380954 0) scale(0.996264)"/>
       <use xlink:href="#CMR17-30" transform="translate(137.071431 0) scale(0.996264)"/>
      </g>
     </g>
    </g>
    <g id="xtick_2">
     <g id="line2d_3">
      <path d="M 168.187741 391.116119 
L 168.187741 29.804405 
" clip-path="url(#pc6e7862e98)" style="fill: none; stroke: #b0b0b0; stroke-width: 0.75; stroke-linecap: square"/>
     </g>
     <g id="line2d_4">
      <g>
       <use xlink:href="#m1c8b2c0954" x="168.187741" y="391.116119" style="stroke: #000000; stroke-width: 0.8"/>
      </g>
     </g>
     <g id="text_2">
      <!-- $\mathdefault{1985}$ -->
      <g transform="translate(148.083931 413.336812) scale(0.22 -0.22)">
       <defs>
        <path id="CMR17-35" d="M 730 3692 
C 794 3666 1056 3584 1325 3584 
C 1920 3584 2246 3911 2432 4100 
C 2432 4157 2432 4192 2394 4192 
C 2387 4192 2374 4192 2323 4163 
C 2099 4058 1837 3973 1517 3973 
C 1325 3973 1037 3999 723 4139 
C 653 4171 640 4171 634 4171 
C 602 4171 595 4164 595 4037 
L 595 2203 
C 595 2089 595 2057 659 2057 
C 691 2057 704 2070 736 2114 
C 941 2401 1222 2522 1542 2522 
C 1766 2522 2246 2382 2246 1289 
C 2246 1085 2246 715 2054 421 
C 1894 159 1645 25 1370 25 
C 947 25 518 320 403 814 
C 429 807 480 795 506 795 
C 589 795 749 840 749 1038 
C 749 1210 627 1280 506 1280 
C 358 1280 262 1190 262 1011 
C 262 454 704 -128 1382 -128 
C 2042 -128 2669 440 2669 1264 
C 2669 2030 2170 2624 1549 2624 
C 1222 2624 947 2503 730 2274 
L 730 3692 
z
" transform="scale(0.015625)"/>
       </defs>
       <use xlink:href="#CMR17-31" transform="scale(0.996264)"/>
       <use xlink:href="#CMR17-39" transform="translate(45.690477 0) scale(0.996264)"/>
       <use xlink:href="#CMR17-38" transform="translate(91.380954 0) scale(0.996264)"/>
       <use xlink:href="#CMR17-35" transform="translate(137.071431 0) scale(0.996264)"/>
      </g>
     </g>
    </g>
    <g id="xtick_3">
     <g id="line2d_5">
      <path d="M 233.762678 391.116119 
L 233.762678 29.804405 
" clip-path="url(#pc6e7862e98)" style="fill: none; stroke: #b0b0b0; stroke-width: 0.75; stroke-linecap: square"/>
     </g>
     <g id="line2d_6">
      <g>
       <use xlink:href="#m1c8b2c0954" x="233.762678" y="391.116119" style="stroke: #000000; stroke-width: 0.8"/>
      </g>
     </g>
     <g id="text_3">
      <!-- $\mathdefault{1990}$ -->
      <g transform="translate(213.658868 413.336812) scale(0.22 -0.22)">
       <use xlink:href="#CMR17-31" transform="scale(0.996264)"/>
       <use xlink:href="#CMR17-39" transform="translate(45.690477 0) scale(0.996264)"/>
       <use xlink:href="#CMR17-39" transform="translate(91.380954 0) scale(0.996264)"/>
       <use xlink:href="#CMR17-30" transform="translate(137.071431 0) scale(0.996264)"/>
      </g>
     </g>
    </g>
    <g id="xtick_4">
     <g id="line2d_7">
      <path d="M 299.337615 391.116119 
L 299.337615 29.804405 
" clip-path="url(#pc6e7862e98)" style="fill: none; stroke: #b0b0b0; stroke-width: 0.75; stroke-linecap: square"/>
     </g>
     <g id="line2d_8">
      <g>
       <use xlink:href="#m1c8b2c0954" x="299.337615" y="391.116119" style="stroke: #000000; stroke-width: 0.8"/>
      </g>
     </g>
     <g id="text_4">
      <!-- $\mathdefault{1995}$ -->
      <g transform="translate(279.233805 413.336812) scale(0.22 -0.22)">
       <use xlink:href="#CMR17-31" transform="scale(0.996264)"/>
       <use xlink:href="#CMR17-39" transform="translate(45.690477 0) scale(0.996264)"/>
       <use xlink:href="#CMR17-39" transform="translate(91.380954 0) scale(0.996264)"/>
       <use xlink:href="#CMR17-35" transform="translate(137.071431 0) scale(0.996264)"/>
      </g>
     </g>
    </g>
    <g id="xtick_5">
     <g id="line2d_9">
      <path d="M 364.912552 391.116119 
L 364.912552 29.804405 
" clip-path="url(#pc6e7862e98)" style="fill: none; stroke: #b0b0b0; stroke-width: 0.75; stroke-linecap: square"/>
     </g>
     <g id="line2d_10">
      <g>
       <use xlink:href="#m1c8b2c0954" x="364.912552" y="391.116119" style="stroke: #000000; stroke-width: 0.8"/>
      </g>
     </g>
     <g id="text_5">
      <!-- $\mathdefault{2000}$ -->
      <g transform="translate(344.808742 413.336812) scale(0.22 -0.22)">
       <defs>
        <path id="CMR17-32" d="M 2669 989 
L 2554 989 
C 2490 536 2438 459 2413 420 
C 2381 369 1920 369 1830 369 
L 602 369 
C 832 619 1280 1072 1824 1597 
C 2214 1967 2669 2402 2669 3035 
C 2669 3790 2067 4224 1395 4224 
C 691 4224 262 3604 262 3030 
C 262 2780 448 2748 525 2748 
C 589 2748 781 2787 781 3010 
C 781 3207 614 3264 525 3264 
C 486 3264 448 3258 422 3245 
C 544 3790 915 4058 1306 4058 
C 1862 4058 2227 3617 2227 3035 
C 2227 2479 1901 2000 1536 1584 
L 262 146 
L 262 0 
L 2515 0 
L 2669 989 
z
" transform="scale(0.015625)"/>
       </defs>
       <use xlink:href="#CMR17-32" transform="scale(0.996264)"/>
       <use xlink:href="#CMR17-30" transform="translate(45.690477 0) scale(0.996264)"/>
       <use xlink:href="#CMR17-30" transform="translate(91.380954 0) scale(0.996264)"/>
       <use xlink:href="#CMR17-30" transform="translate(137.071431 0) scale(0.996264)"/>
      </g>
     </g>
    </g>
    <g id="xtick_6">
     <g id="line2d_11">
      <path d="M 430.523401 391.116119 
L 430.523401 29.804405 
" clip-path="url(#pc6e7862e98)" style="fill: none; stroke: #b0b0b0; stroke-width: 0.75; stroke-linecap: square"/>
     </g>
     <g id="line2d_12">
      <g>
       <use xlink:href="#m1c8b2c0954" x="430.523401" y="391.116119" style="stroke: #000000; stroke-width: 0.8"/>
      </g>
     </g>
     <g id="text_6">
      <!-- $\mathdefault{2005}$ -->
      <g transform="translate(410.419592 413.336812) scale(0.22 -0.22)">
       <use xlink:href="#CMR17-32" transform="scale(0.996264)"/>
       <use xlink:href="#CMR17-30" transform="translate(45.690477 0) scale(0.996264)"/>
       <use xlink:href="#CMR17-30" transform="translate(91.380954 0) scale(0.996264)"/>
       <use xlink:href="#CMR17-35" transform="translate(137.071431 0) scale(0.996264)"/>
      </g>
     </g>
    </g>
    <g id="xtick_7">
     <g id="line2d_13">
      <path d="M 496.098339 391.116119 
L 496.098339 29.804405 
" clip-path="url(#pc6e7862e98)" style="fill: none; stroke: #b0b0b0; stroke-width: 0.75; stroke-linecap: square"/>
     </g>
     <g id="line2d_14">
      <g>
       <use xlink:href="#m1c8b2c0954" x="496.098339" y="391.116119" style="stroke: #000000; stroke-width: 0.8"/>
      </g>
     </g>
     <g id="text_7">
      <!-- $\mathdefault{2010}$ -->
      <g transform="translate(475.994529 413.336812) scale(0.22 -0.22)">
       <use xlink:href="#CMR17-32" transform="scale(0.996264)"/>
       <use xlink:href="#CMR17-30" transform="translate(45.690477 0) scale(0.996264)"/>
       <use xlink:href="#CMR17-31" transform="translate(91.380954 0) scale(0.996264)"/>
       <use xlink:href="#CMR17-30" transform="translate(137.071431 0) scale(0.996264)"/>
      </g>
     </g>
    </g>
    <g id="xtick_8">
     <g id="line2d_15">
      <path d="M 561.673276 391.116119 
L 561.673276 29.804405 
" clip-path="url(#pc6e7862e98)" style="fill: none; stroke: #b0b0b0; stroke-width: 0.75; stroke-linecap: square"/>
     </g>
     <g id="line2d_16">
      <g>
       <use xlink:href="#m1c8b2c0954" x="561.673276" y="391.116119" style="stroke: #000000; stroke-width: 0.8"/>
      </g>
     </g>
     <g id="text_8">
      <!-- $\mathdefault{2015}$ -->
      <g transform="translate(541.569466 413.336812) scale(0.22 -0.22)">
       <use xlink:href="#CMR17-32" transform="scale(0.996264)"/>
       <use xlink:href="#CMR17-30" transform="translate(45.690477 0) scale(0.996264)"/>
       <use xlink:href="#CMR17-31" transform="translate(91.380954 0) scale(0.996264)"/>
       <use xlink:href="#CMR17-35" transform="translate(137.071431 0) scale(0.996264)"/>
      </g>
     </g>
    </g>
    <g id="xtick_9">
     <g id="line2d_17">
      <path d="M 627.248213 391.116119 
L 627.248213 29.804405 
" clip-path="url(#pc6e7862e98)" style="fill: none; stroke: #b0b0b0; stroke-width: 0.75; stroke-linecap: square"/>
     </g>
     <g id="line2d_18">
      <g>
       <use xlink:href="#m1c8b2c0954" x="627.248213" y="391.116119" style="stroke: #000000; stroke-width: 0.8"/>
      </g>
     </g>
     <g id="text_9">
      <!-- $\mathdefault{2020}$ -->
      <g transform="translate(607.144403 413.336812) scale(0.22 -0.22)">
       <use xlink:href="#CMR17-32" transform="scale(0.996264)"/>
       <use xlink:href="#CMR17-30" transform="translate(45.690477 0) scale(0.996264)"/>
       <use xlink:href="#CMR17-32" transform="translate(91.380954 0) scale(0.996264)"/>
       <use xlink:href="#CMR17-30" transform="translate(137.071431 0) scale(0.996264)"/>
      </g>
     </g>
    </g>
    <g id="xtick_10">
     <g id="line2d_19">
      <path d="M 692.859062 391.116119 
L 692.859062 29.804405 
" clip-path="url(#pc6e7862e98)" style="fill: none; stroke: #b0b0b0; stroke-width: 0.75; stroke-linecap: square"/>
     </g>
     <g id="line2d_20">
      <g>
       <use xlink:href="#m1c8b2c0954" x="692.859062" y="391.116119" style="stroke: #000000; stroke-width: 0.8"/>
      </g>
     </g>
     <g id="text_10">
      <!-- $\mathdefault{2025}$ -->
      <g transform="translate(672.755252 413.336812) scale(0.22 -0.22)">
       <use xlink:href="#CMR17-32" transform="scale(0.996264)"/>
       <use xlink:href="#CMR17-30" transform="translate(45.690477 0) scale(0.996264)"/>
       <use xlink:href="#CMR17-32" transform="translate(91.380954 0) scale(0.996264)"/>
       <use xlink:href="#CMR17-35" transform="translate(137.071431 0) scale(0.996264)"/>
      </g>
     </g>
    </g>
   </g>
   <g id="matplotlib.axis_2">
    <g id="ytick_1">
     <g id="line2d_21">
      <path d="M 80.220004 383.582741 
L 715.072303 383.582741 
" clip-path="url(#pc6e7862e98)" style="fill: none; stroke: #b0b0b0; stroke-width: 0.75; stroke-linecap: square"/>
     </g>
     <g id="line2d_22">
      <defs>
       <path id="mc18a5ba7ae" d="M 0 0 
L -3.5 0 
" style="stroke: #000000; stroke-width: 0.8"/>
      </defs>
      <g>
       <use xlink:href="#mc18a5ba7ae" x="80.220004" y="383.582741" style="stroke: #000000; stroke-width: 0.8"/>
      </g>
     </g>
     <g id="text_11">
      <!-- $\mathdefault{−0.20}$ -->
      <g transform="translate(20.055677 391.193087) scale(0.22 -0.22)">
       <defs>
        <path id="CMSY10-0" d="M 4218 1472 
C 4326 1472 4442 1472 4442 1600 
C 4442 1728 4326 1728 4218 1728 
L 755 1728 
C 646 1728 531 1728 531 1600 
C 531 1472 646 1472 755 1472 
L 4218 1472 
z
" transform="scale(0.015625)"/>
        <path id="CMMI12-3a" d="M 1178 307 
C 1178 492 1024 619 870 619 
C 685 619 557 466 557 313 
C 557 128 710 0 864 0 
C 1050 0 1178 153 1178 307 
z
" transform="scale(0.015625)"/>
       </defs>
       <use xlink:href="#CMSY10-0" transform="scale(0.996264)"/>
       <use xlink:href="#CMR17-30" transform="translate(77.487468 0) scale(0.996264)"/>
       <use xlink:href="#CMMI12-3a" transform="translate(123.177945 0) scale(0.996264)"/>
       <use xlink:href="#CMR17-32" transform="translate(150.275122 0) scale(0.996264)"/>
       <use xlink:href="#CMR17-30" transform="translate(195.965599 0) scale(0.996264)"/>
      </g>
     </g>
    </g>
    <g id="ytick_2">
     <g id="line2d_23">
      <path d="M 80.220004 335.054341 
L 715.072303 335.054341 
" clip-path="url(#pc6e7862e98)" style="fill: none; stroke: #b0b0b0; stroke-width: 0.75; stroke-linecap: square"/>
     </g>
     <g id="line2d_24">
      <g>
       <use xlink:href="#mc18a5ba7ae" x="80.220004" y="335.054341" style="stroke: #000000; stroke-width: 0.8"/>
      </g>
     </g>
     <g id="text_12">
      <!-- $\mathdefault{−0.15}$ -->
      <g transform="translate(20.055677 342.664688) scale(0.22 -0.22)">
       <use xlink:href="#CMSY10-0" transform="scale(0.996264)"/>
       <use xlink:href="#CMR17-30" transform="translate(77.487468 0) scale(0.996264)"/>
       <use xlink:href="#CMMI12-3a" transform="translate(123.177945 0) scale(0.996264)"/>
       <use xlink:href="#CMR17-31" transform="translate(150.275122 0) scale(0.996264)"/>
       <use xlink:href="#CMR17-35" transform="translate(195.965599 0) scale(0.996264)"/>
      </g>
     </g>
    </g>
    <g id="ytick_3">
     <g id="line2d_25">
      <path d="M 80.220004 286.525942 
L 715.072303 286.525942 
" clip-path="url(#pc6e7862e98)" style="fill: none; stroke: #b0b0b0; stroke-width: 0.75; stroke-linecap: square"/>
     </g>
     <g id="line2d_26">
      <g>
       <use xlink:href="#mc18a5ba7ae" x="80.220004" y="286.525942" style="stroke: #000000; stroke-width: 0.8"/>
      </g>
     </g>
     <g id="text_13">
      <!-- $\mathdefault{−0.10}$ -->
      <g transform="translate(20.055677 294.136288) scale(0.22 -0.22)">
       <use xlink:href="#CMSY10-0" transform="scale(0.996264)"/>
       <use xlink:href="#CMR17-30" transform="translate(77.487468 0) scale(0.996264)"/>
       <use xlink:href="#CMMI12-3a" transform="translate(123.177945 0) scale(0.996264)"/>
       <use xlink:href="#CMR17-31" transform="translate(150.275122 0) scale(0.996264)"/>
       <use xlink:href="#CMR17-30" transform="translate(195.965599 0) scale(0.996264)"/>
      </g>
     </g>
    </g>
    <g id="ytick_4">
     <g id="line2d_27">
      <path d="M 80.220004 237.997542 
L 715.072303 237.997542 
" clip-path="url(#pc6e7862e98)" style="fill: none; stroke: #b0b0b0; stroke-width: 0.75; stroke-linecap: square"/>
     </g>
     <g id="line2d_28">
      <g>
       <use xlink:href="#mc18a5ba7ae" x="80.220004" y="237.997542" style="stroke: #000000; stroke-width: 0.8"/>
      </g>
     </g>
     <g id="text_14">
      <!-- $\mathdefault{−0.05}$ -->
      <g transform="translate(20.055677 245.607889) scale(0.22 -0.22)">
       <use xlink:href="#CMSY10-0" transform="scale(0.996264)"/>
       <use xlink:href="#CMR17-30" transform="translate(77.487468 0) scale(0.996264)"/>
       <use xlink:href="#CMMI12-3a" transform="translate(123.177945 0) scale(0.996264)"/>
       <use xlink:href="#CMR17-30" transform="translate(150.275122 0) scale(0.996264)"/>
       <use xlink:href="#CMR17-35" transform="translate(195.965599 0) scale(0.996264)"/>
      </g>
     </g>
    </g>
    <g id="ytick_5">
     <g id="line2d_29">
      <path d="M 80.220004 189.469142 
L 715.072303 189.469142 
" clip-path="url(#pc6e7862e98)" style="fill: none; stroke: #b0b0b0; stroke-width: 0.75; stroke-linecap: square"/>
     </g>
     <g id="line2d_30">
      <g>
       <use xlink:href="#mc18a5ba7ae" x="80.220004" y="189.469142" style="stroke: #000000; stroke-width: 0.8"/>
      </g>
     </g>
     <g id="text_15">
      <!-- $\mathdefault{0.00}$ -->
      <g transform="translate(37.10291 197.079489) scale(0.22 -0.22)">
       <use xlink:href="#CMR17-30" transform="scale(0.996264)"/>
       <use xlink:href="#CMMI12-3a" transform="translate(45.690477 0) scale(0.996264)"/>
       <use xlink:href="#CMR17-30" transform="translate(72.787654 0) scale(0.996264)"/>
       <use xlink:href="#CMR17-30" transform="translate(118.478131 0) scale(0.996264)"/>
      </g>
     </g>
    </g>
    <g id="ytick_6">
     <g id="line2d_31">
      <path d="M 80.220004 140.940743 
L 715.072303 140.940743 
" clip-path="url(#pc6e7862e98)" style="fill: none; stroke: #b0b0b0; stroke-width: 0.75; stroke-linecap: square"/>
     </g>
     <g id="line2d_32">
      <g>
       <use xlink:href="#mc18a5ba7ae" x="80.220004" y="140.940743" style="stroke: #000000; stroke-width: 0.8"/>
      </g>
     </g>
     <g id="text_16">
      <!-- $\mathdefault{0.05}$ -->
      <g transform="translate(37.10291 148.551089) scale(0.22 -0.22)">
       <use xlink:href="#CMR17-30" transform="scale(0.996264)"/>
       <use xlink:href="#CMMI12-3a" transform="translate(45.690477 0) scale(0.996264)"/>
       <use xlink:href="#CMR17-30" transform="translate(72.787654 0) scale(0.996264)"/>
       <use xlink:href="#CMR17-35" transform="translate(118.478131 0) scale(0.996264)"/>
      </g>
     </g>
    </g>
    <g id="ytick_7">
     <g id="line2d_33">
      <path d="M 80.220004 92.412343 
L 715.072303 92.412343 
" clip-path="url(#pc6e7862e98)" style="fill: none; stroke: #b0b0b0; stroke-width: 0.75; stroke-linecap: square"/>
     </g>
     <g id="line2d_34">
      <g>
       <use xlink:href="#mc18a5ba7ae" x="80.220004" y="92.412343" style="stroke: #000000; stroke-width: 0.8"/>
      </g>
     </g>
     <g id="text_17">
      <!-- $\mathdefault{0.10}$ -->
      <g transform="translate(37.10291 100.02269) scale(0.22 -0.22)">
       <use xlink:href="#CMR17-30" transform="scale(0.996264)"/>
       <use xlink:href="#CMMI12-3a" transform="translate(45.690477 0) scale(0.996264)"/>
       <use xlink:href="#CMR17-31" transform="translate(72.787654 0) scale(0.996264)"/>
       <use xlink:href="#CMR17-30" transform="translate(118.478131 0) scale(0.996264)"/>
      </g>
     </g>
    </g>
    <g id="ytick_8">
     <g id="line2d_35">
      <path d="M 80.220004 43.883944 
L 715.072303 43.883944 
" clip-path="url(#pc6e7862e98)" style="fill: none; stroke: #b0b0b0; stroke-width: 0.75; stroke-linecap: square"/>
     </g>
     <g id="line2d_36">
      <g>
       <use xlink:href="#mc18a5ba7ae" x="80.220004" y="43.883944" style="stroke: #000000; stroke-width: 0.8"/>
      </g>
     </g>
     <g id="text_18">
      <!-- $\mathdefault{0.15}$ -->
      <g transform="translate(37.10291 51.49429) scale(0.22 -0.22)">
       <use xlink:href="#CMR17-30" transform="scale(0.996264)"/>
       <use xlink:href="#CMMI12-3a" transform="translate(45.690477 0) scale(0.996264)"/>
       <use xlink:href="#CMR17-31" transform="translate(72.787654 0) scale(0.996264)"/>
       <use xlink:href="#CMR17-35" transform="translate(118.478131 0) scale(0.996264)"/>
      </g>
     </g>
    </g>
    <g id="text_19">
     <!-- Value -->
     <g transform="translate(14.118498 222.636844) rotate(-90) scale(0.1 -0.1)">
      <defs>
       <path id="CMR17-56" d="M 3776 3745 
C 3834 3886 3936 4160 4365 4160 
L 4365 4332 
C 4218 4319 4051 4319 3891 4319 
C 3738 4319 3475 4319 3328 4332 
L 3328 4160 
C 3648 4160 3661 3936 3661 3898 
C 3661 3827 3642 3783 3622 3732 
L 2362 446 
L 1043 3886 
C 1024 3931 1011 3963 1011 3994 
C 1011 4160 1267 4160 1402 4160 
L 1402 4319 
C 1197 4319 896 4319 685 4319 
C 518 4319 218 4319 64 4332 
L 64 4160 
C 435 4160 506 4135 582 3931 
L 2106 -26 
C 2138 -115 2144 -128 2214 -128 
C 2285 -128 2291 -115 2323 -26 
L 3776 3745 
z
" transform="scale(0.015625)"/>
       <path id="CMR17-61" d="M 2304 1653 
C 2304 2072 2304 2294 2035 2543 
C 1798 2752 1523 2816 1306 2816 
C 800 2816 435 2407 435 1971 
C 435 1728 627 1728 666 1728 
C 749 1728 896 1778 896 1954 
C 896 2112 774 2181 666 2181 
C 640 2181 608 2174 589 2168 
C 723 2592 1069 2714 1293 2714 
C 1613 2714 1965 2429 1965 1885 
L 1965 1600 
C 1587 1600 1133 1549 774 1357 
C 371 1133 256 813 256 570 
C 256 77 832 -64 1171 -64 
C 1523 -64 1850 139 1990 511 
C 2003 233 2182 -18 2464 -18 
C 2598 -18 2938 70 2938 567 
L 2938 920 
L 2822 920 
L 2822 562 
C 2822 178 2650 128 2566 128 
C 2304 128 2304 458 2304 738 
L 2304 1653 
z
M 1965 870 
C 1965 317 1568 38 1216 38 
C 896 38 646 275 646 570 
C 646 761 730 1100 1101 1305 
C 1408 1478 1760 1504 1965 1504 
L 1965 870 
z
" transform="scale(0.015625)"/>
       <path id="CMR17-6c" d="M 979 4396 
L 218 4326 
L 218 4160 
C 595 4160 653 4122 653 3817 
L 653 426 
C 653 184 627 153 218 153 
L 218 -13 
C 371 0 653 0 813 0 
C 979 0 1261 0 1414 -13 
L 1414 153 
C 1005 153 979 178 979 426 
L 979 4396 
z
" transform="scale(0.015625)"/>
       <path id="CMR17-75" d="M 1882 2693 
L 1882 2528 
C 2259 2528 2317 2489 2317 2186 
L 2317 1032 
C 2317 500 2029 38 1555 38 
C 1030 38 986 348 986 678 
L 986 2763 
L 211 2693 
L 211 2528 
C 467 2528 640 2528 646 2274 
L 646 1058 
C 646 633 646 361 813 183 
C 896 101 1056 -64 1517 -64 
C 2061 -64 2272 377 2323 506 
L 2330 506 
L 2330 -63 
L 3091 -63 
L 3091 128 
C 2714 128 2656 166 2656 473 
L 2656 2763 
L 1882 2693 
z
" transform="scale(0.015625)"/>
       <path id="CMR17-65" d="M 2438 1472 
C 2464 1498 2464 1511 2464 1576 
C 2464 2238 2118 2816 1389 2816 
C 710 2816 173 2169 173 1383 
C 173 551 781 -64 1459 -64 
C 2176 -64 2458 607 2458 740 
C 2458 784 2419 784 2406 784 
C 2362 784 2355 771 2330 696 
C 2189 265 1837 51 1504 51 
C 1229 51 954 203 781 480 
C 582 803 582 1176 582 1472 
L 2438 1472 
z
M 589 1568 
C 634 2505 1126 2714 1382 2714 
C 1818 2714 2112 2297 2118 1568 
L 589 1568 
z
" transform="scale(0.015625)"/>
      </defs>
      <use xlink:href="#CMR17-56" transform="scale(0.996264)"/>
      <use xlink:href="#CMR17-61" transform="translate(61.265174 0) scale(0.996264)"/>
      <use xlink:href="#CMR17-6c" transform="translate(106.955652 0) scale(0.996264)"/>
      <use xlink:href="#CMR17-75" transform="translate(131.82671 0) scale(0.996264)"/>
      <use xlink:href="#CMR17-65" transform="translate(182.72208 0) scale(0.996264)"/>
     </g>
    </g>
   </g>
   <g id="line2d_37">
    <path d="M 109.076926 374.692859 
L 112.380812 46.227665 
L 115.684697 160.968592 
L 118.916758 212.835853 
L 122.184732 143.255464 
L 125.488617 50.924459 
L 128.792502 306.27156 
L 132.024563 116.455808 
L 135.292537 131.071198 
L 138.596422 357.53944 
L 141.900307 238.105234 
L 145.132368 174.622734 
L 148.400342 209.996575 
L 151.704227 187.584025 
L 155.008112 186.013405 
L 158.276085 153.537609 
L 161.544059 98.113796 
L 164.847944 225.020318 
L 168.151829 237.047051 
L 171.38389 151.649962 
L 174.651864 305.413448 
L 177.955749 222.076304 
L 181.259634 286.632838 
L 184.491695 280.705023 
L 187.759669 201.372249 
L 191.063554 204.530798 
L 194.367439 226.258311 
L 197.599501 215.084899 
L 200.867474 145.96805 
L 204.171359 134.015419 
L 207.475244 210.955486 
L 210.743217 201.178471 
L 214.011191 147.220057 
L 217.315076 155.003644 
L 220.618961 128.849261 
L 223.851023 149.315808 
L 227.118996 261.444144 
L 230.422881 145.681426 
L 233.726766 184.986832 
L 236.958828 107.676651 
L 240.226801 212.528749 
L 243.530686 165.260997 
L 246.834571 209.246756 
L 250.066633 177.519064 
L 253.334606 165.952529 
L 256.638491 201.712482 
L 259.942376 224.406556 
L 263.21035 96.015872 
L 266.478323 225.981809 
L 269.782208 216.2474 
L 273.086093 142.893936 
L 276.318155 222.155777 
L 279.586128 225.75133 
L 282.890013 190.723638 
L 286.193898 165.76188 
L 289.42596 118.596725 
L 292.693933 131.795747 
L 295.997818 143.212928 
L 299.301703 141.470975 
L 302.533765 167.238845 
L 305.801738 242.162338 
L 309.105623 165.86439 
L 312.409508 203.45329 
L 315.677482 124.557444 
L 318.945455 159.115048 
L 322.24934 183.201637 
L 325.553225 203.074471 
L 328.785287 160.099111 
L 332.05326 207.518663 
L 335.357145 238.130175 
L 338.66103 183.357969 
L 341.893092 197.780352 
L 345.161065 204.201519 
L 348.46495 265.331958 
L 351.768836 187.224221 
L 355.000897 148.026356 
L 358.26887 183.669423 
L 361.572755 182.189241 
L 364.876641 155.734952 
L 368.144614 195.369954 
L 371.412587 181.173442 
L 374.716472 183.467483 
L 378.020357 212.894957 
L 381.252419 193.51288 
L 384.520392 148.114154 
L 387.824277 232.428379 
L 391.128163 155.560377 
L 394.360224 150.17718 
L 397.628197 214.935668 
L 400.932083 265.422905 
L 404.235968 173.676184 
L 407.468029 194.624021 
L 410.736003 216.805972 
L 414.039888 165.422415 
L 417.343773 172.653162 
L 420.611746 221.792385 
L 423.879719 132.400855 
L 427.183605 216.319927 
L 430.48749 177.038784 
L 433.719551 153.229195 
L 436.987525 217.025598 
L 440.29141 147.846811 
L 443.595295 155.104813 
L 446.827356 137.658901 
L 450.09533 146.821693 
L 453.399215 194.51383 
L 456.7031 156.561545 
L 459.935161 159.825432 
L 463.203135 140.615283 
L 466.50702 216.674382 
L 469.810905 216.624855 
L 473.078878 243.301391 
L 476.346852 132.644673 
L 479.650737 196.731061 
L 482.954622 271.889831 
L 486.186683 156.552498 
L 489.454657 131.779121 
L 492.758542 176.35749 
L 496.062427 137.905091 
L 499.294488 176.205244 
L 502.562462 233.097302 
L 505.866347 213.056908 
L 509.170232 134.030184 
L 512.402294 187.30568 
L 515.670267 233.708632 
L 518.974152 259.729842 
L 522.278037 199.317173 
L 525.54601 183.426657 
L 528.813984 236.715123 
L 532.117869 213.796323 
L 535.421754 192.063717 
L 538.653816 192.256956 
L 541.921789 164.822434 
L 545.225674 195.325609 
L 548.529559 172.109226 
L 551.761621 205.321764 
L 555.029594 215.18815 
L 558.333479 203.101887 
L 561.637364 230.373028 
L 564.869426 226.98054 
L 568.137399 185.758554 
L 571.441284 223.298329 
L 574.745169 170.517809 
L 578.013143 241.115107 
L 581.281116 223.845442 
L 584.585001 195.245947 
L 587.888886 150.805055 
L 591.120948 209.996209 
L 594.388921 205.326866 
L 597.692806 190.776839 
L 600.996691 188.233161 
L 604.228753 176.312967 
L 607.496726 189.590948 
L 610.800611 177.689106 
L 614.104496 215.818394 
L 617.336558 218.374638 
L 620.604531 231.425028 
L 623.908416 222.038416 
L 627.212301 192.873172 
L 630.480275 294.231149 
L 633.748248 207.146923 
L 637.052133 210.346014 
L 640.356018 205.517214 
L 643.58808 174.929693 
L 646.856053 220.024949 
L 650.159938 216.328728 
L 653.463823 213.749264 
L 656.695885 130.131098 
L 659.963858 171.23802 
L 663.267743 108.848331 
L 666.571629 198.543076 
L 669.80369 177.394944 
L 673.071663 163.020241 
L 676.375548 114.832001 
L 679.679434 223.984714 
L 682.947407 160.478267 
L 686.21538 159.395342 
L 686.21538 159.395342 
" clip-path="url(#pc6e7862e98)" style="fill: none; stroke: #08306b; stroke-width: 1.5; stroke-linecap: square"/>
   </g>
   <g id="line2d_38">
    <path d="M 109.076926 266.207235 
L 112.380812 167.960945 
L 115.684697 157.625546 
L 118.916758 201.331809 
L 122.184732 153.144919 
L 125.488617 195.468756 
L 128.792502 205.586208 
L 132.024563 166.704528 
L 135.292537 187.300923 
L 138.596422 220.757311 
L 141.900307 201.510218 
L 145.132368 193.484555 
L 148.400342 190.216659 
L 151.704227 201.491215 
L 155.008112 196.166996 
L 158.276085 193.001884 
L 161.544059 198.687582 
L 164.847944 176.629525 
L 168.151829 229.118833 
L 171.38389 196.229145 
L 174.651864 202.455501 
L 177.955749 200.399063 
L 181.259634 176.476877 
L 184.491695 161.084368 
L 187.759669 202.782241 
L 191.063554 218.745722 
L 194.367439 183.650991 
L 197.599501 189.519564 
L 200.867474 198.118761 
L 204.171359 203.389931 
L 207.475244 196.912562 
L 210.743217 198.181493 
L 214.011191 182.961928 
L 217.315076 177.736223 
L 220.618961 171.096236 
L 223.851023 167.870599 
L 227.118996 191.729872 
L 230.422881 179.65099 
L 233.726766 187.097857 
L 236.958828 189.526797 
L 240.226801 188.930774 
L 243.530686 208.674016 
L 246.834571 189.189075 
L 250.066633 196.972068 
L 253.334606 204.253014 
L 256.638491 196.790791 
L 259.942376 209.341726 
L 263.21035 196.954818 
L 266.478323 212.422876 
L 269.782208 209.002652 
L 273.086093 180.287256 
L 276.318155 193.837694 
L 279.586128 177.006987 
L 282.890013 186.037677 
L 286.193898 199.204647 
L 289.42596 198.037483 
L 292.693933 189.665157 
L 295.997818 190.241676 
L 299.301703 167.822578 
L 302.533765 196.70957 
L 305.801738 181.507608 
L 309.105623 185.616867 
L 312.409508 185.994287 
L 315.677482 200.75685 
L 318.945455 189.528828 
L 322.24934 191.173229 
L 325.553225 183.058761 
L 328.785287 191.864381 
L 335.357145 181.631153 
L 338.66103 176.171071 
L 341.893092 186.819158 
L 345.161065 180.700845 
L 348.46495 187.882858 
L 351.768836 189.287843 
L 355.000897 198.680532 
L 358.26887 190.422483 
L 361.572755 191.57281 
L 364.876641 185.667759 
L 368.144614 159.790166 
L 371.412587 186.509268 
L 374.716472 186.010022 
L 378.020357 180.918742 
L 381.252419 210.149159 
L 384.520392 203.987551 
L 387.824277 211.468518 
L 391.128163 210.212877 
L 394.360224 196.576333 
L 397.628197 204.502042 
L 400.932083 188.354651 
L 404.235968 200.602808 
L 407.468029 192.941575 
L 410.736003 186.233618 
L 414.039888 202.905592 
L 417.343773 194.686506 
L 420.611746 187.394805 
L 423.879719 189.753528 
L 427.183605 179.941903 
L 430.48749 180.37871 
L 433.719551 178.435837 
L 436.987525 172.948131 
L 440.29141 185.815979 
L 443.595295 178.307962 
L 446.827356 188.35343 
L 450.09533 182.792453 
L 453.399215 176.783197 
L 456.7031 180.135018 
L 459.935161 185.054126 
L 463.203135 186.030068 
L 466.50702 194.716843 
L 469.810905 191.676818 
L 473.078878 212.902057 
L 476.346852 175.214807 
L 479.650737 204.553481 
L 482.954622 181.533264 
L 486.186683 194.404385 
L 489.454657 211.825341 
L 492.758542 188.647984 
L 496.062427 205.592997 
L 499.294488 195.988995 
L 502.562462 171.308544 
L 505.866347 178.59927 
L 509.170232 210.628151 
L 512.402294 191.11989 
L 515.670267 190.321751 
L 518.974152 147.880496 
L 522.278037 188.556666 
L 525.54601 199.471419 
L 528.813984 168.407224 
L 532.117869 192.064127 
L 535.421754 194.621326 
L 538.653816 195.299045 
L 541.921789 208.457759 
L 545.225674 196.408926 
L 548.529559 200.478822 
L 551.761621 174.293617 
L 555.029594 181.797957 
L 558.333479 185.367525 
L 561.637364 176.105485 
L 564.869426 186.592975 
L 568.137399 203.369701 
L 571.441284 180.924947 
L 574.745169 186.460216 
L 578.013143 180.440182 
L 581.281116 179.701851 
L 584.585001 186.624076 
L 587.888886 207.40507 
L 591.120948 182.832524 
L 594.388921 180.349673 
L 597.692806 185.711048 
L 600.996691 176.924339 
L 604.228753 186.149273 
L 607.496726 185.245734 
L 610.800611 186.243323 
L 614.104496 180.445205 
L 617.336558 179.283602 
L 620.604531 183.062615 
L 623.908416 174.585391 
L 627.212301 195.604129 
L 630.480275 184.697933 
L 633.748248 188.015626 
L 637.052133 188.699122 
L 640.356018 195.511279 
L 643.58808 215.037121 
L 646.856053 173.650685 
L 650.159938 187.828441 
L 653.463823 177.217553 
L 656.695885 180.359897 
L 659.963858 196.979601 
L 663.267743 174.546961 
L 666.571629 176.483291 
L 669.80369 177.572414 
L 673.071663 167.670122 
L 676.375548 201.530973 
L 679.679434 170.469425 
L 682.947407 176.286456 
L 686.21538 184.814915 
L 686.21538 184.814915 
" clip-path="url(#pc6e7862e98)" style="fill: none; stroke: #125da6; stroke-width: 1.5; stroke-linecap: square"/>
   </g>
   <g id="line2d_39">
    <path d="M 109.076926 216.598818 
L 112.380812 182.277969 
L 115.684697 170.864774 
L 118.916758 200.065413 
L 122.184732 176.216135 
L 125.488617 196.936761 
L 128.792502 198.342621 
L 132.024563 189.595975 
L 135.292537 190.525677 
L 138.596422 212.84519 
L 141.900307 191.881244 
L 145.132368 185.671684 
L 148.400342 193.208497 
L 151.704227 195.327998 
L 155.008112 192.657018 
L 158.276085 192.862142 
L 161.544059 198.105703 
L 164.847944 193.569487 
L 168.151829 197.072257 
L 171.38389 191.523475 
L 174.651864 195.854211 
L 177.955749 188.552271 
L 181.259634 183.343664 
L 184.491695 194.513708 
L 187.759669 194.194027 
L 191.063554 188.121943 
L 194.367439 183.333506 
L 197.599501 191.360937 
L 200.867474 196.286581 
L 204.171359 195.079788 
L 207.475244 193.246528 
L 210.743217 188.450873 
L 214.011191 192.349477 
L 217.315076 188.540101 
L 220.618961 194.75757 
L 223.851023 190.569463 
L 227.118996 182.8328 
L 230.422881 190.391494 
L 233.726766 186.409412 
L 236.958828 192.671392 
L 240.226801 189.053477 
L 243.530686 185.038348 
L 246.834571 189.611946 
L 250.066633 199.015345 
L 253.334606 193.10285 
L 256.638491 186.157502 
L 259.942376 190.270004 
L 263.21035 204.836936 
L 266.478323 180.750042 
L 269.782208 183.204073 
L 273.086093 204.890363 
L 276.318155 181.668937 
L 279.586128 190.216366 
L 282.890013 191.349082 
L 286.193898 192.879461 
L 289.42596 198.286359 
L 292.693933 193.867731 
L 295.997818 192.105756 
L 299.301703 198.590786 
L 302.533765 185.675101 
L 305.801738 183.128795 
L 309.105623 190.382277 
L 312.409508 187.522634 
L 315.677482 191.86926 
L 318.945455 193.610637 
L 322.24934 192.727568 
L 325.553225 189.308098 
L 328.785287 192.849114 
L 332.05326 189.774604 
L 335.357145 190.059899 
L 338.66103 187.643037 
L 341.893092 188.49382 
L 345.161065 190.442016 
L 348.46495 177.68823 
L 351.768836 191.343516 
L 355.000897 190.508938 
L 358.26887 193.255199 
L 361.572755 188.961263 
L 364.876641 192.205928 
L 368.144614 193.941217 
L 371.412587 186.564832 
L 374.716472 180.398684 
L 378.020357 182.123039 
L 381.252419 189.734033 
L 384.520392 196.086367 
L 387.824277 183.776899 
L 391.128163 203.008151 
L 394.360224 195.554999 
L 397.628197 184.273086 
L 400.932083 171.860223 
L 404.235968 189.036369 
L 407.468029 188.116991 
L 410.736003 186.182755 
L 414.039888 188.484119 
L 417.343773 193.979535 
L 420.611746 184.521235 
L 423.879719 198.358184 
L 427.183605 185.300233 
L 430.48749 190.202233 
L 433.719551 196.632208 
L 436.987525 187.038518 
L 440.29141 190.769017 
L 443.595295 187.032801 
L 446.827356 187.628801 
L 450.09533 186.065093 
L 453.399215 184.196236 
L 456.7031 186.931774 
L 459.935161 182.885389 
L 463.203135 191.006238 
L 466.50702 183.854101 
L 469.810905 180.260602 
L 473.078878 184.322798 
L 476.346852 199.611057 
L 479.650737 182.301495 
L 482.954622 188.060123 
L 486.186683 183.536529 
L 489.454657 198.134708 
L 492.758542 189.807184 
L 496.062427 189.023567 
L 499.294488 189.117007 
L 502.562462 182.659352 
L 505.866347 181.681711 
L 509.170232 189.638 
L 512.402294 192.189578 
L 515.670267 179.539535 
L 518.974152 191.387726 
L 522.278037 186.135413 
L 525.54601 184.275993 
L 528.813984 189.901583 
L 532.117869 183.782931 
L 535.421754 186.762757 
L 538.653816 184.9409 
L 541.921789 191.18581 
L 545.225674 185.59015 
L 548.529559 188.044841 
L 551.761621 193.770396 
L 555.029594 188.844234 
L 558.333479 194.184241 
L 561.637364 192.377494 
L 564.869426 185.076754 
L 568.137399 187.735179 
L 571.441284 188.18682 
L 574.745169 191.058649 
L 578.013143 184.499736 
L 581.281116 189.390742 
L 584.585001 188.691754 
L 587.888886 192.312526 
L 591.120948 187.846379 
L 594.388921 186.743055 
L 597.692806 188.672867 
L 600.996691 191.012708 
L 604.228753 190.789133 
L 607.496726 191.873609 
L 610.800611 190.047742 
L 614.104496 181.07797 
L 617.336558 187.056163 
L 620.604531 184.414695 
L 623.908416 188.791782 
L 627.212301 188.152687 
L 630.480275 188.758542 
L 633.748248 185.766308 
L 637.052133 186.962665 
L 640.356018 185.457214 
L 643.58808 185.572754 
L 646.856053 192.261409 
L 650.159938 190.075395 
L 653.463823 196.283975 
L 656.695885 201.782958 
L 659.963858 183.772472 
L 663.267743 189.519743 
L 666.571629 178.199647 
L 669.80369 180.552771 
L 673.071663 191.819788 
L 676.375548 183.913768 
L 679.679434 181.771292 
L 682.947407 187.691343 
L 686.21538 186.480244 
L 686.21538 186.480244 
" clip-path="url(#pc6e7862e98)" style="fill: none; stroke: #3b8bc2; stroke-width: 1.5; stroke-linecap: square"/>
   </g>
   <g id="line2d_40">
    <path d="M 109.076926 192.438385 
L 112.380812 190.245244 
L 115.684697 168.999419 
L 118.916758 188.705507 
L 122.184732 183.521989 
L 125.488617 197.014302 
L 128.792502 191.1367 
L 132.024563 184.105522 
L 135.292537 191.109926 
L 138.596422 201.29707 
L 141.900307 183.818179 
L 145.132368 189.04034 
L 148.400342 187.391325 
L 151.704227 188.271021 
L 155.008112 188.523102 
L 158.276085 186.026665 
L 161.544059 196.620259 
L 164.847944 185.960875 
L 168.151829 188.67577 
L 171.38389 189.793586 
L 174.651864 187.597236 
L 177.955749 193.077978 
L 181.259634 188.709328 
L 184.491695 187.75495 
L 187.759669 190.116975 
L 191.063554 191.124051 
L 194.367439 191.177488 
L 197.599501 190.371496 
L 200.867474 189.815203 
L 204.171359 191.962598 
L 207.475244 192.704656 
L 210.743217 192.046358 
L 214.011191 193.721686 
L 217.315076 190.946559 
L 220.618961 188.650872 
L 223.851023 190.18958 
L 227.118996 186.699302 
L 230.422881 188.962241 
L 233.726766 187.529296 
L 236.958828 188.776714 
L 240.226801 187.046749 
L 243.530686 189.086171 
L 246.834571 188.579096 
L 250.066633 189.220167 
L 253.334606 187.972693 
L 256.638491 188.276375 
L 259.942376 189.395184 
L 263.21035 186.144759 
L 266.478323 189.889058 
L 269.782208 193.007788 
L 273.086093 183.894475 
L 276.318155 190.129202 
L 279.586128 191.522319 
L 282.890013 190.165598 
L 289.42596 188.911929 
L 292.693933 192.924273 
L 295.997818 190.996914 
L 299.301703 193.970801 
L 302.533765 189.398287 
L 305.801738 190.012425 
L 309.105623 189.561224 
L 312.409508 188.009283 
L 315.677482 191.741173 
L 318.945455 189.867221 
L 322.24934 189.578122 
L 325.553225 188.913485 
L 328.785287 189.894138 
L 332.05326 189.524467 
L 338.66103 189.064697 
L 341.893092 189.434732 
L 345.161065 189.14407 
L 348.46495 192.295683 
L 351.768836 189.115906 
L 355.000897 191.129293 
L 358.26887 190.752698 
L 361.572755 190.791651 
L 364.876641 190.954634 
L 368.144614 189.826093 
L 371.412587 190.565916 
L 374.716472 188.64995 
L 381.252419 188.693567 
L 387.824277 188.000854 
L 391.128163 186.01055 
L 394.360224 190.340351 
L 397.628197 188.405397 
L 400.932083 190.021764 
L 404.235968 188.689052 
L 407.468029 188.516225 
L 410.736003 190.179135 
L 414.039888 187.89583 
L 417.343773 188.946158 
L 420.611746 189.732448 
L 427.183605 191.870943 
L 430.48749 191.435792 
L 433.719551 191.3401 
L 436.987525 190.556231 
L 440.29141 190.324873 
L 443.595295 189.878353 
L 446.827356 188.893712 
L 450.09533 188.985678 
L 453.399215 187.447098 
L 456.7031 189.013103 
L 459.935161 187.989944 
L 463.203135 188.419488 
L 466.50702 188.168434 
L 469.810905 187.082546 
L 473.078878 194.732725 
L 476.346852 188.816952 
L 479.650737 187.257516 
L 482.954622 189.958223 
L 486.186683 193.269554 
L 489.454657 187.129744 
L 492.758542 189.379219 
L 496.062427 190.465392 
L 499.294488 188.378976 
L 502.562462 189.237779 
L 505.866347 192.144791 
L 509.170232 186.822062 
L 515.670267 191.565868 
L 518.974152 192.32914 
L 522.278037 191.740812 
L 525.54601 192.438037 
L 528.813984 192.606971 
L 532.117869 192.898034 
L 535.421754 192.044431 
L 538.653816 192.886168 
L 541.921789 186.188598 
L 545.225674 190.120676 
L 548.529559 185.845613 
L 551.761621 186.020831 
L 555.029594 187.453871 
L 558.333479 185.868718 
L 561.637364 186.267448 
L 564.869426 188.070529 
L 568.137399 187.544269 
L 571.441284 190.606501 
L 574.745169 187.849498 
L 578.013143 189.9668 
L 581.281116 188.690292 
L 584.585001 189.798335 
L 587.888886 186.774987 
L 594.388921 188.33784 
L 597.692806 188.897919 
L 600.996691 188.163353 
L 604.228753 188.463504 
L 607.496726 190.435943 
L 610.800611 190.652147 
L 614.104496 187.888531 
L 617.336558 189.232413 
L 620.604531 188.415532 
L 623.908416 189.317346 
L 627.212301 189.092812 
L 630.480275 190.441046 
L 633.748248 190.103448 
L 637.052133 190.498597 
L 640.356018 189.809004 
L 643.58808 186.824868 
L 646.856053 189.646785 
L 650.159938 187.266355 
L 653.463823 190.600825 
L 656.695885 195.603875 
L 659.963858 192.831503 
L 663.267743 189.664444 
L 666.571629 188.914999 
L 669.80369 186.749898 
L 673.071663 195.664501 
L 679.679434 185.942217 
L 682.947407 189.69626 
L 686.21538 188.743047 
L 686.21538 188.743047 
" clip-path="url(#pc6e7862e98)" style="fill: none; stroke: #75b4d8; stroke-width: 1.5; stroke-linecap: square"/>
   </g>
   <g id="line2d_41">
    <path d="M 109.076926 183.965987 
L 112.380812 190.23624 
L 115.684697 188.715261 
L 118.916758 187.088954 
L 122.184732 188.382128 
L 125.488617 189.858853 
L 128.792502 192.424547 
L 132.024563 188.465975 
L 135.292537 188.521601 
L 138.596422 194.567417 
L 141.900307 186.516741 
L 145.132368 188.46839 
L 148.400342 189.061998 
L 151.704227 189.398794 
L 155.008112 189.012958 
L 158.276085 190.076928 
L 161.544059 188.831704 
L 164.847944 188.573079 
L 168.151829 188.831411 
L 171.38389 188.233849 
L 174.651864 187.962625 
L 177.955749 186.261965 
L 181.259634 190.205836 
L 184.491695 190.35204 
L 187.759669 189.017442 
L 191.063554 189.099551 
L 194.367439 189.701357 
L 197.599501 189.823922 
L 200.867474 189.743132 
L 204.171359 189.374817 
L 207.475244 193.372841 
L 210.743217 189.591904 
L 214.011191 190.654333 
L 217.315076 189.894376 
L 220.618961 192.3587 
L 223.851023 190.17644 
L 227.118996 190.695942 
L 230.422881 190.129795 
L 236.958828 188.402411 
L 240.226801 189.99758 
L 243.530686 189.505721 
L 246.834571 189.758527 
L 250.066633 188.337635 
L 253.334606 190.170723 
L 256.638491 189.773055 
L 259.942376 189.827084 
L 263.21035 189.156289 
L 266.478323 190.111034 
L 269.782208 188.833084 
L 273.086093 188.991222 
L 276.318155 189.605481 
L 279.586128 188.44627 
L 282.890013 188.741551 
L 286.193898 189.234903 
L 289.42596 190.030301 
L 292.693933 189.567349 
L 295.997818 186.930807 
L 299.301703 193.675826 
L 302.533765 186.863091 
L 305.801738 188.187648 
L 309.105623 188.311897 
L 312.409508 190.298548 
L 315.677482 187.514911 
L 318.945455 188.718392 
L 322.24934 189.790991 
L 325.553225 187.924164 
L 328.785287 188.359724 
L 332.05326 188.304485 
L 335.357145 190.892582 
L 338.66103 188.144082 
L 341.893092 188.773506 
L 345.161065 189.865903 
L 348.46495 188.117603 
L 351.768836 189.408041 
L 355.000897 188.916212 
L 358.26887 189.966007 
L 361.572755 189.715646 
L 364.876641 191.47892 
L 368.144614 189.384822 
L 371.412587 191.160319 
L 374.716472 190.319124 
L 378.020357 189.328214 
L 381.252419 189.063926 
L 384.520392 188.95473 
L 387.824277 188.483663 
L 391.128163 186.547735 
L 394.360224 189.494089 
L 397.628197 187.062842 
L 400.932083 189.889552 
L 404.235968 188.835664 
L 407.468029 188.763551 
L 410.736003 189.565083 
L 414.039888 188.79346 
L 417.343773 188.396665 
L 420.611746 188.89758 
L 423.879719 188.742179 
L 427.183605 188.743594 
L 430.48749 189.027463 
L 433.719551 188.901653 
L 436.987525 189.151516 
L 440.29141 191.644026 
L 443.595295 188.030233 
L 446.827356 189.131236 
L 450.09533 189.625389 
L 453.399215 189.660878 
L 456.7031 189.099824 
L 459.935161 189.699152 
L 463.203135 189.229874 
L 469.810905 191.679023 
L 473.078878 188.89435 
L 476.346852 189.302812 
L 479.650737 192.534792 
L 482.954622 191.571868 
L 486.186683 189.346663 
L 489.454657 191.507652 
L 492.758542 190.4601 
L 496.062427 189.875322 
L 499.294488 190.193515 
L 502.562462 190.117723 
L 505.866347 189.862134 
L 509.170232 190.251411 
L 512.402294 189.128868 
L 515.670267 190.824729 
L 518.974152 188.996457 
L 522.278037 189.589529 
L 525.54601 189.482951 
L 528.813984 188.457999 
L 532.117869 188.938671 
L 535.421754 189.275243 
L 538.653816 188.907321 
L 541.921789 190.947137 
L 545.225674 190.538001 
L 548.529559 191.635515 
L 551.761621 188.98403 
L 555.029594 189.220148 
L 558.333479 188.064191 
L 561.637364 189.477045 
L 564.869426 189.416508 
L 568.137399 189.91251 
L 571.441284 189.365829 
L 574.745169 189.806747 
L 581.281116 189.847757 
L 584.585001 189.238056 
L 587.888886 190.147215 
L 591.120948 189.261584 
L 594.388921 189.87117 
L 597.692806 189.503004 
L 600.996691 189.691879 
L 604.228753 189.359609 
L 607.496726 190.299137 
L 610.800611 189.403594 
L 614.104496 189.678742 
L 617.336558 189.499128 
L 620.604531 189.754592 
L 623.908416 189.482599 
L 637.052133 189.333767 
L 640.356018 190.168128 
L 643.58808 191.684794 
L 646.856053 189.238655 
L 650.159938 189.762522 
L 653.463823 188.912386 
L 656.695885 187.310234 
L 659.963858 193.461471 
L 663.267743 186.907579 
L 666.571629 188.891503 
L 669.80369 190.074527 
L 673.071663 193.830519 
L 676.375548 189.844356 
L 679.679434 189.038867 
L 686.21538 189.253345 
L 686.21538 189.253345 
" clip-path="url(#pc6e7862e98)" style="fill: none; stroke: #b7d4ea; stroke-width: 1.5; stroke-linecap: square"/>
   </g>
   <g id="text_20">
    <!-- v -->
    <g transform="translate(391.851006 23.804405) scale(0.24 -0.24)">
     <defs>
      <path id="CMR17-76" d="M 2502 2163 
C 2560 2304 2662 2560 3034 2560 
L 3034 2726 
C 2912 2726 2752 2726 2630 2726 
C 2496 2726 2285 2726 2157 2732 
L 2157 2566 
C 2317 2553 2406 2477 2406 2311 
C 2406 2253 2406 2240 2368 2151 
L 1664 377 
L 902 2286 
C 864 2369 864 2381 864 2407 
C 864 2560 1075 2560 1171 2560 
L 1171 2732 
C 1018 2726 736 2726 576 2726 
C 403 2726 205 2726 64 2732 
L 64 2560 
C 307 2560 442 2560 518 2362 
L 1446 44 
C 1485 -51 1491 -64 1549 -64 
C 1606 -64 1613 -51 1651 44 
L 2502 2163 
z
" transform="scale(0.015625)"/>
     </defs>
     <use xlink:href="#CMR17-76" transform="scale(0.996264)"/>
    </g>
   </g>
   <g id="legend_1">
    <g id="patch_3">
     <path d="M 648.587936 170.262308 
L 708.072303 170.262308 
Q 710.072303 170.262308 710.072303 168.262308 
L 710.072303 36.804405 
Q 710.072303 34.804405 708.072303 34.804405 
L 648.587936 34.804405 
Q 646.587936 34.804405 646.587936 36.804405 
L 646.587936 168.262308 
Q 646.587936 170.262308 648.587936 170.262308 
z
" style="fill: #ffffff; opacity: 0.8; stroke: #cccccc; stroke-linejoin: miter"/>
    </g>
    <g id="line2d_42">
     <path d="M 650.587936 50.525099 
L 660.587936 50.525099 
L 670.587936 50.525099 
" style="fill: none; stroke: #08306b; stroke-width: 1.5; stroke-linecap: square"/>
    </g>
    <g id="text_21">
     <!-- $v_{1,t}$ -->
     <g transform="translate(678.587936 54.025099) scale(0.22 -0.22)">
      <defs>
       <path id="CMMI12-76" d="M 2925 2389 
C 2925 2791 2720 2816 2669 2816 
C 2515 2816 2374 2663 2374 2535 
C 2374 2459 2419 2414 2445 2389 
C 2509 2331 2675 2159 2675 1827 
C 2675 1558 2291 64 1523 64 
C 1133 64 1056 390 1056 626 
C 1056 945 1203 1392 1376 1852 
C 1478 2114 1504 2178 1504 2305 
C 1504 2574 1312 2816 998 2816 
C 410 2816 173 1890 173 1839 
C 173 1814 198 1782 243 1782 
C 301 1782 307 1807 333 1897 
C 486 2446 736 2689 979 2689 
C 1037 2689 1146 2689 1146 2478 
C 1146 2312 1075 2127 979 1884 
C 672 1067 672 869 672 715 
C 672 575 691 313 890 134 
C 1120 -64 1440 -64 1498 -64 
C 2560 -64 2925 2024 2925 2389 
z
" transform="scale(0.015625)"/>
       <path id="CMMI12-3b" d="M 1248 -31 
C 1248 343 1126 619 864 619 
C 659 619 557 453 557 313 
C 557 172 653 0 870 0 
C 954 0 1024 26 1082 83 
C 1094 96 1101 96 1107 96 
C 1120 96 1120 5 1120 -27 
C 1120 -240 1082 -659 710 -1080 
C 640 -1157 640 -1170 640 -1183 
C 640 -1216 672 -1248 704 -1248 
C 755 -1248 1248 -771 1248 -31 
z
" transform="scale(0.015625)"/>
       <path id="CMMI12-74" d="M 1286 2566 
L 1875 2566 
C 1997 2566 2061 2566 2061 2681 
C 2061 2752 2022 2752 1894 2752 
L 1331 2752 
L 1568 3692 
C 1594 3781 1594 3794 1594 3840 
C 1594 3943 1510 4000 1427 4000 
C 1376 4000 1229 3981 1178 3775 
L 928 2752 
L 326 2752 
C 198 2752 141 2752 141 2630 
C 141 2566 186 2566 307 2566 
L 877 2566 
L 454 881 
C 403 658 384 594 384 511 
C 384 211 595 -64 954 -64 
C 1600 -64 1946 868 1946 912 
C 1946 951 1920 970 1882 970 
C 1869 970 1843 970 1830 944 
C 1824 938 1818 931 1773 829 
C 1638 511 1344 64 973 64 
C 781 64 768 224 768 364 
C 768 370 768 492 787 568 
L 1286 2566 
z
" transform="scale(0.015625)"/>
      </defs>
      <use xlink:href="#CMMI12-76" transform="scale(0.996264)"/>
      <use xlink:href="#CMR17-31" transform="translate(47.160581 -14.943915) scale(0.697382)"/>
      <use xlink:href="#CMMI12-3b" transform="translate(79.143763 -14.943915) scale(0.697382)"/>
      <use xlink:href="#CMMI12-74" transform="translate(98.111695 -14.943915) scale(0.697382)"/>
     </g>
    </g>
    <g id="line2d_43">
     <path d="M 650.587936 77.016679 
L 660.587936 77.016679 
L 670.587936 77.016679 
" style="fill: none; stroke: #125da6; stroke-width: 1.5; stroke-linecap: square"/>
    </g>
    <g id="text_22">
     <!-- $v_{2,t}$ -->
     <g transform="translate(678.587936 80.516679) scale(0.22 -0.22)">
      <use xlink:href="#CMMI12-76" transform="scale(0.996264)"/>
      <use xlink:href="#CMR17-32" transform="translate(47.160581 -14.943915) scale(0.697382)"/>
      <use xlink:href="#CMMI12-3b" transform="translate(79.143763 -14.943915) scale(0.697382)"/>
      <use xlink:href="#CMMI12-74" transform="translate(98.111695 -14.943915) scale(0.697382)"/>
     </g>
    </g>
    <g id="line2d_44">
     <path d="M 650.587936 103.50826 
L 660.587936 103.50826 
L 670.587936 103.50826 
" style="fill: none; stroke: #3b8bc2; stroke-width: 1.5; stroke-linecap: square"/>
    </g>
    <g id="text_23">
     <!-- $v_{3,t}$ -->
     <g transform="translate(678.587936 107.00826) scale(0.22 -0.22)">
      <defs>
       <path id="CMR17-33" d="M 1414 2157 
C 1984 2157 2234 1662 2234 1090 
C 2234 320 1824 25 1453 25 
C 1114 25 563 194 390 693 
C 422 680 454 680 486 680 
C 640 680 755 782 755 948 
C 755 1133 614 1216 486 1216 
C 378 1216 211 1165 211 926 
C 211 335 787 -128 1466 -128 
C 2176 -128 2720 430 2720 1085 
C 2720 1707 2208 2157 1600 2227 
C 2086 2328 2554 2756 2554 3329 
C 2554 3820 2048 4179 1472 4179 
C 890 4179 378 3829 378 3329 
C 378 3110 544 3072 627 3072 
C 762 3072 877 3155 877 3321 
C 877 3486 762 3569 627 3569 
C 602 3569 570 3569 544 3557 
C 730 3959 1235 4032 1459 4032 
C 1683 4032 2106 3925 2106 3320 
C 2106 3143 2080 2828 1862 2550 
C 1670 2304 1453 2304 1242 2284 
C 1210 2284 1062 2269 1037 2269 
C 992 2263 966 2257 966 2208 
C 966 2163 973 2157 1101 2157 
L 1414 2157 
z
" transform="scale(0.015625)"/>
      </defs>
      <use xlink:href="#CMMI12-76" transform="scale(0.996264)"/>
      <use xlink:href="#CMR17-33" transform="translate(47.160581 -14.943915) scale(0.697382)"/>
      <use xlink:href="#CMMI12-3b" transform="translate(79.143763 -14.943915) scale(0.697382)"/>
      <use xlink:href="#CMMI12-74" transform="translate(98.111695 -14.943915) scale(0.697382)"/>
     </g>
    </g>
    <g id="line2d_45">
     <path d="M 650.587936 129.999841 
L 660.587936 129.999841 
L 670.587936 129.999841 
" style="fill: none; stroke: #75b4d8; stroke-width: 1.5; stroke-linecap: square"/>
    </g>
    <g id="text_24">
     <!-- $v_{4,t}$ -->
     <g transform="translate(678.587936 133.499841) scale(0.22 -0.22)">
      <defs>
       <path id="CMR17-34" d="M 2150 4122 
C 2150 4256 2144 4256 2029 4256 
L 128 1254 
L 128 1088 
L 1779 1088 
L 1779 457 
C 1779 224 1766 160 1318 160 
L 1197 160 
L 1197 0 
C 1402 0 1747 0 1965 0 
C 2182 0 2528 0 2733 0 
L 2733 160 
L 2611 160 
C 2163 160 2150 224 2150 457 
L 2150 1088 
L 2803 1088 
L 2803 1254 
L 2150 1254 
L 2150 4122 
z
M 1798 3703 
L 1798 1254 
L 256 1254 
L 1798 3703 
z
" transform="scale(0.015625)"/>
      </defs>
      <use xlink:href="#CMMI12-76" transform="scale(0.996264)"/>
      <use xlink:href="#CMR17-34" transform="translate(47.160581 -14.943915) scale(0.697382)"/>
      <use xlink:href="#CMMI12-3b" transform="translate(79.143763 -14.943915) scale(0.697382)"/>
      <use xlink:href="#CMMI12-74" transform="translate(98.111695 -14.943915) scale(0.697382)"/>
     </g>
    </g>
    <g id="line2d_46">
     <path d="M 650.587936 156.491421 
L 660.587936 156.491421 
L 670.587936 156.491421 
" style="fill: none; stroke: #b7d4ea; stroke-width: 1.5; stroke-linecap: square"/>
    </g>
    <g id="text_25">
     <!-- $v_{5,t}$ -->
     <g transform="translate(678.587936 159.991421) scale(0.22 -0.22)">
      <use xlink:href="#CMMI12-76" transform="scale(0.996264)"/>
      <use xlink:href="#CMR17-35" transform="translate(47.160581 -14.943915) scale(0.697382)"/>
      <use xlink:href="#CMMI12-3b" transform="translate(79.143763 -14.943915) scale(0.697382)"/>
      <use xlink:href="#CMMI12-74" transform="translate(98.111695 -14.943915) scale(0.697382)"/>
     </g>
    </g>
   </g>
  </g>
 </g>
 <defs>
  <clipPath id="pc6e7862e98">
   <rect x="80.220004" y="29.804405" width="634.852299" height="361.311714"/>
  </clipPath>
 </defs>
</svg>
