<?xml version="1.0" encoding="utf-8" standalone="no"?>
<!DOCTYPE svg PUBLIC "-//W3C//DTD SVG 1.1//EN"
  "http://www.w3.org/Graphics/SVG/1.1/DTD/svg11.dtd">
<svg xmlns:xlink="http://www.w3.org/1999/xlink" width="712.253277pt" height="424.8pt" viewBox="0 0 712.253277 424.8" xmlns="http://www.w3.org/2000/svg" version="1.1">
 <metadata>
  <rdf:RDF xmlns:dc="http://purl.org/dc/elements/1.1/" xmlns:cc="http://creativecommons.org/ns#" xmlns:rdf="http://www.w3.org/1999/02/22-rdf-syntax-ns#">
   <cc:Work>
    <dc:type rdf:resource="http://purl.org/dc/dcmitype/StillImage"/>
    <dc:date>2025-01-15T16:26:27.104443</dc:date>
    <dc:format>image/svg+xml</dc:format>
    <dc:creator>
     <cc:Agent>
      <dc:title>Matplotlib v3.10.0, https://matplotlib.org/</dc:title>
     </cc:Agent>
    </dc:creator>
   </cc:Work>
  </rdf:RDF>
 </metadata>
 <defs>
  <style type="text/css">*{stroke-linejoin: round; stroke-linecap: butt}</style>
 </defs>
 <g id="figure_1">
  <g id="patch_1">
   <path d="M 0 424.8 
L 712.253277 424.8 
L 712.253277 0 
L 0 0 
z
" style="fill: #1c1c1c"/>
  </g>
  <g id="axes_1">
   <g id="patch_2">
    <path d="M 70.168099 391.116119 
L 705.053277 391.116119 
L 705.053277 29.804405 
L 70.168099 29.804405 
z
" style="fill: #1c1c1c"/>
   </g>
   <g id="matplotlib.axis_1">
    <g id="xtick_1">
     <g id="line2d_1">
      <path d="M 95.812486 391.116119 
L 95.812486 29.804405 
" clip-path="url(#p2c4456d2f7)" style="fill: none; stroke: #404040; stroke-opacity: 0.3; stroke-width: 0.75; stroke-linecap: square"/>
     </g>
     <g id="line2d_2">
      <defs>
       <path id="m1c34dfd195" d="M 0 0 
L 0 3.5 
" style="stroke: #ffffff; stroke-width: 0.8"/>
      </defs>
      <g>
       <use xlink:href="#m1c34dfd195" x="95.812486" y="391.116119" style="fill: #ffffff; stroke: #ffffff; stroke-width: 0.8"/>
      </g>
     </g>
     <g id="text_1">
      <!-- $\mathdefault{1980}$ -->
      <g style="fill: #ffffff" transform="translate(75.708676 413.336812) scale(0.22 -0.22)">
       <defs>
        <path id="CMR17-31" d="M 1702 4058 
C 1702 4192 1696 4192 1606 4192 
C 1357 3916 979 3827 621 3827 
C 602 3827 570 3827 563 3808 
C 557 3795 557 3782 557 3648 
C 755 3648 1088 3686 1344 3839 
L 1344 461 
C 1344 236 1331 160 781 160 
L 589 160 
L 589 0 
C 896 0 1216 0 1523 0 
C 1830 0 2150 0 2458 0 
L 2458 160 
L 2266 160 
C 1715 160 1702 230 1702 458 
L 1702 4058 
z
" transform="scale(0.015625)"/>
        <path id="CMR17-39" d="M 2253 1864 
C 2253 464 1670 31 1190 31 
C 1043 31 685 31 538 294 
C 704 268 826 357 826 518 
C 826 692 685 749 595 749 
C 538 749 365 723 365 506 
C 365 71 742 -128 1203 -128 
C 1939 -128 2688 674 2688 2073 
C 2688 3817 1971 4179 1485 4179 
C 851 4179 243 3628 243 2778 
C 243 1991 762 1408 1414 1408 
C 1952 1408 2189 1903 2253 2112 
L 2253 1864 
z
M 1427 1510 
C 1254 1510 1011 1542 813 1922 
C 678 2169 678 2461 678 2771 
C 678 3146 678 3405 858 3684 
C 947 3817 1114 4032 1485 4032 
C 2240 4032 2240 2885 2240 2632 
C 2240 2182 2035 1510 1427 1510 
z
" transform="scale(0.015625)"/>
        <path id="CMR17-38" d="M 1741 2264 
C 2144 2467 2554 2773 2554 3263 
C 2554 3841 1990 4179 1472 4179 
C 890 4179 378 3759 378 3180 
C 378 3021 416 2747 666 2505 
C 730 2442 998 2251 1171 2130 
C 883 1983 211 1634 211 934 
C 211 279 838 -128 1459 -128 
C 2144 -128 2720 362 2720 1010 
C 2720 1590 2330 1857 2074 2029 
L 1741 2264 
z
M 902 2822 
C 851 2854 595 3051 595 3351 
C 595 3739 998 4032 1459 4032 
C 1965 4032 2336 3676 2336 3262 
C 2336 2669 1670 2331 1638 2331 
C 1632 2331 1626 2331 1574 2370 
L 902 2822 
z
M 2080 1519 
C 2176 1449 2483 1240 2483 851 
C 2483 381 2010 25 1472 25 
C 890 25 448 438 448 940 
C 448 1443 838 1862 1280 2060 
L 2080 1519 
z
" transform="scale(0.015625)"/>
        <path id="CMR17-30" d="M 2688 2025 
C 2688 2416 2682 3080 2413 3591 
C 2176 4039 1798 4198 1466 4198 
C 1158 4198 768 4058 525 3597 
C 269 3118 243 2524 243 2025 
C 243 1661 250 1106 448 619 
C 723 -39 1216 -128 1466 -128 
C 1760 -128 2208 -7 2470 600 
C 2662 1042 2688 1559 2688 2025 
z
M 1466 -26 
C 1056 -26 813 325 723 812 
C 653 1188 653 1738 653 2096 
C 653 2588 653 2997 736 3387 
C 858 3929 1216 4096 1466 4096 
C 1728 4096 2067 3923 2189 3400 
C 2272 3036 2278 2607 2278 2096 
C 2278 1680 2278 1169 2202 792 
C 2067 95 1690 -26 1466 -26 
z
" transform="scale(0.015625)"/>
       </defs>
       <use xlink:href="#CMR17-31" transform="scale(0.996264)"/>
       <use xlink:href="#CMR17-39" transform="translate(45.690477 0) scale(0.996264)"/>
       <use xlink:href="#CMR17-38" transform="translate(91.380954 0) scale(0.996264)"/>
       <use xlink:href="#CMR17-30" transform="translate(137.071431 0) scale(0.996264)"/>
      </g>
     </g>
    </g>
    <g id="xtick_2">
     <g id="line2d_3">
      <path d="M 161.057293 391.116119 
L 161.057293 29.804405 
" clip-path="url(#p2c4456d2f7)" style="fill: none; stroke: #404040; stroke-opacity: 0.3; stroke-width: 0.75; stroke-linecap: square"/>
     </g>
     <g id="line2d_4">
      <g>
       <use xlink:href="#m1c34dfd195" x="161.057293" y="391.116119" style="fill: #ffffff; stroke: #ffffff; stroke-width: 0.8"/>
      </g>
     </g>
     <g id="text_2">
      <!-- $\mathdefault{1985}$ -->
      <g style="fill: #ffffff" transform="translate(140.953483 413.336812) scale(0.22 -0.22)">
       <defs>
        <path id="CMR17-35" d="M 730 3692 
C 794 3666 1056 3584 1325 3584 
C 1920 3584 2246 3911 2432 4100 
C 2432 4157 2432 4192 2394 4192 
C 2387 4192 2374 4192 2323 4163 
C 2099 4058 1837 3973 1517 3973 
C 1325 3973 1037 3999 723 4139 
C 653 4171 640 4171 634 4171 
C 602 4171 595 4164 595 4037 
L 595 2203 
C 595 2089 595 2057 659 2057 
C 691 2057 704 2070 736 2114 
C 941 2401 1222 2522 1542 2522 
C 1766 2522 2246 2382 2246 1289 
C 2246 1085 2246 715 2054 421 
C 1894 159 1645 25 1370 25 
C 947 25 518 320 403 814 
C 429 807 480 795 506 795 
C 589 795 749 840 749 1038 
C 749 1210 627 1280 506 1280 
C 358 1280 262 1190 262 1011 
C 262 454 704 -128 1382 -128 
C 2042 -128 2669 440 2669 1264 
C 2669 2030 2170 2624 1549 2624 
C 1222 2624 947 2503 730 2274 
L 730 3692 
z
" transform="scale(0.015625)"/>
       </defs>
       <use xlink:href="#CMR17-31" transform="scale(0.996264)"/>
       <use xlink:href="#CMR17-39" transform="translate(45.690477 0) scale(0.996264)"/>
       <use xlink:href="#CMR17-38" transform="translate(91.380954 0) scale(0.996264)"/>
       <use xlink:href="#CMR17-35" transform="translate(137.071431 0) scale(0.996264)"/>
      </g>
     </g>
    </g>
    <g id="xtick_3">
     <g id="line2d_5">
      <path d="M 226.266388 391.116119 
L 226.266388 29.804405 
" clip-path="url(#p2c4456d2f7)" style="fill: none; stroke: #404040; stroke-opacity: 0.3; stroke-width: 0.75; stroke-linecap: square"/>
     </g>
     <g id="line2d_6">
      <g>
       <use xlink:href="#m1c34dfd195" x="226.266388" y="391.116119" style="fill: #ffffff; stroke: #ffffff; stroke-width: 0.8"/>
      </g>
     </g>
     <g id="text_3">
      <!-- $\mathdefault{1990}$ -->
      <g style="fill: #ffffff" transform="translate(206.162578 413.336812) scale(0.22 -0.22)">
       <use xlink:href="#CMR17-31" transform="scale(0.996264)"/>
       <use xlink:href="#CMR17-39" transform="translate(45.690477 0) scale(0.996264)"/>
       <use xlink:href="#CMR17-39" transform="translate(91.380954 0) scale(0.996264)"/>
       <use xlink:href="#CMR17-30" transform="translate(137.071431 0) scale(0.996264)"/>
      </g>
     </g>
    </g>
    <g id="xtick_4">
     <g id="line2d_7">
      <path d="M 291.475483 391.116119 
L 291.475483 29.804405 
" clip-path="url(#p2c4456d2f7)" style="fill: none; stroke: #404040; stroke-opacity: 0.3; stroke-width: 0.75; stroke-linecap: square"/>
     </g>
     <g id="line2d_8">
      <g>
       <use xlink:href="#m1c34dfd195" x="291.475483" y="391.116119" style="fill: #ffffff; stroke: #ffffff; stroke-width: 0.8"/>
      </g>
     </g>
     <g id="text_4">
      <!-- $\mathdefault{1995}$ -->
      <g style="fill: #ffffff" transform="translate(271.371673 413.336812) scale(0.22 -0.22)">
       <use xlink:href="#CMR17-31" transform="scale(0.996264)"/>
       <use xlink:href="#CMR17-39" transform="translate(45.690477 0) scale(0.996264)"/>
       <use xlink:href="#CMR17-39" transform="translate(91.380954 0) scale(0.996264)"/>
       <use xlink:href="#CMR17-35" transform="translate(137.071431 0) scale(0.996264)"/>
      </g>
     </g>
    </g>
    <g id="xtick_5">
     <g id="line2d_9">
      <path d="M 356.684578 391.116119 
L 356.684578 29.804405 
" clip-path="url(#p2c4456d2f7)" style="fill: none; stroke: #404040; stroke-opacity: 0.3; stroke-width: 0.75; stroke-linecap: square"/>
     </g>
     <g id="line2d_10">
      <g>
       <use xlink:href="#m1c34dfd195" x="356.684578" y="391.116119" style="fill: #ffffff; stroke: #ffffff; stroke-width: 0.8"/>
      </g>
     </g>
     <g id="text_5">
      <!-- $\mathdefault{2000}$ -->
      <g style="fill: #ffffff" transform="translate(336.580768 413.336812) scale(0.22 -0.22)">
       <defs>
        <path id="CMR17-32" d="M 2669 989 
L 2554 989 
C 2490 536 2438 459 2413 420 
C 2381 369 1920 369 1830 369 
L 602 369 
C 832 619 1280 1072 1824 1597 
C 2214 1967 2669 2402 2669 3035 
C 2669 3790 2067 4224 1395 4224 
C 691 4224 262 3604 262 3030 
C 262 2780 448 2748 525 2748 
C 589 2748 781 2787 781 3010 
C 781 3207 614 3264 525 3264 
C 486 3264 448 3258 422 3245 
C 544 3790 915 4058 1306 4058 
C 1862 4058 2227 3617 2227 3035 
C 2227 2479 1901 2000 1536 1584 
L 262 146 
L 262 0 
L 2515 0 
L 2669 989 
z
" transform="scale(0.015625)"/>
       </defs>
       <use xlink:href="#CMR17-32" transform="scale(0.996264)"/>
       <use xlink:href="#CMR17-30" transform="translate(45.690477 0) scale(0.996264)"/>
       <use xlink:href="#CMR17-30" transform="translate(91.380954 0) scale(0.996264)"/>
       <use xlink:href="#CMR17-30" transform="translate(137.071431 0) scale(0.996264)"/>
      </g>
     </g>
    </g>
    <g id="xtick_6">
     <g id="line2d_11">
      <path d="M 421.929385 391.116119 
L 421.929385 29.804405 
" clip-path="url(#p2c4456d2f7)" style="fill: none; stroke: #404040; stroke-opacity: 0.3; stroke-width: 0.75; stroke-linecap: square"/>
     </g>
     <g id="line2d_12">
      <g>
       <use xlink:href="#m1c34dfd195" x="421.929385" y="391.116119" style="fill: #ffffff; stroke: #ffffff; stroke-width: 0.8"/>
      </g>
     </g>
     <g id="text_6">
      <!-- $\mathdefault{2005}$ -->
      <g style="fill: #ffffff" transform="translate(401.825575 413.336812) scale(0.22 -0.22)">
       <use xlink:href="#CMR17-32" transform="scale(0.996264)"/>
       <use xlink:href="#CMR17-30" transform="translate(45.690477 0) scale(0.996264)"/>
       <use xlink:href="#CMR17-30" transform="translate(91.380954 0) scale(0.996264)"/>
       <use xlink:href="#CMR17-35" transform="translate(137.071431 0) scale(0.996264)"/>
      </g>
     </g>
    </g>
    <g id="xtick_7">
     <g id="line2d_13">
      <path d="M 487.13848 391.116119 
L 487.13848 29.804405 
" clip-path="url(#p2c4456d2f7)" style="fill: none; stroke: #404040; stroke-opacity: 0.3; stroke-width: 0.75; stroke-linecap: square"/>
     </g>
     <g id="line2d_14">
      <g>
       <use xlink:href="#m1c34dfd195" x="487.13848" y="391.116119" style="fill: #ffffff; stroke: #ffffff; stroke-width: 0.8"/>
      </g>
     </g>
     <g id="text_7">
      <!-- $\mathdefault{2010}$ -->
      <g style="fill: #ffffff" transform="translate(467.03467 413.336812) scale(0.22 -0.22)">
       <use xlink:href="#CMR17-32" transform="scale(0.996264)"/>
       <use xlink:href="#CMR17-30" transform="translate(45.690477 0) scale(0.996264)"/>
       <use xlink:href="#CMR17-31" transform="translate(91.380954 0) scale(0.996264)"/>
       <use xlink:href="#CMR17-30" transform="translate(137.071431 0) scale(0.996264)"/>
      </g>
     </g>
    </g>
    <g id="xtick_8">
     <g id="line2d_15">
      <path d="M 552.347575 391.116119 
L 552.347575 29.804405 
" clip-path="url(#p2c4456d2f7)" style="fill: none; stroke: #404040; stroke-opacity: 0.3; stroke-width: 0.75; stroke-linecap: square"/>
     </g>
     <g id="line2d_16">
      <g>
       <use xlink:href="#m1c34dfd195" x="552.347575" y="391.116119" style="fill: #ffffff; stroke: #ffffff; stroke-width: 0.8"/>
      </g>
     </g>
     <g id="text_8">
      <!-- $\mathdefault{2015}$ -->
      <g style="fill: #ffffff" transform="translate(532.243765 413.336812) scale(0.22 -0.22)">
       <use xlink:href="#CMR17-32" transform="scale(0.996264)"/>
       <use xlink:href="#CMR17-30" transform="translate(45.690477 0) scale(0.996264)"/>
       <use xlink:href="#CMR17-31" transform="translate(91.380954 0) scale(0.996264)"/>
       <use xlink:href="#CMR17-35" transform="translate(137.071431 0) scale(0.996264)"/>
      </g>
     </g>
    </g>
    <g id="xtick_9">
     <g id="line2d_17">
      <path d="M 617.55667 391.116119 
L 617.55667 29.804405 
" clip-path="url(#p2c4456d2f7)" style="fill: none; stroke: #404040; stroke-opacity: 0.3; stroke-width: 0.75; stroke-linecap: square"/>
     </g>
     <g id="line2d_18">
      <g>
       <use xlink:href="#m1c34dfd195" x="617.55667" y="391.116119" style="fill: #ffffff; stroke: #ffffff; stroke-width: 0.8"/>
      </g>
     </g>
     <g id="text_9">
      <!-- $\mathdefault{2020}$ -->
      <g style="fill: #ffffff" transform="translate(597.45286 413.336812) scale(0.22 -0.22)">
       <use xlink:href="#CMR17-32" transform="scale(0.996264)"/>
       <use xlink:href="#CMR17-30" transform="translate(45.690477 0) scale(0.996264)"/>
       <use xlink:href="#CMR17-32" transform="translate(91.380954 0) scale(0.996264)"/>
       <use xlink:href="#CMR17-30" transform="translate(137.071431 0) scale(0.996264)"/>
      </g>
     </g>
    </g>
    <g id="xtick_10">
     <g id="line2d_19">
      <path d="M 682.801477 391.116119 
L 682.801477 29.804405 
" clip-path="url(#p2c4456d2f7)" style="fill: none; stroke: #404040; stroke-opacity: 0.3; stroke-width: 0.75; stroke-linecap: square"/>
     </g>
     <g id="line2d_20">
      <g>
       <use xlink:href="#m1c34dfd195" x="682.801477" y="391.116119" style="fill: #ffffff; stroke: #ffffff; stroke-width: 0.8"/>
      </g>
     </g>
     <g id="text_10">
      <!-- $\mathdefault{2025}$ -->
      <g style="fill: #ffffff" transform="translate(662.697667 413.336812) scale(0.22 -0.22)">
       <use xlink:href="#CMR17-32" transform="scale(0.996264)"/>
       <use xlink:href="#CMR17-30" transform="translate(45.690477 0) scale(0.996264)"/>
       <use xlink:href="#CMR17-32" transform="translate(91.380954 0) scale(0.996264)"/>
       <use xlink:href="#CMR17-35" transform="translate(137.071431 0) scale(0.996264)"/>
      </g>
     </g>
    </g>
   </g>
   <g id="matplotlib.axis_2">
    <g id="ytick_1">
     <g id="line2d_21">
      <path d="M 70.168099 358.512485 
L 705.053277 358.512485 
" clip-path="url(#p2c4456d2f7)" style="fill: none; stroke: #404040; stroke-opacity: 0.3; stroke-width: 0.75; stroke-linecap: square"/>
     </g>
     <g id="line2d_22">
      <defs>
       <path id="m2124fd920c" d="M 0 0 
L -3.5 0 
" style="stroke: #ffffff; stroke-width: 0.8"/>
      </defs>
      <g>
       <use xlink:href="#m2124fd920c" x="70.168099" y="358.512485" style="fill: #ffffff; stroke: #ffffff; stroke-width: 0.8"/>
      </g>
     </g>
     <g id="text_11">
      <!-- $\mathdefault{−0.2}$ -->
      <g style="fill: #ffffff" transform="translate(20.055677 366.122832) scale(0.22 -0.22)">
       <defs>
        <path id="CMSY10-0" d="M 4218 1472 
C 4326 1472 4442 1472 4442 1600 
C 4442 1728 4326 1728 4218 1728 
L 755 1728 
C 646 1728 531 1728 531 1600 
C 531 1472 646 1472 755 1472 
L 4218 1472 
z
" transform="scale(0.015625)"/>
        <path id="CMMI12-3a" d="M 1178 307 
C 1178 492 1024 619 870 619 
C 685 619 557 466 557 313 
C 557 128 710 0 864 0 
C 1050 0 1178 153 1178 307 
z
" transform="scale(0.015625)"/>
       </defs>
       <use xlink:href="#CMSY10-0" transform="scale(0.996264)"/>
       <use xlink:href="#CMR17-30" transform="translate(77.487468 0) scale(0.996264)"/>
       <use xlink:href="#CMMI12-3a" transform="translate(123.177945 0) scale(0.996264)"/>
       <use xlink:href="#CMR17-32" transform="translate(150.275122 0) scale(0.996264)"/>
      </g>
     </g>
    </g>
    <g id="ytick_2">
     <g id="line2d_23">
      <path d="M 70.168099 288.32412 
L 705.053277 288.32412 
" clip-path="url(#p2c4456d2f7)" style="fill: none; stroke: #404040; stroke-opacity: 0.3; stroke-width: 0.75; stroke-linecap: square"/>
     </g>
     <g id="line2d_24">
      <g>
       <use xlink:href="#m2124fd920c" x="70.168099" y="288.32412" style="fill: #ffffff; stroke: #ffffff; stroke-width: 0.8"/>
      </g>
     </g>
     <g id="text_12">
      <!-- $\mathdefault{−0.1}$ -->
      <g style="fill: #ffffff" transform="translate(20.055677 295.934466) scale(0.22 -0.22)">
       <use xlink:href="#CMSY10-0" transform="scale(0.996264)"/>
       <use xlink:href="#CMR17-30" transform="translate(77.487468 0) scale(0.996264)"/>
       <use xlink:href="#CMMI12-3a" transform="translate(123.177945 0) scale(0.996264)"/>
       <use xlink:href="#CMR17-31" transform="translate(150.275122 0) scale(0.996264)"/>
      </g>
     </g>
    </g>
    <g id="ytick_3">
     <g id="line2d_25">
      <path d="M 70.168099 218.135754 
L 705.053277 218.135754 
" clip-path="url(#p2c4456d2f7)" style="fill: none; stroke: #404040; stroke-opacity: 0.3; stroke-width: 0.75; stroke-linecap: square"/>
     </g>
     <g id="line2d_26">
      <g>
       <use xlink:href="#m2124fd920c" x="70.168099" y="218.135754" style="fill: #ffffff; stroke: #ffffff; stroke-width: 0.8"/>
      </g>
     </g>
     <g id="text_13">
      <!-- $\mathdefault{0.0}$ -->
      <g style="fill: #ffffff" transform="translate(37.10291 225.7461) scale(0.22 -0.22)">
       <use xlink:href="#CMR17-30" transform="scale(0.996264)"/>
       <use xlink:href="#CMMI12-3a" transform="translate(45.690477 0) scale(0.996264)"/>
       <use xlink:href="#CMR17-30" transform="translate(72.787654 0) scale(0.996264)"/>
      </g>
     </g>
    </g>
    <g id="ytick_4">
     <g id="line2d_27">
      <path d="M 70.168099 147.947388 
L 705.053277 147.947388 
" clip-path="url(#p2c4456d2f7)" style="fill: none; stroke: #404040; stroke-opacity: 0.3; stroke-width: 0.75; stroke-linecap: square"/>
     </g>
     <g id="line2d_28">
      <g>
       <use xlink:href="#m2124fd920c" x="70.168099" y="147.947388" style="fill: #ffffff; stroke: #ffffff; stroke-width: 0.8"/>
      </g>
     </g>
     <g id="text_14">
      <!-- $\mathdefault{0.1}$ -->
      <g style="fill: #ffffff" transform="translate(37.10291 155.557735) scale(0.22 -0.22)">
       <use xlink:href="#CMR17-30" transform="scale(0.996264)"/>
       <use xlink:href="#CMMI12-3a" transform="translate(45.690477 0) scale(0.996264)"/>
       <use xlink:href="#CMR17-31" transform="translate(72.787654 0) scale(0.996264)"/>
      </g>
     </g>
    </g>
    <g id="ytick_5">
     <g id="line2d_29">
      <path d="M 70.168099 77.759022 
L 705.053277 77.759022 
" clip-path="url(#p2c4456d2f7)" style="fill: none; stroke: #404040; stroke-opacity: 0.3; stroke-width: 0.75; stroke-linecap: square"/>
     </g>
     <g id="line2d_30">
      <g>
       <use xlink:href="#m2124fd920c" x="70.168099" y="77.759022" style="fill: #ffffff; stroke: #ffffff; stroke-width: 0.8"/>
      </g>
     </g>
     <g id="text_15">
      <!-- $\mathdefault{0.2}$ -->
      <g style="fill: #ffffff" transform="translate(37.10291 85.369369) scale(0.22 -0.22)">
       <use xlink:href="#CMR17-30" transform="scale(0.996264)"/>
       <use xlink:href="#CMMI12-3a" transform="translate(45.690477 0) scale(0.996264)"/>
       <use xlink:href="#CMR17-32" transform="translate(72.787654 0) scale(0.996264)"/>
      </g>
     </g>
    </g>
    <g id="text_16">
     <!-- Value -->
     <g style="fill: #ffffff" transform="translate(14.118498 222.636844) rotate(-90) scale(0.1 -0.1)">
      <defs>
       <path id="CMR17-56" d="M 3776 3745 
C 3834 3886 3936 4160 4365 4160 
L 4365 4332 
C 4218 4319 4051 4319 3891 4319 
C 3738 4319 3475 4319 3328 4332 
L 3328 4160 
C 3648 4160 3661 3936 3661 3898 
C 3661 3827 3642 3783 3622 3732 
L 2362 446 
L 1043 3886 
C 1024 3931 1011 3963 1011 3994 
C 1011 4160 1267 4160 1402 4160 
L 1402 4319 
C 1197 4319 896 4319 685 4319 
C 518 4319 218 4319 64 4332 
L 64 4160 
C 435 4160 506 4135 582 3931 
L 2106 -26 
C 2138 -115 2144 -128 2214 -128 
C 2285 -128 2291 -115 2323 -26 
L 3776 3745 
z
" transform="scale(0.015625)"/>
       <path id="CMR17-61" d="M 2304 1653 
C 2304 2072 2304 2294 2035 2543 
C 1798 2752 1523 2816 1306 2816 
C 800 2816 435 2407 435 1971 
C 435 1728 627 1728 666 1728 
C 749 1728 896 1778 896 1954 
C 896 2112 774 2181 666 2181 
C 640 2181 608 2174 589 2168 
C 723 2592 1069 2714 1293 2714 
C 1613 2714 1965 2429 1965 1885 
L 1965 1600 
C 1587 1600 1133 1549 774 1357 
C 371 1133 256 813 256 570 
C 256 77 832 -64 1171 -64 
C 1523 -64 1850 139 1990 511 
C 2003 233 2182 -18 2464 -18 
C 2598 -18 2938 70 2938 567 
L 2938 920 
L 2822 920 
L 2822 562 
C 2822 178 2650 128 2566 128 
C 2304 128 2304 458 2304 738 
L 2304 1653 
z
M 1965 870 
C 1965 317 1568 38 1216 38 
C 896 38 646 275 646 570 
C 646 761 730 1100 1101 1305 
C 1408 1478 1760 1504 1965 1504 
L 1965 870 
z
" transform="scale(0.015625)"/>
       <path id="CMR17-6c" d="M 979 4396 
L 218 4326 
L 218 4160 
C 595 4160 653 4122 653 3817 
L 653 426 
C 653 184 627 153 218 153 
L 218 -13 
C 371 0 653 0 813 0 
C 979 0 1261 0 1414 -13 
L 1414 153 
C 1005 153 979 178 979 426 
L 979 4396 
z
" transform="scale(0.015625)"/>
       <path id="CMR17-75" d="M 1882 2693 
L 1882 2528 
C 2259 2528 2317 2489 2317 2186 
L 2317 1032 
C 2317 500 2029 38 1555 38 
C 1030 38 986 348 986 678 
L 986 2763 
L 211 2693 
L 211 2528 
C 467 2528 640 2528 646 2274 
L 646 1058 
C 646 633 646 361 813 183 
C 896 101 1056 -64 1517 -64 
C 2061 -64 2272 377 2323 506 
L 2330 506 
L 2330 -63 
L 3091 -63 
L 3091 128 
C 2714 128 2656 166 2656 473 
L 2656 2763 
L 1882 2693 
z
" transform="scale(0.015625)"/>
       <path id="CMR17-65" d="M 2438 1472 
C 2464 1498 2464 1511 2464 1576 
C 2464 2238 2118 2816 1389 2816 
C 710 2816 173 2169 173 1383 
C 173 551 781 -64 1459 -64 
C 2176 -64 2458 607 2458 740 
C 2458 784 2419 784 2406 784 
C 2362 784 2355 771 2330 696 
C 2189 265 1837 51 1504 51 
C 1229 51 954 203 781 480 
C 582 803 582 1176 582 1472 
L 2438 1472 
z
M 589 1568 
C 634 2505 1126 2714 1382 2714 
C 1818 2714 2112 2297 2118 1568 
L 589 1568 
z
" transform="scale(0.015625)"/>
      </defs>
      <use xlink:href="#CMR17-56" transform="scale(0.996264)"/>
      <use xlink:href="#CMR17-61" transform="translate(61.265174 0) scale(0.996264)"/>
      <use xlink:href="#CMR17-6c" transform="translate(106.955652 0) scale(0.996264)"/>
      <use xlink:href="#CMR17-75" transform="translate(131.82671 0) scale(0.996264)"/>
      <use xlink:href="#CMR17-65" transform="translate(182.72208 0) scale(0.996264)"/>
     </g>
    </g>
   </g>
   <g id="line2d_31">
    <path d="M 99.026516 204.007734 
L 102.276257 349.495393 
L 105.56171 214.295908 
L 108.847163 192.449956 
L 112.061193 193.04484 
L 115.310934 148.626745 
L 118.596387 46.227665 
L 121.88184 159.006094 
L 128.345611 92.934679 
L 131.631064 230.201925 
L 134.916516 286.918268 
L 138.130546 259.657466 
L 141.380287 262.71776 
L 144.66574 249.349874 
L 147.951193 238.377179 
L 151.200934 205.384927 
L 154.450676 137.941992 
L 157.736128 177.963886 
L 161.021581 213.158091 
L 164.235611 181.378681 
L 167.485352 265.033592 
L 170.770805 273.32393 
L 174.056258 326.139938 
L 177.270288 374.692859 
L 180.520029 360.491014 
L 183.805482 348.870226 
L 187.090935 355.364608 
L 190.304965 355.528226 
L 193.554706 305.697889 
L 196.840159 253.293312 
L 200.125611 264.755553 
L 203.375353 280.349063 
L 206.625094 247.671065 
L 209.910547 227.434439 
L 213.196 187.586081 
L 216.410029 172.033171 
L 219.659771 236.658607 
L 222.945224 205.88472 
L 226.230676 207.048669 
L 229.444706 148.107125 
L 232.694448 170.471765 
L 235.9799 157.899794 
L 239.265353 180.13208 
L 242.479383 176.851041 
L 245.729124 161.60088 
L 249.014577 177.446142 
L 252.30003 208.140108 
L 255.549771 142.570124 
L 258.799512 175.00547 
L 262.084965 201.570842 
L 265.370418 172.035646 
L 268.584448 195.45635 
L 271.834189 224.051394 
L 275.119642 222.61919 
L 278.405095 202.438711 
L 281.619125 151.42439 
L 284.868866 118.929762 
L 288.154319 102.728505 
L 291.439771 79.486831 
L 294.653801 97.682823 
L 297.903543 150.650737 
L 301.188995 139.898864 
L 304.474448 156.848668 
L 307.72419 118.553191 
L 310.973931 107.019436 
L 314.259384 115.17521 
L 317.544836 139.683119 
L 320.758866 124.911524 
L 324.008608 146.751934 
L 327.29406 187.420576 
L 330.579513 189.851663 
L 333.793543 196.693499 
L 337.043284 207.301653 
L 340.328737 263.454119 
L 343.61419 254.387663 
L 346.82822 217.864566 
L 350.077961 212.610816 
L 353.363414 209.861726 
L 356.648867 188.892194 
L 359.898608 204.952085 
L 363.148349 203.432133 
L 366.433802 208.05973 
L 369.719255 230.97793 
L 372.933285 232.917302 
L 376.183026 198.957851 
L 379.468479 228.89502 
L 382.753932 197.322279 
L 385.967961 157.20291 
L 389.217703 179.673552 
L 392.503156 230.644215 
L 395.788608 216.832647 
L 399.002638 217.615553 
L 402.252379 233.300859 
L 405.537832 213.230141 
L 408.823285 197.827083 
L 412.073026 218.674615 
L 415.322768 174.179577 
L 418.60822 197.119372 
L 421.893673 190.421863 
L 425.107703 168.215083 
L 428.357444 194.819625 
L 431.642897 168.12693 
L 434.92835 157.355003 
L 438.14238 127.375183 
L 441.392121 107.833023 
L 444.677574 127.23103 
L 447.963027 115.951728 
L 451.177057 108.065745 
L 454.426798 88.248182 
L 457.712251 125.157746 
L 460.997703 160.084307 
L 464.247445 213.093563 
L 467.497186 177.957175 
L 470.782639 188.98925 
L 474.068092 259.91326 
L 477.282121 239.246446 
L 480.531863 200.623357 
L 483.817316 198.504843 
L 487.102768 168.37046 
L 490.316798 169.230365 
L 493.56654 209.983789 
L 496.851992 231.225381 
L 500.137445 194.247706 
L 503.351475 197.203449 
L 506.601216 231.064626 
L 509.886669 285.897572 
L 513.172122 286.485066 
L 516.421863 275.406848 
L 519.671604 304.721807 
L 522.957057 310.523502 
L 526.24251 300.473338 
L 529.45654 292.218388 
L 532.706281 265.212853 
L 535.991734 263.577066 
L 539.277187 248.255825 
L 542.491217 259.307128 
L 545.740958 268.532381 
L 549.026411 267.347304 
L 552.311863 280.733203 
L 555.525893 292.609393 
L 558.775635 275.639078 
L 562.061087 289.731422 
L 565.34654 265.55158 
L 568.596282 295.012118 
L 571.846023 309.907383 
L 575.131476 301.30136 
L 578.416928 260.711933 
L 581.630958 267.911461 
L 584.8807 269.283201 
L 588.166152 261.990818 
L 591.451605 253.854859 
L 594.665635 238.105493 
L 597.915376 233.431233 
L 601.200829 225.049338 
L 604.486282 244.525208 
L 607.700312 261.665802 
L 610.950053 285.67836 
L 614.235506 299.457261 
L 617.520959 289.942002 
L 620.7707 354.478234 
L 624.020441 347.657401 
L 627.305894 343.883033 
L 630.591347 337.295631 
L 633.805377 311.40568 
L 637.055118 324.062431 
L 640.340571 328.633818 
L 643.626024 328.738366 
L 646.840053 267.975439 
L 650.089795 244.892154 
L 653.375247 196.0595 
L 656.6607 202.744434 
L 659.87473 193.681165 
L 663.124471 177.102964 
L 666.409924 147.079642 
L 669.695377 190.800756 
L 672.945118 173.045917 
L 676.19486 157.055663 
L 676.19486 157.055663 
" clip-path="url(#p2c4456d2f7)" style="fill: none; stroke: #08306b; stroke-width: 1.5; stroke-linecap: square"/>
   </g>
   <g id="line2d_32">
    <path d="M 99.026516 141.35426 
L 102.276257 211.910473 
L 105.56171 189.242703 
L 108.847163 168.110009 
L 112.061193 195.078957 
L 115.310934 172.811362 
L 118.596387 187.957811 
L 121.88184 201.902545 
L 125.095869 185.458962 
L 128.345611 189.772638 
L 131.631064 215.564209 
L 134.916516 215.204577 
L 138.130546 214.058835 
L 141.380287 212.108072 
L 144.66574 218.549235 
L 147.951193 219.630663 
L 151.200934 218.417126 
L 154.450676 223.34653 
L 157.736128 207.05462 
L 161.021581 233.620344 
L 164.235611 231.556652 
L 167.485352 234.814014 
L 170.770805 235.187234 
L 174.056258 216.558776 
L 177.270288 193.32949 
L 180.520029 203.21602 
L 183.805482 221.745145 
L 187.090935 212.799887 
L 190.304965 211.217816 
L 193.554706 215.844933 
L 196.840159 222.90091 
L 200.125611 223.27263 
L 203.375353 225.941304 
L 206.625094 218.251649 
L 209.910547 207.371751 
L 213.196 194.778355 
L 216.410029 182.992004 
L 219.659771 189.889638 
L 222.945224 189.684498 
L 226.230676 193.710974 
L 229.444706 199.211758 
L 232.694448 201.659434 
L 235.9799 218.785662 
L 239.265353 220.344063 
L 242.479383 227.040029 
L 245.729124 234.770902 
L 249.014577 236.968359 
L 252.30003 249.789595 
L 255.549771 251.5097 
L 258.799512 262.206194 
L 262.084965 271.630943 
L 265.370418 258.865845 
L 268.584448 256.615452 
L 271.834189 243.909871 
L 275.119642 237.487126 
L 278.405095 240.973289 
L 281.619125 243.091697 
L 288.154319 233.997015 
L 291.439771 213.562408 
L 294.653801 216.906867 
L 297.903543 211.168642 
L 301.188995 210.118106 
L 304.474448 208.911849 
L 307.72419 220.231954 
L 310.973931 219.522524 
L 314.259384 219.593202 
L 317.544836 214.174967 
L 320.758866 216.05318 
L 324.008608 213.005338 
L 327.29406 206.711105 
L 330.579513 198.347294 
L 333.793543 199.101695 
L 337.043284 195.036537 
L 340.328737 196.678517 
L 343.61419 199.761648 
L 346.82822 208.87723 
L 350.077961 209.912725 
L 353.363414 211.103801 
L 356.648867 208.578962 
L 359.898608 188.343347 
L 363.148349 189.236406 
L 366.433802 191.162674 
L 369.719255 192.186182 
L 372.933285 214.709529 
L 376.183026 228.025078 
L 379.468479 242.780747 
L 382.753932 255.800016 
L 385.967961 253.394022 
L 389.217703 256.003692 
L 392.503156 248.706809 
L 395.788608 255.940602 
L 399.002638 256.363458 
L 402.252379 251.657619 
L 405.537832 259.475339 
L 408.823285 260.742412 
L 412.073026 254.547157 
L 415.322768 251.600891 
L 418.60822 239.171743 
L 421.893673 229.412859 
L 425.107703 219.454151 
L 428.357444 205.266239 
L 431.642897 203.541644 
L 434.92835 198.13444 
L 438.14238 201.018977 
L 441.392121 200.262125 
L 444.677574 196.329023 
L 447.963027 196.841496 
L 451.177057 200.202549 
L 454.426798 205.27339 
L 457.712251 214.587482 
L 460.997703 221.667431 
L 464.247445 245.9404 
L 467.497186 235.816413 
L 470.782639 245.925329 
L 474.068092 242.308538 
L 477.282121 247.514885 
L 480.531863 263.499969 
L 483.817316 260.368595 
L 487.102768 269.737121 
L 490.316798 270.619185 
L 493.56654 254.30834 
L 496.851992 246.527565 
L 500.137445 262.628619 
L 503.351475 263.547551 
L 506.601216 261.516471 
L 509.886669 230.441512 
L 513.172122 229.662677 
L 516.421863 236.855076 
L 519.671604 220.951999 
L 522.957057 222.182698 
L 526.24251 225.440787 
L 529.45654 229.031173 
L 532.706281 241.79902 
L 535.991734 246.699044 
L 539.277187 254.316608 
L 542.491217 244.273226 
L 545.740958 238.80292 
L 549.026411 235.383545 
L 552.311863 223.706814 
L 555.525893 220.336577 
L 558.775635 230.145802 
L 562.061087 223.173917 
L 565.34654 219.872494 
L 568.596282 213.139838 
L 571.846023 207.194273 
L 575.131476 206.821525 
L 578.416928 220.827624 
L 581.630958 215.968389 
L 584.8807 210.209827 
L 588.166152 209.440082 
L 591.451605 201.970831 
L 594.665635 201.762924 
L 601.200829 199.098108 
L 604.486282 193.507346 
L 607.700312 190.961511 
L 610.950053 190.963871 
L 614.235506 185.523788 
L 617.520959 194.750878 
L 620.7707 194.539734 
L 624.020441 195.119354 
L 627.305894 196.590579 
L 630.591347 202.652101 
L 633.805377 223.183995 
L 637.055118 214.099314 
L 640.340571 213.811921 
L 643.626024 205.855698 
L 646.840053 197.583942 
L 650.089795 196.761934 
L 653.375247 185.615329 
L 656.6607 178.441409 
L 659.87473 176.330093 
L 663.124471 170.390361 
L 666.409924 187.169686 
L 669.695377 181.325814 
L 672.945118 182.496642 
L 676.19486 187.488063 
L 676.19486 187.488063 
" clip-path="url(#p2c4456d2f7)" style="fill: none; stroke: #125da6; stroke-width: 1.5; stroke-linecap: square"/>
   </g>
   <g id="line2d_33">
    <path d="M 99.026516 193.489057 
L 102.276257 219.616322 
L 105.56171 214.205471 
L 108.847163 201.671927 
L 112.061193 219.141078 
L 115.310934 211.655748 
L 118.596387 221.60088 
L 121.88184 225.840811 
L 125.095869 222.662287 
L 128.345611 223.642062 
L 131.631064 239.361172 
L 134.916516 232.092364 
L 138.130546 226.904584 
L 141.380287 228.215607 
L 144.66574 230.881323 
L 147.951193 230.507329 
L 151.200934 230.28513 
L 154.450676 234.162755 
L 157.736128 231.286279 
L 161.021581 233.897202 
L 164.235611 231.263038 
L 167.485352 232.211515 
L 170.770805 228.340465 
L 174.056258 220.985791 
L 180.520029 227.640818 
L 183.805482 225.315113 
L 187.090935 219.396682 
L 190.304965 220.892217 
L 193.554706 225.666058 
L 196.840159 228.110767 
L 200.125611 227.794224 
L 203.375353 223.205298 
L 206.625094 223.359723 
L 209.910547 220.290642 
L 213.196 223.270992 
L 216.410029 222.775828 
L 219.659771 217.239495 
L 222.945224 219.54085 
L 226.230676 218.046681 
L 229.444706 221.763165 
L 232.694448 221.333719 
L 235.9799 218.159131 
L 239.265353 218.42289 
L 242.479383 225.4234 
L 245.729124 226.135692 
L 249.014577 221.341875 
L 252.30003 220.921554 
L 255.549771 230.781738 
L 258.799512 220.932191 
L 262.084965 214.725519 
L 265.370418 225.089008 
L 268.584448 217.614529 
L 271.834189 217.639751 
L 275.119642 218.470271 
L 278.405095 220.365263 
L 281.619125 225.53824 
L 284.868866 225.877657 
L 288.154319 224.059927 
L 291.439771 228.007133 
L 294.653801 220.204243 
L 297.903543 214.536984 
L 301.188995 216.056848 
L 304.474448 215.119644 
L 307.72419 217.734842 
L 310.973931 220.201461 
L 314.259384 221.307461 
L 317.544836 219.599556 
L 320.758866 221.654789 
L 324.008608 220.632592 
L 327.29406 220.280372 
L 330.579513 218.277499 
L 333.793543 218.176979 
L 337.043284 219.431955 
L 340.328737 211.119254 
L 343.61419 214.780331 
L 346.82822 217.000158 
L 350.077961 219.988218 
L 353.363414 218.815521 
L 356.648867 220.309103 
L 359.898608 222.329956 
L 363.148349 219.576871 
L 366.433802 212.817463 
L 369.719255 209.67082 
L 372.933285 213.281324 
L 376.183026 220.059924 
L 379.468479 215.683037 
L 382.753932 226.366792 
L 385.967961 229.036414 
L 389.217703 221.405137 
L 392.503156 207.409473 
L 395.788608 209.345816 
L 399.002638 210.173197 
L 402.252379 209.498257 
L 405.537832 210.396845 
L 408.823285 215.273865 
L 412.073026 211.840726 
L 415.322768 219.300886 
L 418.60822 214.834197 
L 421.893673 215.167771 
L 425.107703 220.175407 
L 428.357444 217.014455 
L 431.642897 218.009501 
L 434.92835 215.705497 
L 438.14238 215.259239 
L 441.392121 213.74258 
L 444.677574 211.157202 
L 447.963027 211.776396 
L 451.177057 209.11741 
L 454.426798 213.01013 
L 457.712251 210.466117 
L 460.997703 205.839828 
L 464.247445 205.521596 
L 467.497186 214.920102 
L 470.782639 210.001462 
L 474.068092 210.51347 
L 477.282121 207.802884 
L 480.531863 215.772223 
L 483.817316 215.722649 
L 487.102768 215.177431 
L 490.316798 214.328246 
L 493.56654 209.309905 
L 496.851992 205.434943 
L 500.137445 208.01837 
L 503.351475 212.076015 
L 506.601216 205.816689 
L 509.886669 209.187545 
L 513.172122 208.661087 
L 516.421863 206.904828 
L 519.671604 209.318335 
L 522.957057 207.161102 
L 526.24251 207.573345 
L 529.45654 206.500666 
L 532.706281 210.023168 
L 535.991734 209.247447 
L 539.277187 210.065318 
L 542.491217 215.292254 
L 545.740958 216.514637 
L 549.026411 221.236123 
L 552.311863 223.860356 
L 555.525893 220.583406 
L 558.775635 219.865712 
L 562.061087 219.293288 
L 565.34654 220.56746 
L 568.596282 217.023565 
L 571.846023 217.926193 
L 575.131476 218.443615 
L 578.416928 221.323843 
L 581.630958 220.14584 
L 584.8807 218.785481 
L 588.166152 219.094238 
L 591.451605 220.864147 
L 594.665635 222.183337 
L 597.915376 223.87269 
L 601.200829 223.187693 
L 604.486282 216.125296 
L 607.700312 216.044936 
L 610.950053 214.113316 
L 614.235506 216.090092 
L 620.7707 218.09954 
L 624.020441 216.637123 
L 627.305894 216.397225 
L 630.591347 214.981066 
L 633.805377 213.850608 
L 637.055118 217.761826 
L 640.340571 219.294941 
L 643.626024 225.304891 
L 646.840053 233.341186 
L 650.089795 224.963498 
L 653.375247 222.108598 
L 656.6607 213.574201 
L 659.87473 209.436484 
L 663.124471 214.939559 
L 669.695377 207.046286 
L 672.945118 210.290093 
L 676.19486 211.22856 
L 676.19486 211.22856 
" clip-path="url(#p2c4456d2f7)" style="fill: none; stroke: #3b8bc2; stroke-width: 1.5; stroke-linecap: square"/>
   </g>
   <g id="line2d_34">
    <path d="M 99.026516 224.993302 
L 102.276257 223.509283 
L 105.56171 222.299669 
L 108.847163 205.66267 
L 112.061193 213.604583 
L 115.310934 212.877065 
L 118.596387 222.319354 
L 121.88184 221.229733 
L 125.095869 214.63463 
L 128.345611 217.895291 
L 131.631064 226.776592 
L 134.916516 215.618192 
L 138.130546 216.660612 
L 141.380287 216.089396 
L 144.66574 216.381436 
L 147.951193 216.506546 
L 151.200934 214.798647 
L 154.450676 221.571914 
L 157.736128 216.704969 
L 161.021581 216.971278 
L 164.235611 217.790206 
L 167.485352 216.758553 
L 170.770805 220.342894 
L 174.056258 219.163245 
L 177.270288 217.305627 
L 180.520029 217.795987 
L 183.805482 218.858876 
L 187.090935 219.425881 
L 190.304965 219.03057 
L 193.554706 218.390773 
L 196.840159 219.666412 
L 200.125611 220.785294 
L 203.375353 219.674654 
L 206.625094 221.070702 
L 209.910547 219.618093 
L 213.196 217.677616 
L 216.410029 217.455352 
L 219.659771 215.154533 
L 222.945224 215.90223 
L 226.230676 215.310163 
L 229.444706 216.321188 
L 232.694448 215.837929 
L 235.9799 216.819806 
L 239.265353 216.922916 
L 242.479383 217.341027 
L 245.729124 216.844856 
L 249.014577 216.530422 
L 252.30003 217.214997 
L 255.549771 215.073908 
L 258.799512 217.041861 
L 262.084965 219.947191 
L 265.370418 214.862045 
L 268.584448 217.394848 
L 271.834189 219.287836 
L 275.119642 219.28183 
L 278.405095 218.915028 
L 281.619125 218.199105 
L 284.868866 220.52545 
L 288.154319 220.030435 
L 291.439771 222.755797 
L 294.653801 218.965614 
L 297.903543 219.231225 
L 301.188995 219.200796 
L 304.474448 218.134928 
L 307.72419 219.906253 
L 310.973931 219.76454 
L 314.259384 219.380629 
L 317.544836 218.375147 
L 320.758866 219.025535 
L 324.008608 219.033274 
L 327.29406 218.879136 
L 330.579513 217.929963 
L 333.793543 218.299824 
L 337.043284 218.258124 
L 340.328737 220.207435 
L 343.61419 219.083521 
L 346.82822 219.928511 
L 350.077961 220.045356 
L 353.363414 219.800805 
L 356.648867 219.781236 
L 359.898608 218.453002 
L 363.148349 218.724556 
L 366.433802 217.152934 
L 369.719255 216.730345 
L 372.933285 216.950969 
L 376.183026 216.95346 
L 379.468479 216.749923 
L 382.753932 215.417147 
L 385.967961 218.48705 
L 389.217703 217.696183 
L 392.503156 219.073095 
L 395.788608 218.274132 
L 399.002638 217.946154 
L 402.252379 219.055985 
L 405.537832 217.623427 
L 408.823285 217.980473 
L 412.073026 218.762115 
L 418.60822 220.900249 
L 421.893673 221.054844 
L 425.107703 221.002861 
L 428.357444 220.3675 
L 431.642897 219.884805 
L 434.92835 218.700045 
L 438.14238 218.22438 
L 441.392121 218.149237 
L 444.677574 216.914163 
L 447.963027 217.50924 
L 451.177057 217.122432 
L 454.426798 217.239143 
L 457.712251 217.143745 
L 460.997703 216.006125 
L 464.247445 220.678528 
L 467.497186 218.710459 
L 470.782639 216.891751 
L 474.068092 217.374595 
L 477.282121 219.715654 
L 480.531863 216.82614 
L 483.817316 216.954978 
L 487.102768 217.859432 
L 490.316798 216.950138 
L 493.56654 217.238167 
L 496.851992 219.492743 
L 500.137445 216.669814 
L 503.351475 217.264688 
L 506.601216 219.410854 
L 509.886669 220.507748 
L 513.172122 220.741719 
L 516.421863 221.385249 
L 519.671604 221.861743 
L 522.957057 222.472995 
L 526.24251 222.144943 
L 529.45654 222.570139 
L 532.706281 217.985924 
L 535.991734 218.514459 
L 539.277187 215.441619 
L 542.491217 214.003748 
L 545.740958 214.856769 
L 549.026411 214.130924 
L 552.311863 214.429154 
L 555.525893 215.54036 
L 558.775635 215.541882 
L 562.061087 217.655252 
L 565.34654 216.546593 
L 568.596282 217.606364 
L 571.846023 217.071713 
L 575.131476 217.627382 
L 578.416928 215.81955 
L 581.630958 215.538848 
L 588.166152 216.642632 
L 591.451605 216.389344 
L 594.665635 216.465781 
L 597.915376 217.992076 
L 601.200829 218.488671 
L 604.486282 216.855546 
L 607.700312 217.293722 
L 610.950053 216.912672 
L 614.235506 217.388757 
L 617.520959 217.42019 
L 620.7707 218.446931 
L 624.020441 218.520622 
L 627.305894 218.913217 
L 630.591347 218.609625 
L 633.805377 216.166917 
L 637.055118 216.824039 
L 640.340571 215.653835 
L 643.626024 217.610988 
L 646.840053 222.099438 
L 650.089795 222.30817 
L 653.375247 218.887118 
L 656.6607 218.290644 
L 659.87473 216.594753 
L 663.124471 222.164135 
L 666.409924 219.577229 
L 669.695377 215.771649 
L 672.945118 217.473149 
L 676.19486 217.580014 
L 676.19486 217.580014 
" clip-path="url(#p2c4456d2f7)" style="fill: none; stroke: #75b4d8; stroke-width: 1.5; stroke-linecap: square"/>
   </g>
   <g id="line2d_35">
    <path d="M 99.026516 217.676429 
L 102.276257 213.383395 
L 105.56171 216.284525 
L 108.847163 216.540175 
L 112.061193 215.888918 
L 115.310934 216.479639 
L 118.596387 217.761784 
L 121.88184 220.066278 
L 125.095869 218.29053 
L 128.345611 217.707666 
L 131.631064 221.737699 
L 134.916516 217.582012 
L 138.130546 217.358416 
L 141.380287 217.607486 
L 144.66574 217.99463 
L 147.951193 217.925093 
L 151.200934 218.661436 
L 157.736128 217.613571 
L 161.021581 217.641065 
L 167.485352 216.830783 
L 170.770805 215.413716 
L 174.056258 217.453209 
L 177.270288 218.401886 
L 180.520029 217.920111 
L 183.805482 217.79675 
L 187.090935 218.138504 
L 190.304965 218.287155 
L 193.554706 218.324572 
L 196.840159 218.180223 
L 200.125611 221.024813 
L 203.375353 219.54183 
L 206.625094 219.61426 
L 209.910547 219.063178 
L 213.196 220.609086 
L 216.410029 219.843126 
L 219.659771 219.868492 
L 222.945224 219.458274 
L 226.230676 218.623343 
L 229.444706 217.664206 
L 232.694448 218.424216 
L 235.9799 218.416958 
L 239.265353 218.551848 
L 242.479383 217.574849 
L 245.729124 218.525854 
L 252.30003 218.787417 
L 255.549771 218.304951 
L 258.799512 218.991823 
L 262.084965 218.199927 
L 265.370418 217.782646 
L 268.584448 218.323558 
L 271.834189 217.550796 
L 275.119642 217.321578 
L 278.405095 217.577786 
L 281.619125 218.317076 
L 284.868866 218.429696 
L 288.154319 216.513754 
L 291.439771 220.518332 
L 294.653801 217.364351 
L 297.903543 216.917144 
L 301.188995 216.697935 
L 304.474448 218.057103 
L 307.72419 216.67914 
L 310.973931 216.921801 
L 314.259384 217.845538 
L 317.544836 216.937591 
L 324.008608 216.758527 
L 327.29406 218.569265 
L 330.579513 217.381233 
L 333.793543 217.294753 
L 337.043284 218.028898 
L 340.328737 217.105166 
L 343.61419 217.432011 
L 346.82822 217.310932 
L 350.077961 218.039373 
L 353.363414 218.22342 
L 356.648867 219.580397 
L 359.898608 218.711062 
L 363.148349 219.637072 
L 366.433802 219.41359 
L 369.719255 218.572436 
L 372.933285 217.965693 
L 379.468479 217.288857 
L 382.753932 215.674944 
L 385.967961 217.260442 
L 389.217703 216.171952 
L 392.503156 217.652395 
L 395.788608 217.331706 
L 399.002638 217.195418 
L 402.252379 217.732881 
L 408.823285 216.982803 
L 412.073026 217.222858 
L 415.322768 217.139157 
L 425.107703 217.23241 
L 428.357444 217.450333 
L 431.642897 219.310949 
L 434.92835 217.586184 
L 438.14238 217.610286 
L 441.392121 218.008414 
L 444.677574 218.211333 
L 447.963027 217.896761 
L 451.177057 218.180178 
L 454.426798 217.961201 
L 457.712251 218.807799 
L 460.997703 220.037265 
L 464.247445 218.559418 
L 467.497186 218.015925 
L 470.782639 220.283368 
L 474.068092 220.631703 
L 477.282121 219.129455 
L 480.531863 219.915071 
L 483.817316 219.735699 
L 487.102768 219.224302 
L 493.56654 219.170035 
L 496.851992 218.864855 
L 500.137445 218.870646 
L 503.351475 218.219062 
L 506.601216 219.172238 
L 509.886669 218.124563 
L 516.421863 217.876308 
L 519.671604 217.042901 
L 522.957057 216.990106 
L 526.24251 217.163394 
L 529.45654 217.000331 
L 532.706281 218.382945 
L 535.991734 218.935925 
L 539.277187 219.961295 
L 542.491217 218.638454 
L 545.740958 218.295567 
L 549.026411 217.278054 
L 552.311863 217.909023 
L 555.525893 218.153773 
L 558.775635 218.541521 
L 562.061087 218.333559 
L 568.596282 218.582081 
L 571.846023 218.574039 
L 575.131476 218.143552 
L 578.416928 218.596062 
L 581.630958 218.289017 
L 584.8807 218.577694 
L 588.166152 218.403139 
L 591.451605 218.448765 
L 594.665635 218.254477 
L 597.915376 218.865485 
L 601.200829 218.465612 
L 604.486282 218.461298 
L 607.700312 218.290461 
L 610.950053 218.370161 
L 617.520959 218.080492 
L 627.305894 217.808663 
L 630.591347 218.360499 
L 633.805377 219.712906 
L 637.055118 218.663284 
L 640.340571 218.568933 
L 643.626024 217.964204 
L 646.840053 216.522933 
L 650.089795 220.277332 
L 653.375247 217.16327 
L 656.6607 217.275461 
L 659.87473 218.097848 
L 663.124471 221.203156 
L 666.409924 219.615487 
L 669.695377 218.382503 
L 672.945118 217.928269 
L 676.19486 217.812767 
L 676.19486 217.812767 
" clip-path="url(#p2c4456d2f7)" style="fill: none; stroke: #b7d4ea; stroke-width: 1.5; stroke-linecap: square"/>
   </g>
   <g id="text_17">
    <!-- X -->
    <g style="fill: #ffffff" transform="translate(379.322 23.804405) scale(0.24 -0.24)">
     <defs>
      <path id="CMR17-58" d="M 2336 2398 
L 3283 3753 
C 3379 3886 3571 4160 4096 4160 
L 4096 4332 
C 3949 4319 3706 4319 3552 4319 
C 3341 4319 3078 4319 2918 4332 
L 2918 4166 
C 3123 4147 3174 4020 3174 3918 
C 3174 3843 3142 3792 3098 3728 
L 2253 2513 
L 1306 3887 
C 1261 3956 1254 3975 1254 3994 
C 1254 4052 1325 4160 1536 4160 
L 1536 4319 
C 1331 4319 1018 4319 806 4319 
C 640 4319 320 4319 166 4332 
L 166 4160 
C 518 4160 634 4148 774 3951 
L 2010 2163 
L 896 549 
C 621 153 205 153 83 153 
L 83 -13 
C 230 0 474 0 627 0 
C 800 0 1101 0 1261 -13 
L 1261 153 
C 1062 172 1005 299 1005 401 
C 1005 483 1037 528 1069 572 
L 2093 2048 
L 3206 422 
C 3258 352 3258 333 3258 314 
C 3258 263 3200 153 2976 153 
L 2976 0 
C 3181 0 3494 0 3706 0 
C 3872 0 4192 0 4346 -13 
L 4346 153 
C 3936 153 3872 184 3744 363 
L 2336 2398 
z
" transform="scale(0.015625)"/>
     </defs>
     <use xlink:href="#CMR17-58" transform="scale(0.996264)"/>
    </g>
   </g>
   <g id="legend_1">
    <g id="patch_3">
     <path d="M 631.132989 170.262308 
L 698.053277 170.262308 
Q 700.053277 170.262308 700.053277 168.262308 
L 700.053277 36.804405 
Q 700.053277 34.804405 698.053277 34.804405 
L 631.132989 34.804405 
Q 629.132989 34.804405 629.132989 36.804405 
L 629.132989 168.262308 
Q 629.132989 170.262308 631.132989 170.262308 
z
" style="fill: #1c1c1c; opacity: 0.8; stroke: #cccccc; stroke-linejoin: miter"/>
    </g>
    <g id="line2d_36">
     <path d="M 633.132989 50.525099 
L 643.132989 50.525099 
L 653.132989 50.525099 
" style="fill: none; stroke: #08306b; stroke-width: 1.5; stroke-linecap: square"/>
    </g>
    <g id="text_18">
     <!-- $X_{1,t}$ -->
     <g style="fill: #ffffff" transform="translate(661.132989 54.025099) scale(0.22 -0.22)">
      <defs>
       <path id="CMMI12-58" d="M 3040 2596 
L 2438 3994 
C 2522 4147 2714 4172 2790 4179 
C 2829 4179 2899 4179 2899 4292 
C 2899 4364 2842 4364 2803 4364 
C 2694 4364 2566 4364 2458 4364 
L 2086 4364 
C 1696 4364 1414 4364 1408 4364 
C 1357 4364 1293 4364 1293 4243 
C 1293 4179 1350 4179 1434 4179 
C 1805 4179 1830 4115 1894 3962 
L 2656 2185 
L 1267 693 
C 1037 442 762 198 288 198 
C 211 192 160 192 160 68 
C 160 48 166 0 237 0 
C 326 0 422 0 512 0 
L 813 0 
C 1018 0 1242 0 1440 0 
C 1485 0 1562 0 1562 115 
C 1562 179 1517 185 1478 185 
C 1350 198 1267 268 1267 370 
C 1267 479 1344 557 1530 748 
L 2099 1368 
C 2240 1516 2579 1886 2720 2026 
L 3392 453 
C 3398 441 3424 377 3424 370 
C 3424 313 3283 198 3078 198 
C 3040 198 2970 198 2970 71 
C 2970 0 3034 0 3066 0 
C 3174 0 3302 0 3411 0 
L 4115 0 
C 4230 0 4352 0 4461 0 
C 4506 0 4576 0 4576 130 
C 4576 198 4512 198 4454 198 
C 4070 198 4058 230 3949 465 
L 3104 2441 
L 3917 3316 
C 3981 3381 4128 3542 4186 3606 
C 4461 3896 4717 4160 5235 4160 
C 5299 4179 5363 4179 5363 4292 
C 5363 4364 5306 4364 5280 4364 
C 5190 4364 5094 4364 5005 4364 
L 4710 4364 
C 4506 4364 4282 4364 4083 4364 
C 4038 4364 3962 4364 3962 4249 
C 3962 4185 4006 4179 4045 4179 
C 4147 4167 4256 4116 4256 3994 
L 4250 3982 
C 4243 3937 4230 3873 4160 3797 
L 3040 2596 
z
" transform="scale(0.015625)"/>
       <path id="CMMI12-3b" d="M 1248 -31 
C 1248 343 1126 619 864 619 
C 659 619 557 453 557 313 
C 557 172 653 0 870 0 
C 954 0 1024 26 1082 83 
C 1094 96 1101 96 1107 96 
C 1120 96 1120 5 1120 -27 
C 1120 -240 1082 -659 710 -1080 
C 640 -1157 640 -1170 640 -1183 
C 640 -1216 672 -1248 704 -1248 
C 755 -1248 1248 -771 1248 -31 
z
" transform="scale(0.015625)"/>
       <path id="CMMI12-74" d="M 1286 2566 
L 1875 2566 
C 1997 2566 2061 2566 2061 2681 
C 2061 2752 2022 2752 1894 2752 
L 1331 2752 
L 1568 3692 
C 1594 3781 1594 3794 1594 3840 
C 1594 3943 1510 4000 1427 4000 
C 1376 4000 1229 3981 1178 3775 
L 928 2752 
L 326 2752 
C 198 2752 141 2752 141 2630 
C 141 2566 186 2566 307 2566 
L 877 2566 
L 454 881 
C 403 658 384 594 384 511 
C 384 211 595 -64 954 -64 
C 1600 -64 1946 868 1946 912 
C 1946 951 1920 970 1882 970 
C 1869 970 1843 970 1830 944 
C 1824 938 1818 931 1773 829 
C 1638 511 1344 64 973 64 
C 781 64 768 224 768 364 
C 768 370 768 492 787 568 
L 1286 2566 
z
" transform="scale(0.015625)"/>
      </defs>
      <use xlink:href="#CMMI12-58" transform="scale(0.996264)"/>
      <use xlink:href="#CMR17-31" transform="translate(80.960224 -14.943915) scale(0.697382)"/>
      <use xlink:href="#CMMI12-3b" transform="translate(112.943406 -14.943915) scale(0.697382)"/>
      <use xlink:href="#CMMI12-74" transform="translate(131.911338 -14.943915) scale(0.697382)"/>
     </g>
    </g>
    <g id="line2d_37">
     <path d="M 633.132989 77.016679 
L 643.132989 77.016679 
L 653.132989 77.016679 
" style="fill: none; stroke: #125da6; stroke-width: 1.5; stroke-linecap: square"/>
    </g>
    <g id="text_19">
     <!-- $X_{2,t}$ -->
     <g style="fill: #ffffff" transform="translate(661.132989 80.516679) scale(0.22 -0.22)">
      <use xlink:href="#CMMI12-58" transform="scale(0.996264)"/>
      <use xlink:href="#CMR17-32" transform="translate(80.960224 -14.943915) scale(0.697382)"/>
      <use xlink:href="#CMMI12-3b" transform="translate(112.943406 -14.943915) scale(0.697382)"/>
      <use xlink:href="#CMMI12-74" transform="translate(131.911338 -14.943915) scale(0.697382)"/>
     </g>
    </g>
    <g id="line2d_38">
     <path d="M 633.132989 103.50826 
L 643.132989 103.50826 
L 653.132989 103.50826 
" style="fill: none; stroke: #3b8bc2; stroke-width: 1.5; stroke-linecap: square"/>
    </g>
    <g id="text_20">
     <!-- $X_{3,t}$ -->
     <g style="fill: #ffffff" transform="translate(661.132989 107.00826) scale(0.22 -0.22)">
      <defs>
       <path id="CMR17-33" d="M 1414 2157 
C 1984 2157 2234 1662 2234 1090 
C 2234 320 1824 25 1453 25 
C 1114 25 563 194 390 693 
C 422 680 454 680 486 680 
C 640 680 755 782 755 948 
C 755 1133 614 1216 486 1216 
C 378 1216 211 1165 211 926 
C 211 335 787 -128 1466 -128 
C 2176 -128 2720 430 2720 1085 
C 2720 1707 2208 2157 1600 2227 
C 2086 2328 2554 2756 2554 3329 
C 2554 3820 2048 4179 1472 4179 
C 890 4179 378 3829 378 3329 
C 378 3110 544 3072 627 3072 
C 762 3072 877 3155 877 3321 
C 877 3486 762 3569 627 3569 
C 602 3569 570 3569 544 3557 
C 730 3959 1235 4032 1459 4032 
C 1683 4032 2106 3925 2106 3320 
C 2106 3143 2080 2828 1862 2550 
C 1670 2304 1453 2304 1242 2284 
C 1210 2284 1062 2269 1037 2269 
C 992 2263 966 2257 966 2208 
C 966 2163 973 2157 1101 2157 
L 1414 2157 
z
" transform="scale(0.015625)"/>
      </defs>
      <use xlink:href="#CMMI12-58" transform="scale(0.996264)"/>
      <use xlink:href="#CMR17-33" transform="translate(80.960224 -14.943915) scale(0.697382)"/>
      <use xlink:href="#CMMI12-3b" transform="translate(112.943406 -14.943915) scale(0.697382)"/>
      <use xlink:href="#CMMI12-74" transform="translate(131.911338 -14.943915) scale(0.697382)"/>
     </g>
    </g>
    <g id="line2d_39">
     <path d="M 633.132989 129.999841 
L 643.132989 129.999841 
L 653.132989 129.999841 
" style="fill: none; stroke: #75b4d8; stroke-width: 1.5; stroke-linecap: square"/>
    </g>
    <g id="text_21">
     <!-- $X_{4,t}$ -->
     <g style="fill: #ffffff" transform="translate(661.132989 133.499841) scale(0.22 -0.22)">
      <defs>
       <path id="CMR17-34" d="M 2150 4122 
C 2150 4256 2144 4256 2029 4256 
L 128 1254 
L 128 1088 
L 1779 1088 
L 1779 457 
C 1779 224 1766 160 1318 160 
L 1197 160 
L 1197 0 
C 1402 0 1747 0 1965 0 
C 2182 0 2528 0 2733 0 
L 2733 160 
L 2611 160 
C 2163 160 2150 224 2150 457 
L 2150 1088 
L 2803 1088 
L 2803 1254 
L 2150 1254 
L 2150 4122 
z
M 1798 3703 
L 1798 1254 
L 256 1254 
L 1798 3703 
z
" transform="scale(0.015625)"/>
      </defs>
      <use xlink:href="#CMMI12-58" transform="scale(0.996264)"/>
      <use xlink:href="#CMR17-34" transform="translate(80.960224 -14.943915) scale(0.697382)"/>
      <use xlink:href="#CMMI12-3b" transform="translate(112.943406 -14.943915) scale(0.697382)"/>
      <use xlink:href="#CMMI12-74" transform="translate(131.911338 -14.943915) scale(0.697382)"/>
     </g>
    </g>
    <g id="line2d_40">
     <path d="M 633.132989 156.491421 
L 643.132989 156.491421 
L 653.132989 156.491421 
" style="fill: none; stroke: #b7d4ea; stroke-width: 1.5; stroke-linecap: square"/>
    </g>
    <g id="text_22">
     <!-- $X_{5,t}$ -->
     <g style="fill: #ffffff" transform="translate(661.132989 159.991421) scale(0.22 -0.22)">
      <use xlink:href="#CMMI12-58" transform="scale(0.996264)"/>
      <use xlink:href="#CMR17-35" transform="translate(80.960224 -14.943915) scale(0.697382)"/>
      <use xlink:href="#CMMI12-3b" transform="translate(112.943406 -14.943915) scale(0.697382)"/>
      <use xlink:href="#CMMI12-74" transform="translate(131.911338 -14.943915) scale(0.697382)"/>
     </g>
    </g>
   </g>
  </g>
 </g>
 <defs>
  <clipPath id="p2c4456d2f7">
   <rect x="70.168099" y="29.804405" width="634.885178" height="361.311714"/>
  </clipPath>
 </defs>
</svg>
